<?xml version="1.0" encoding="utf-8"?>
<!-- Generator: Adobe Illustrator 23.1.1, SVG Export Plug-In . SVG Version: 6.00 Build 0)  -->
<svg version="1.1" id="Ebene_1" xmlns="http://www.w3.org/2000/svg" xmlns:xlink="http://www.w3.org/1999/xlink" x="0px" y="0px"
	 viewBox="0 0 198 78" style="enable-background:new 0 0 198 78;" xml:space="preserve">
<style type="text/css">
	.st0{fill:#1D1D1B;}
</style>
<g>
	<g>
		<g>
			<path class="st0" d="M130.3,57.2c0,8.2-1.9,14.4-9.3,20.2l-8.1-6.8c4.2-4,5.6-7,5.7-11.9h-6.5V40.3h18.2V57.2z"/>
			<rect x="112.3" y="9.8" class="st0" width="18" height="18.3"/>
		</g>
		<polygon class="st0" points="0,58.7 0,0.7 43.6,0.7 43.6,14.5 17.5,14.5 17.5,24.7 41.6,24.7 41.6,38.5 17.5,38.5 17.5,58.7 		"/>
		<path class="st0" d="M84.3,58.7V36h-17v22.7H49.4v-58h17.9v20.4h16.9V0.7h18v58H84.3z"/>
		<path class="st0" d="M140.5,58.7v-58h24.8c11.4,0,16.3,1.2,19.8,3.5c5.1,3.4,7.6,8.9,7.6,16.1c0,6.7-2.6,12.5-7.3,15.9
			c-4,2.9-9.3,4.3-18.3,4.3h-8.8v18.2H140.5z M165.1,27c3.5,0,6-0.5,7.4-1.6c1.3-1.1,1.8-2.7,1.8-4.6c0-1.8-0.5-3.4-1.8-4.6
			s-3.4-1.6-7.1-1.6h-7.1V27H165.1z"/>
	</g>
</g>
</svg>
