<?xml version="1.0" encoding="utf-8"?>
<!-- Generator: Adobe Illustrator 22.1.0, SVG Export Plug-In . SVG Version: 6.00 Build 0)  -->
<svg version="1.1" id="DensityDesign_Logo" xmlns="http://www.w3.org/2000/svg" xmlns:xlink="http://www.w3.org/1999/xlink" x="0px"
	 y="0px" viewBox="0 0 21.1 24.3" style="enable-background:new 0 0 21.1 24.3;" xml:space="preserve">
<rect x="17.7" y="2.6" width="3.4" height="0.6"/>
<path d="M6.5,6.2V0h2v0.9h-1v1.7h0.7v0.8H7.4v1.8h1v0.9H6.5z"/>
<path d="M14.4,6.2l-1-3.1l-0.3-1v4.1h-0.6V0H13l1,3.2l0.3,1V0h0.6v6.2L14.4,6.2L14.4,6.2z"/>
<path d="M6.9,15.4V9.2h1v6.2H6.9z"/>
<path d="M1.8,24.3L1.7,24c-0.1,0.3-0.4,0.4-0.7,0.4c-0.6,0-1.1-0.5-1.1-1.2v-3.9c0-0.7,0.5-1.2,1.2-1.2c0.7,0,1.2,0.5,1.2,1.2v1.1
	H1.5v-1.2c0-0.1-0.1-0.2-0.2-0.2C1.1,19,1,19.1,1,19.2v4c0,0.2,0.1,0.3,0.3,0.3c0.2,0,0.3-0.1,0.3-0.3V22H1.2v-0.7h1.2v3L1.8,24.3
	L1.8,24.3z"/>
<path d="M7.8,24.3l-0.7-2.8l-0.2-0.8v3.6H6.1v-6.2H7l0.6,2.8l0.2,0.9v-3.6h0.8v6.2L7.8,24.3L7.8,24.3z"/>
<path d="M14,9.8v5.5h-0.7V9.8h-0.8V9.2h2.3v0.6L14,9.8L14,9.8z"/>
<path d="M19.8,12.9v2.4h-0.7v-2.4l-1-3.7h0.7l0.7,2.9l0.7-2.9h0.6L19.8,12.9z"/>
<rect x="11.9" y="20.8" width="3.4" height="0.7"/>
<rect x="13.3" y="19.4" width="0.7" height="3.4"/>
<path d="M0.8,6.2H0.1V0h0.7c1.7,0,1.8,0.7,1.8,3.1C2.6,5.5,2.4,6.2,0.8,6.2z M1,5.3c0.6,0,0.7-0.2,0.7-2.2c0-2,0-2.2-0.7-2.2V5.3z"
	/>
<path d="M1.6,12C1.2,11.3,1,11,1,10.3C1,10.1,1.1,10,1.3,10c0.1,0,0.3,0.1,0.3,0.3v0.5l0.8-0.1v-0.3c0-0.8-0.4-1.3-1.1-1.3
	C0.4,9.1,0,9.7,0,10.5c0,0.7,0.5,1.6,0.9,2.1c0.4,0.6,0.6,1.1,0.6,1.6c0,0.2-0.1,0.4-0.3,0.4c-0.2,0-0.3-0.1-0.3-0.4v-0.5L0,13.8
	v0.3c0,0.8,0.5,1.3,1.2,1.3c0.6,0,1.2-0.4,1.2-1.4C2.4,13.4,2,12.7,1.6,12z"/>
</svg>
