<?xml version="1.0" encoding="utf-8"?>
<!-- Generator: Adobe Illustrator 23.1.1, SVG Export Plug-In . SVG Version: 6.00 Build 0)  -->
<svg version="1.1" id="Layer_1" xmlns="http://www.w3.org/2000/svg" xmlns:xlink="http://www.w3.org/1999/xlink" x="0px" y="0px"
	 viewBox="0 0 131.1 114.8" style="enable-background:new 0 0 131.1 114.8;" xml:space="preserve">
<style type="text/css">
	.st0{clip-path:url(#SVGID_2_);fill:#010101;}
	.st1{clip-path:url(#SVGID_2_);fill:#FFFFFF;}
	.st2{clip-path:url(#SVGID_2_);fill:#231F20;}
</style>
<g>
	<defs>
		<rect id="SVGID_1_" width="141.6" height="114.8"/>
	</defs>
	<clipPath id="SVGID_2_">
		<use xlink:href="#SVGID_1_"  style="overflow:visible;"/>
	</clipPath>
	<path class="st0" d="M83.7,109.3V80.2h47.4V0H50.9v25.7H0v54.6h50.9v29.1H83.7z M3.6,29.4h47.3v47.2H3.6V29.4z M80.1,105.6H54.5
		V80.2h25.6V105.6z M127.5,76.6H54.5V3.7h72.9V76.6z"/>
	<path class="st0" d="M17.3,49.4c-1,0-1.9-0.2-2.8-0.5c-0.9-0.4-1.6-0.8-2.2-1.4c-0.6-0.6-1.1-1.3-1.5-2.1c-0.4-0.8-0.5-1.7-0.5-2.6
		v0c0-0.9,0.2-1.8,0.5-2.6c0.4-0.8,0.8-1.5,1.5-2.2c0.6-0.6,1.4-1.1,2.2-1.5c0.9-0.4,1.8-0.5,2.8-0.5c1,0,1.9,0.2,2.8,0.5
		c0.9,0.4,1.6,0.8,2.2,1.4c0.6,0.6,1.1,1.3,1.5,2.1c0.4,0.8,0.5,1.7,0.5,2.6v0c0,0.9-0.2,1.8-0.5,2.6c-0.4,0.8-0.8,1.5-1.5,2.2
		c-0.6,0.6-1.4,1.1-2.2,1.5C19.2,49.2,18.3,49.4,17.3,49.4 M17.3,46.1c0.5,0,1-0.1,1.4-0.3c0.4-0.2,0.8-0.4,1-0.8
		c0.3-0.3,0.5-0.7,0.7-1.1c0.2-0.4,0.2-0.9,0.2-1.3v0c0-0.5-0.1-0.9-0.2-1.3s-0.4-0.8-0.7-1.1c-0.3-0.3-0.7-0.6-1.1-0.8
		c-0.4-0.2-0.9-0.3-1.4-0.3c-0.5,0-1,0.1-1.4,0.3c-0.4,0.2-0.8,0.4-1,0.8c-0.3,0.3-0.5,0.7-0.7,1.1c-0.2,0.4-0.2,0.9-0.2,1.3v0
		c0,0.5,0.1,0.9,0.2,1.3c0.2,0.4,0.4,0.8,0.7,1.1c0.3,0.3,0.6,0.6,1.1,0.8C16.3,46,16.8,46.1,17.3,46.1"/>
	<path class="st0" d="M37.8,49.4c-0.9,0-1.8-0.2-2.6-0.5c-0.8-0.3-1.5-0.8-2.1-1.4c-0.6-0.6-1.1-1.3-1.4-2.1
		c-0.4-0.8-0.5-1.7-0.5-2.7v0c0-0.9,0.2-1.8,0.5-2.7c0.3-0.8,0.8-1.5,1.4-2.2c0.6-0.6,1.3-1.1,2.2-1.4c0.8-0.3,1.8-0.5,2.7-0.5
		c0.7,0,1.3,0.1,1.8,0.2c0.5,0.1,1,0.3,1.5,0.6c0.5,0.2,0.9,0.5,1.2,0.9c0.4,0.3,0.7,0.7,1,1.1l-2.7,2.1c-0.4-0.5-0.8-0.8-1.2-1.1
		c-0.4-0.3-1-0.4-1.6-0.4c-0.5,0-0.9,0.1-1.3,0.3c-0.4,0.2-0.7,0.4-1,0.7c-0.3,0.3-0.5,0.7-0.6,1.1c-0.2,0.4-0.2,0.9-0.2,1.3v0
		c0,0.5,0.1,0.9,0.2,1.4c0.2,0.4,0.4,0.8,0.6,1.1c0.3,0.3,0.6,0.6,1,0.7c0.4,0.2,0.8,0.3,1.3,0.3c0.3,0,0.6,0,0.9-0.1
		c0.3-0.1,0.5-0.2,0.8-0.3c0.2-0.1,0.4-0.3,0.7-0.5c0.2-0.2,0.4-0.4,0.6-0.6l2.7,1.9c-0.3,0.4-0.7,0.8-1,1.2
		c-0.4,0.4-0.8,0.7-1.2,0.9c-0.5,0.3-1,0.5-1.6,0.6C39.2,49.3,38.6,49.4,37.8,49.4"/>
	<path class="st0" d="M31.8,56.5h5c1.2,0,2.2,0.2,3.1,0.5c0.9,0.3,1.7,0.8,2.3,1.3c0.6,0.6,1.1,1.3,1.4,2c0.3,0.8,0.5,1.7,0.5,2.6v0
		c0,0.9-0.2,1.8-0.5,2.6c-0.3,0.8-0.8,1.5-1.5,2.1c-0.6,0.6-1.4,1-2.3,1.4c-0.9,0.3-2,0.5-3.1,0.5h-5V56.5z M36.9,66.3
		c1.1,0,2-0.3,2.6-0.9c0.7-0.6,1-1.4,1-2.4v0c0-1-0.3-1.9-1-2.4c-0.7-0.6-1.5-0.9-2.6-0.9h-1.5v6.6H36.9z"/>
	<path class="st0" d="M67.3,99.5c-0.9,0-1.7-0.1-2.4-0.3c-0.7-0.2-1.3-0.6-1.8-1c-0.5-0.5-0.9-1.1-1.1-1.8c-0.3-0.7-0.4-1.5-0.4-2.5
		v-6.9h3.5v6.9c0,0.9,0.2,1.6,0.6,2c0.4,0.4,1,0.6,1.6,0.6c0.7,0,1.2-0.2,1.6-0.6c0.4-0.4,0.6-1.1,0.6-1.9v-6.9H73v6.8
		c0,1-0.1,1.9-0.4,2.6c-0.3,0.7-0.7,1.3-1.2,1.8c-0.5,0.5-1.1,0.8-1.8,1C68.9,99.4,68.2,99.5,67.3,99.5"/>
	<path class="st2" d="M64.5,16.9c-0.5,0-0.9-0.1-1.3-0.3c-0.4-0.2-0.8-0.4-1.1-0.7c-0.3-0.3-0.5-0.6-0.7-1c-0.2-0.4-0.3-0.8-0.3-1.3
		v0c0-0.4,0.1-0.9,0.3-1.3c0.2-0.4,0.4-0.7,0.7-1c0.3-0.3,0.7-0.5,1.1-0.7c0.4-0.2,0.9-0.3,1.3-0.3c0.5,0,0.9,0.1,1.3,0.3
		c0.4,0.2,0.8,0.4,1.1,0.7c0.3,0.3,0.5,0.6,0.7,1c0.2,0.4,0.3,0.8,0.3,1.3v0c0,0.4-0.1,0.9-0.3,1.3c-0.2,0.4-0.4,0.7-0.7,1
		c-0.3,0.3-0.7,0.5-1.1,0.7C65.4,16.8,65,16.9,64.5,16.9 M64.5,15.3c0.2,0,0.5,0,0.7-0.1c0.2-0.1,0.4-0.2,0.5-0.4
		c0.1-0.2,0.2-0.3,0.3-0.5c0.1-0.2,0.1-0.4,0.1-0.6v0c0-0.2,0-0.4-0.1-0.6c-0.1-0.2-0.2-0.4-0.3-0.5c-0.1-0.2-0.3-0.3-0.5-0.4
		c-0.2-0.1-0.4-0.1-0.7-0.1c-0.2,0-0.5,0-0.7,0.1c-0.2,0.1-0.4,0.2-0.5,0.4c-0.1,0.2-0.2,0.3-0.3,0.5c-0.1,0.2-0.1,0.4-0.1,0.6v0
		c0,0.2,0,0.4,0.1,0.6c0.1,0.2,0.2,0.4,0.3,0.5c0.1,0.2,0.3,0.3,0.5,0.4C64,15.2,64.3,15.3,64.5,15.3"/>
	<path class="st2" d="M72.1,16.9c-0.4,0-0.9-0.1-1.3-0.2c-0.4-0.2-0.7-0.4-1-0.7c-0.3-0.3-0.5-0.6-0.7-1c-0.2-0.4-0.3-0.8-0.3-1.3v0
		c0-0.5,0.1-0.9,0.2-1.3c0.2-0.4,0.4-0.7,0.7-1c0.3-0.3,0.6-0.5,1-0.7c0.4-0.2,0.8-0.3,1.3-0.3c0.3,0,0.6,0,0.9,0.1
		c0.3,0.1,0.5,0.2,0.7,0.3c0.2,0.1,0.4,0.3,0.6,0.4c0.2,0.2,0.3,0.3,0.5,0.5l-1.3,1c-0.2-0.2-0.4-0.4-0.6-0.5
		c-0.2-0.1-0.5-0.2-0.8-0.2c-0.2,0-0.4,0-0.6,0.1c-0.2,0.1-0.3,0.2-0.5,0.4c-0.1,0.1-0.2,0.3-0.3,0.5c-0.1,0.2-0.1,0.4-0.1,0.6v0
		c0,0.2,0,0.5,0.1,0.7c0.1,0.2,0.2,0.4,0.3,0.5c0.1,0.1,0.3,0.3,0.5,0.4c0.2,0.1,0.4,0.1,0.6,0.1c0.2,0,0.3,0,0.4-0.1
		c0.1,0,0.3-0.1,0.4-0.2c0.1-0.1,0.2-0.1,0.3-0.2c0.1-0.1,0.2-0.2,0.3-0.3l1.3,0.9c-0.1,0.2-0.3,0.4-0.5,0.6
		c-0.2,0.2-0.4,0.3-0.6,0.4c-0.2,0.1-0.5,0.2-0.8,0.3C72.8,16.8,72.5,16.9,72.1,16.9"/>
	<path class="st2" d="M78.2,10.4h1.7l2.7,6.3h-1.9l-0.5-1.1h-2.4l-0.4,1.1h-1.8L78.2,10.4z M79.7,14.3L79,12.5l-0.7,1.8H79.7z"/>
	<path class="st2" d="M83.5,10.5h2.4c0.6,0,1.1,0.1,1.5,0.2c0.4,0.2,0.8,0.4,1.1,0.6c0.3,0.3,0.5,0.6,0.7,1c0.2,0.4,0.2,0.8,0.2,1.2
		v0c0,0.5-0.1,0.9-0.2,1.3c-0.2,0.4-0.4,0.7-0.7,1c-0.3,0.3-0.7,0.5-1.1,0.7c-0.4,0.2-0.9,0.2-1.5,0.2h-2.4V10.5z M85.9,15.2
		c0.5,0,0.9-0.1,1.3-0.4c0.3-0.3,0.5-0.7,0.5-1.2v0c0-0.5-0.2-0.9-0.5-1.2c-0.3-0.3-0.7-0.4-1.3-0.4h-0.7v3.2H85.9z"/>
	<path class="st2" d="M64.2,26.7c-0.4,0-0.8-0.1-1.2-0.2c-0.4-0.1-0.7-0.3-0.9-0.5c-0.2-0.2-0.4-0.5-0.6-0.9
		c-0.1-0.4-0.2-0.8-0.2-1.3v-3.5H63v3.5c0,0.5,0.1,0.8,0.3,1c0.2,0.2,0.5,0.3,0.8,0.3c0.3,0,0.6-0.1,0.8-0.3s0.3-0.5,0.3-1v-3.5h1.8
		v3.5c0,0.5-0.1,0.9-0.2,1.3c-0.1,0.4-0.3,0.7-0.6,0.9c-0.3,0.2-0.6,0.4-0.9,0.5C65,26.7,64.6,26.7,64.2,26.7"/>
	<polygon class="st2" points="68.7,20.4 70.3,20.4 72.9,23.7 72.9,20.4 74.6,20.4 74.6,26.6 73.1,26.6 70.4,23.2 70.4,26.6 
		68.7,26.6 	"/>
	<rect x="76.2" y="20.4" class="st2" width="1.7" height="6.3"/>
	<polygon class="st2" points="79,20.4 80.9,20.4 82.3,24.3 83.8,20.4 85.7,20.4 83.1,26.7 81.5,26.7 	"/>
	<polygon class="st2" points="86.6,20.4 91.7,20.4 91.7,21.8 88.4,21.8 88.4,22.8 91.4,22.8 91.4,24.2 88.4,24.2 88.4,25.1 
		91.7,25.1 91.7,26.6 86.6,26.6 	"/>
	<path class="st2" d="M93.2,20.4h3c0.5,0,0.9,0.1,1.2,0.2s0.6,0.3,0.8,0.5c0.4,0.4,0.6,0.8,0.6,1.5v0c0,0.5-0.1,0.9-0.3,1.2
		c-0.2,0.3-0.5,0.6-0.9,0.7l1.5,2.2h-2l-1.3-1.9h0h-0.7v1.9h-1.7V20.4z M96.1,23.4c0.3,0,0.5-0.1,0.7-0.2c0.2-0.1,0.2-0.3,0.2-0.5v0
		c0-0.3-0.1-0.4-0.3-0.6c-0.2-0.1-0.4-0.2-0.7-0.2h-1.1v1.5H96.1z"/>
	<path class="st2" d="M102.5,26.7c-0.6,0-1.1-0.1-1.6-0.3c-0.5-0.2-0.9-0.4-1.3-0.8l1-1.2c0.6,0.5,1.3,0.8,2,0.8
		c0.2,0,0.4,0,0.5-0.1c0.1-0.1,0.2-0.2,0.2-0.3v0c0-0.1,0-0.1,0-0.2c0-0.1-0.1-0.1-0.2-0.1c-0.1,0-0.2-0.1-0.3-0.1
		c-0.1,0-0.3-0.1-0.5-0.1c-0.3-0.1-0.6-0.2-0.9-0.3c-0.3-0.1-0.5-0.2-0.7-0.4c-0.2-0.1-0.4-0.3-0.5-0.5c-0.1-0.2-0.2-0.5-0.2-0.8v0
		c0-0.3,0.1-0.6,0.2-0.8c0.1-0.2,0.3-0.5,0.5-0.6c0.2-0.2,0.5-0.3,0.8-0.4c0.3-0.1,0.6-0.1,1-0.1c0.5,0,1,0.1,1.4,0.2
		c0.4,0.1,0.8,0.4,1.1,0.6l-0.9,1.2c-0.3-0.2-0.6-0.4-0.9-0.5c-0.3-0.1-0.6-0.2-0.9-0.2c-0.2,0-0.4,0-0.5,0.1
		c-0.1,0.1-0.2,0.2-0.2,0.3v0c0,0.1,0,0.1,0,0.2c0,0.1,0.1,0.1,0.2,0.1c0.1,0,0.2,0.1,0.3,0.1c0.1,0,0.3,0.1,0.5,0.1
		c0.4,0.1,0.7,0.2,1,0.3c0.3,0.1,0.5,0.2,0.7,0.4c0.2,0.1,0.4,0.3,0.5,0.5c0.1,0.2,0.2,0.5,0.2,0.8v0c0,0.3-0.1,0.6-0.2,0.9
		c-0.1,0.2-0.3,0.5-0.5,0.6c-0.2,0.2-0.5,0.3-0.8,0.4C103.3,26.7,102.9,26.7,102.5,26.7"/>
	<rect x="106.4" y="20.4" class="st2" width="1.7" height="6.3"/>
	<polygon class="st2" points="111.1,21.9 109.2,21.9 109.2,20.4 114.7,20.4 114.7,21.9 112.9,21.9 112.9,26.6 111.1,26.6 	"/>
	<polygon class="st2" points="117.9,24.3 115.5,20.4 117.5,20.4 118.8,22.6 120.1,20.4 122,20.4 119.6,24.3 119.6,26.6 117.9,26.6 	
		"/>
	<path class="st0" d="M19,56.4h-3.5L10,69.6h3.8l0.8-2.1h5.2l0.9,2.1h3.9L19,56.4z M15.7,64.7l1.6-3.9l1.6,3.9H15.7z"/>
</g>
</svg>
