<?xml version="1.0" encoding="utf-8"?>
<!-- Generator: Adobe Illustrator 22.1.0, SVG Export Plug-In . SVG Version: 6.00 Build 0)  -->
<svg version="1.1" id="Ebene_1" xmlns="http://www.w3.org/2000/svg" xmlns:xlink="http://www.w3.org/1999/xlink" x="0px" y="0px"
	 viewBox="0 0 147 70.3" style="enable-background:new 0 0 147 70.3;" xml:space="preserve">
<style type="text/css">
	.st0{fill:#1A1918;}
</style>
<g>
	<path id="Fill-1" class="st0" d="M58.2,26.2c0,3.7-0.8,6.4-4.2,9l-3.6-3c1.9-1.8,2.5-3.1,2.5-5.3h-2.9v-8.2h8.1V26.2z"/>
	<polygon id="Fill-3" class="st0" points="50.2,13.2 58.2,13.2 58.2,5 50.2,5 	"/>
	<polygon id="Fill-5" class="st0" points="0,26.8 0,0.9 19.5,0.9 19.5,7.1 7.8,7.1 7.8,11.6 18.6,11.6 18.6,17.8 7.8,17.8 7.8,26.8 
			"/>
	<polygon id="Fill-6" class="st0" points="37.6,26.8 37.6,16.7 30.1,16.7 30.1,26.8 22.1,26.8 22.1,0.9 30.1,0.9 30.1,10 37.6,10 
		37.6,0.9 45.7,0.9 45.7,26.8 	"/>
	<path id="Fill-7" class="st0" d="M73.8,12.7c1.5,0,2.7-0.2,3.3-0.7c0.6-0.5,0.9-1.3,0.8-2.1c0-0.8-0.2-1.5-0.8-2
		c-0.6-0.6-1.5-0.7-3.2-0.7h-3.2v5.6H73.8z M62.8,26.8V0.9h11.1c5.1,0,7.3,0.6,8.8,1.6c2.3,1.5,3.4,4,3.4,7.2c0,3-1.2,5.6-3.3,7.1
		c-1.8,1.3-4.1,1.9-8.2,1.9h-3.9v8.1L62.8,26.8z"/>
	<polygon id="Fill-8" class="st0" points="51.4,44 51.4,45.7 53.1,45.7 53.1,46.6 51.4,46.6 51.4,49.1 50.2,49.1 50.2,43.1 
		53.3,43.1 53.3,44 	"/>
	<path id="Fill-9" class="st0" d="M56.4,47.1h-0.3c-0.9,0-1.1,0.3-1.1,0.7c0,0.3,0.2,0.6,0.5,0.6c0,0,0.1,0,0.1,0
		c0.3,0,0.6-0.2,0.9-0.4V47.1z M56.7,49.1l-0.1-0.5c-0.4,0.4-0.9,0.6-1.4,0.6c-0.9,0-1.4-0.5-1.4-1.3c0-0.9,0.7-1.6,2.3-1.6h0.3V46
		c0-0.5-0.3-0.7-0.8-0.7c-0.5,0-0.9,0.1-1.4,0.3l-0.2-0.7c0.6-0.3,1.2-0.4,1.8-0.4c1.2,0,1.7,0.6,1.7,1.4v3.2H56.7z"/>
	<path id="Fill-10" class="st0" d="M60.4,49.2c-1.2,0-1.8-0.8-1.8-2.3c0-1.4,0.7-2.4,1.9-2.4c0.5,0,1,0.2,1.3,0.6l-0.4,0.6
		c-0.2-0.2-0.5-0.3-0.8-0.3c-0.5,0-0.9,0.5-0.9,1.4c0,1.1,0.3,1.5,0.8,1.5c0.4,0,0.7-0.1,1-0.4l0.4,0.6C61.6,49,61,49.2,60.4,49.2"
		/>
	<path id="Fill-11" class="st0" d="M66.5,49.1h-1.2c0-0.9,0-1.9,0-2.4c0-1.1-0.2-1.3-0.6-1.3c-0.3,0-0.6,0.2-0.8,0.4v3.3h-1.2v-6.4
		h1.2V45c0.3-0.3,0.8-0.5,1.2-0.5c0.9,0,1.4,0.6,1.4,2C66.5,47.1,66.5,48.1,66.5,49.1"/>
	<path id="Fill-12" class="st0" d="M71.5,49.1h-1.2c0-0.9,0-1.9,0-2.4c0-1.1-0.2-1.3-0.6-1.3c-0.3,0-0.6,0.2-0.8,0.4v3.3h-1.2v-6.4
		h1.2V45c0.3-0.3,0.8-0.5,1.2-0.5c0.9,0,1.4,0.6,1.4,2C71.6,47.1,71.5,48.1,71.5,49.1"/>
	<path id="Fill-13" class="st0" d="M74.7,45.4c-0.5,0-0.9,0.4-0.9,1.4c0,1.3,0.3,1.6,0.9,1.6c0.6,0,0.9-0.4,0.9-1.4
		C75.6,45.7,75.2,45.4,74.7,45.4 M74.6,49.2c-1.3,0-2-0.6-2-2.3c0-1.6,0.8-2.4,2.2-2.4c1.3,0,2,0.6,2,2.3
		C76.8,48.4,75.9,49.2,74.6,49.2"/>
	<path id="Fill-14" class="st0" d="M79.4,49.2c-1.2,0-1.8-0.8-1.8-2.3c0-1.4,0.7-2.4,1.9-2.4c0.5,0,1,0.2,1.3,0.6l-0.4,0.6
		c-0.2-0.2-0.5-0.3-0.8-0.3c-0.5,0-0.9,0.5-0.9,1.4c0,1.1,0.3,1.5,0.8,1.5c0.4,0,0.7-0.1,1-0.4l0.4,0.6C80.5,49,79.9,49.2,79.4,49.2
		"/>
	<path id="Fill-15" class="st0" d="M85.4,49.1h-1.2c0-0.9,0-1.9,0-2.4c0-1.1-0.2-1.3-0.6-1.3c-0.3,0-0.6,0.2-0.8,0.4v3.3h-1.2v-6.4
		h1.2V45c0.3-0.3,0.8-0.5,1.2-0.5c0.9,0,1.4,0.6,1.4,2C85.4,47.1,85.4,48.1,85.4,49.1"/>
	<path id="Fill-16" class="st0" d="M87.8,49.2c-0.5,0-1-0.1-1.4-0.4l0.1-0.6c0.4,0.1,0.7,0.1,1.1,0.2c0.6,0,0.8-0.2,0.8-0.5
		c0-0.3-0.1-0.4-0.8-0.7c-0.9-0.3-1.2-0.7-1.2-1.3c0-0.8,0.7-1.4,1.6-1.4c0.4,0,0.9,0.1,1.3,0.3l-0.1,0.6c-0.3-0.1-0.6-0.1-0.9-0.1
		c-0.5,0-0.7,0.2-0.7,0.5s0.2,0.4,0.8,0.6c0.9,0.3,1.2,0.7,1.2,1.4C89.6,48.6,89,49.2,87.8,49.2"/>
	<path id="Fill-17" class="st0" d="M92.2,49.2c-1.2,0-1.8-0.8-1.8-2.3c0-1.4,0.7-2.4,1.9-2.4c0.5,0,1,0.2,1.3,0.6l-0.4,0.6
		c-0.2-0.2-0.5-0.3-0.8-0.3c-0.5,0-0.9,0.5-0.9,1.4c0,1.1,0.3,1.5,0.8,1.5c0.4,0,0.7-0.1,1-0.4l0.4,0.6C93.3,49,92.7,49.2,92.2,49.2
		"/>
	<path id="Fill-18" class="st0" d="M98.2,49.1h-1.1c0-0.9,0-1.9,0-2.4c0-1.1-0.2-1.3-0.6-1.3c-0.3,0-0.6,0.2-0.8,0.4v3.3h-1.2v-6.4
		h1.2V45c0.3-0.3,0.8-0.5,1.2-0.5c0.9,0,1.4,0.6,1.4,2C98.3,47.1,98.2,48.1,98.2,49.1"/>
	<path id="Fill-19" class="st0" d="M102.3,49.1l-0.1-0.5c-0.4,0.4-0.9,0.6-1.4,0.6c-0.9,0-1.4-0.6-1.4-2c0-0.6,0-1.6,0-2.6h1.2
		c0,0.9,0,1.8,0,2.4c0,1.1,0.2,1.3,0.6,1.3c0.3,0,0.6-0.2,0.8-0.4v-3.3h1.2v4.5H102.3z"/>
	<path id="Fill-20" class="st0" d="M105.5,49.2c-0.6,0-0.9-0.2-0.9-0.9v-5.5h1.2v5.1c0,0.5,0.1,0.6,0.3,0.6h0.2l0,0.7
		C106,49.2,105.8,49.2,105.5,49.2"/>
	<path id="Fill-21" class="st0" d="M109.6,46.4c0-0.7-0.2-1.1-0.7-1.1s-0.8,0.4-0.8,1.1L109.6,46.4L109.6,46.4z M108,47.1L108,47.1
		c0,0.9,0.4,1.2,1,1.2c0.5,0,1-0.1,1.5-0.3l0.2,0.7c-0.6,0.3-1.2,0.5-1.9,0.5c-1.2,0-2-0.6-2-2.2s0.8-2.5,2-2.5
		c1.2,0,1.9,0.6,1.8,2.6L108,47.1z"/>
	<path id="Fill-22" class="st0" d="M115.8,43.9h-0.4v2.3h0.4c0.8,0,1.2-0.4,1.2-1.1S116.6,43.9,115.8,43.9 M115.7,47.1h-0.3v2.1
		h-1.2v-6.1c0.6,0,1.1,0,1.8,0c1.6,0,2.3,0.7,2.3,1.9C118.2,46.2,117.5,47.1,115.7,47.1"/>
	<path id="Fill-23" class="st0" d="M120.9,45.4c-0.5,0-0.9,0.4-0.9,1.4c0,1.3,0.3,1.6,0.9,1.6c0.6,0,0.9-0.4,0.9-1.4
		C121.8,45.7,121.5,45.4,120.9,45.4 M120.8,49.2c-1.3,0-2-0.6-2-2.3c0-1.6,0.8-2.4,2.2-2.4c1.3,0,2,0.6,2,2.3
		C123,48.4,122.1,49.2,120.8,49.2"/>
	<path id="Fill-24" class="st0" d="M125.2,49.2c-0.8,0-1.1-0.3-1.1-1.2v-2.6h-0.6v-0.8h0.6c0.1-0.4,0.2-0.9,0.3-1.3h0.8v1.3h1v0.8
		h-1v2.3c0,0.5,0.1,0.6,0.4,0.6c0.2,0,0.4,0,0.6-0.1l0.1,0.7C126,49.1,125.6,49.2,125.2,49.2"/>
	<path id="Fill-25" class="st0" d="M128.3,49.2c-0.5,0-1-0.1-1.4-0.4l0.1-0.6c0.4,0.1,0.7,0.1,1.1,0.2c0.6,0,0.8-0.2,0.8-0.5
		c0-0.3-0.1-0.4-0.8-0.7c-0.9-0.3-1.2-0.7-1.2-1.3c0-0.8,0.7-1.4,1.6-1.4c0.4,0,0.9,0.1,1.3,0.3l-0.1,0.6c-0.3-0.1-0.6-0.1-0.9-0.1
		c-0.5,0-0.7,0.2-0.7,0.5s0.2,0.4,0.8,0.6c0.9,0.3,1.2,0.7,1.2,1.4C130.2,48.6,129.5,49.2,128.3,49.2"/>
	<path id="Fill-26" class="st0" d="M133.6,45.4c-0.2-0.1-0.4-0.1-0.6-0.1c-0.6,0-1,0.5-1,1.6c0,1,0.3,1.4,0.7,1.4
		c0.3,0,0.6-0.2,0.8-0.4L133.6,45.4z M133.8,49.1l-0.1-0.5c-0.3,0.3-0.8,0.5-1.3,0.6c-1.1,0-1.6-1-1.6-2.2c0-1.8,1-2.5,2.2-2.5
		c0.2,0,0.4,0,0.5,0v-1.8h1.2v6.4H133.8z"/>
	<path id="Fill-27" class="st0" d="M138.4,47.1h-0.3c-0.9,0-1.1,0.3-1.1,0.7c0,0.3,0.2,0.6,0.5,0.6c0,0,0.1,0,0.1,0
		c0.3,0,0.6-0.2,0.9-0.4L138.4,47.1z M138.7,49.1l-0.1-0.5c-0.4,0.4-0.9,0.6-1.4,0.6c-0.9,0-1.4-0.5-1.4-1.3c0-0.9,0.7-1.6,2.3-1.6
		h0.3V46c0-0.5-0.3-0.7-0.8-0.7c-0.5,0-0.9,0.1-1.4,0.3l-0.2-0.7c0.6-0.3,1.2-0.4,1.8-0.4c1.2,0,1.7,0.6,1.7,1.4v3.2H138.7z"/>
	<path id="Fill-28" class="st0" d="M147.1,49.1h-1.2c0-0.9,0-1.8,0-2.4c0-1.1-0.2-1.3-0.6-1.3c-0.3,0-0.6,0.2-0.9,0.4
		c0,0.2,0.1,0.5,0,0.7v2.6h-1.2v-2.4c0-1.1-0.2-1.3-0.6-1.3c-0.3,0-0.6,0.2-0.8,0.4v3.3h-1.2v-4.5h1l0.1,0.5
		c0.4-0.4,0.8-0.6,1.3-0.6c0.5,0,0.9,0.2,1.1,0.6c0.4-0.4,0.9-0.6,1.4-0.6c0.9,0,1.3,0.6,1.3,2C147.1,47.1,147.1,48.1,147.1,49.1"/>
	<path id="Fill-29" class="st0" d="M52.4,59.2c-1.4,0-2.2-0.6-2.2-2.2v-4h1.2v3.9c0,1,0.3,1.4,1.1,1.4c0.7,0,1.1-0.3,1.1-1.3v-4h1.2
		v3.9C54.7,58.5,53.7,59.2,52.4,59.2"/>
	<path id="Fill-30" class="st0" d="M59.9,59.1h-1.2c0-0.9,0-1.8,0-2.4c0-1.1-0.2-1.3-0.6-1.3c-0.3,0-0.6,0.2-0.8,0.4v3.3h-1.2v-4.5
		h1l0.1,0.5c0.4-0.4,0.9-0.6,1.4-0.6c0.9,0,1.4,0.6,1.4,2C59.9,57,59.8,58.1,59.9,59.1"/>
	<path id="Fill-31" class="st0" d="M61.2,59.1h1.2v-4.5h-1.2V59.1z M61.8,53.9c-0.6,0-0.7-0.1-0.7-0.6c0-0.5,0.1-0.6,0.7-0.6
		c0.5,0,0.7,0.1,0.7,0.6C62.4,53.8,62.3,53.9,61.8,53.9z"/>
	<path id="Fill-32" class="st0" d="M66,59.1h-1.5l-1.3-4.5h1.2l0.7,2.5l0.2,0.9c0.4-1.1,0.6-2.3,0.7-3.5h1.2
		C67,56.1,66.6,57.6,66,59.1"/>
	<path id="Fill-33" class="st0" d="M70.6,56.3c0-0.7-0.2-1.1-0.7-1.1c-0.5,0-0.8,0.4-0.8,1.1L70.6,56.3L70.6,56.3z M69,57L69,57
		c0,0.9,0.4,1.2,1,1.2c0.5,0,1-0.1,1.5-0.3l0.2,0.7c-0.6,0.3-1.2,0.5-1.9,0.5c-1.2,0-2-0.6-2-2.2c0-1.6,0.8-2.5,2-2.5
		c1.2,0,1.9,0.6,1.8,2.6L69,57z"/>
	<path id="Fill-34" class="st0" d="M75.3,55.6c-0.1,0-0.3-0.1-0.4-0.1c-0.3,0-0.5,0.2-0.9,0.7v2.9h-1.2v-4.5h1l0.1,0.7
		c0.5-0.6,0.8-0.8,1.1-0.8c0.1,0,0.3,0,0.4,0.1L75.3,55.6z"/>
	<path id="Fill-35" class="st0" d="M77.3,59.1c-0.5,0-1-0.1-1.4-0.4l0.1-0.6c0.4,0.1,0.7,0.1,1.1,0.2c0.6,0,0.8-0.2,0.8-0.5
		s-0.1-0.4-0.8-0.7c-0.9-0.3-1.2-0.7-1.2-1.3c0-0.8,0.7-1.4,1.6-1.4c0.4,0,0.9,0.1,1.3,0.3l-0.1,0.6c-0.3-0.1-0.6-0.1-0.9-0.1
		c-0.5,0-0.7,0.2-0.7,0.5s0.2,0.4,0.8,0.6c0.9,0.3,1.2,0.7,1.2,1.4C79.1,58.5,78.4,59.1,77.3,59.1"/>
	<path id="Fill-36" class="st0" d="M80.1,59.1h1.2v-4.5h-1.2V59.1z M80.7,53.9c-0.6,0-0.7-0.1-0.7-0.6c0-0.5,0.1-0.6,0.7-0.6
		c0.5,0,0.7,0.1,0.7,0.6C81.3,53.8,81.2,53.9,80.7,53.9z"/>
	<path id="Fill-37" class="st0" d="M83.8,59.1c-0.8,0-1.1-0.3-1.1-1.2v-2.6h-0.6v-0.8h0.6c0.1-0.4,0.2-0.9,0.3-1.3h0.8v1.3h1v0.8h-1
		v2.3c0,0.5,0.1,0.6,0.4,0.6c0.2,0,0.4,0,0.6-0.1l0.1,0.7C84.6,59,84.2,59.1,83.8,59.1"/>
	<path id="Fill-38" class="st0" d="M86,60.7c-0.2,0-0.5-0.1-0.7-0.2v-0.7c0.1,0,0.3,0,0.4,0c0.2,0,0.5-0.1,0.6-0.2
		c0.2-0.1,0.3-0.3,0.3-0.5c0-0.3-0.1-0.6-0.2-0.9l-1.1-3.7h1.2l0.7,2.5c0.1,0.4,0.2,0.7,0.2,1.1c0.4-1.2,0.6-2.4,0.7-3.6h1.2
		C88.7,59.3,87.2,60.7,86,60.7"/>
	<path id="Fill-39" class="st0" d="M94,55.3c-0.5,0-0.9,0.4-0.9,1.4c0,1.3,0.3,1.6,0.9,1.6s0.9-0.4,0.9-1.4
		C94.9,55.6,94.6,55.3,94,55.3 M94,59.2c-1.3,0-2-0.6-2-2.3c0-1.6,0.8-2.4,2.2-2.4c1.3,0,2,0.6,2,2.3S95.3,59.2,94,59.2"/>
	<path id="Fill-40" class="st0" d="M99.5,53.5c-0.2-0.1-0.3-0.1-0.5-0.1c-0.4,0-0.5,0.2-0.5,0.6v0.6h0.8v0.8h-0.8v3.7h-1.2v-3.7
		h-0.6v-0.8h0.6V54c0-0.9,0.4-1.4,1.3-1.4c0.4,0,0.8,0.1,1.1,0.3L99.5,53.5z"/>
	<path id="Fill-41" class="st0" d="M52,64c-0.3,0.9-0.6,2-0.8,2.9h1.6C52.6,65.9,52.3,64.9,52,64L52,64z M53.3,69
		c-0.1-0.3-0.2-0.8-0.3-1.2h-2c-0.1,0.3-0.2,0.8-0.3,1.2h-1.2c0.5-2,1-4.1,1.7-6.1h1.6c0.7,2.1,1.2,4,1.7,6.1H53.3z"/>
	<path id="Fill-42" class="st0" d="M57.4,65.2c-0.3,0-0.6,0.2-0.8,0.4v2.5c0.2,0.1,0.4,0.1,0.5,0.1c0.6,0,1-0.5,1-1.6
		C58.1,65.8,57.9,65.3,57.4,65.2 M57.1,69.1c-0.2,0-0.3,0-0.5,0v1.5h-1.2v-6.1h0.9l0.1,0.5c0.3-0.3,0.8-0.5,1.3-0.6
		c1.1,0,1.6,1,1.6,2.2C59.3,68.3,58.3,69.1,57.1,69.1"/>
	<path id="Fill-43" class="st0" d="M62.3,65.2c-0.3,0-0.6,0.2-0.8,0.4v2.5c0.2,0.1,0.4,0.1,0.5,0.1c0.6,0,1-0.5,1-1.6
		C63.1,65.8,62.8,65.3,62.3,65.2 M62,69.1c-0.2,0-0.3,0-0.5,0v1.5h-1.2v-6.1h0.9l0.1,0.5c0.3-0.3,0.8-0.5,1.3-0.6
		c1.1,0,1.6,1,1.6,2.2C64.3,68.3,63.3,69.1,62,69.1"/>
	<path id="Fill-44" class="st0" d="M66.2,69c-0.6,0-0.9-0.2-0.9-0.9v-5.5h1.2v5.1c0,0.5,0.1,0.6,0.3,0.6H67l0,0.7
		C66.8,69,66.5,69.1,66.2,69"/>
	<path id="Fill-45" class="st0" d="M67.9,69h1.2v-4.5h-1.2V69z M68.5,63.9c-0.6,0-0.7-0.1-0.7-0.6c0-0.5,0.1-0.6,0.7-0.6
		s0.7,0.1,0.7,0.6C69.2,63.7,69.1,63.9,68.5,63.9z"/>
	<path id="Fill-46" class="st0" d="M72.9,66.2c0-0.7-0.2-1.1-0.7-1.1c-0.5,0-0.8,0.4-0.8,1.1L72.9,66.2L72.9,66.2z M71.3,66.9
		L71.3,66.9c0,0.9,0.4,1.2,1,1.2c0.5,0,1-0.1,1.5-0.3l0.2,0.7c-0.6,0.3-1.2,0.5-1.9,0.5c-1.2,0-2-0.6-2-2.2s0.8-2.5,2-2.5
		c1.2,0,1.9,0.6,1.8,2.6H71.3z"/>
	<path id="Fill-47" class="st0" d="M77.6,65.3c-0.2-0.1-0.4-0.1-0.6-0.1c-0.6,0-1,0.5-1,1.6c0,1,0.3,1.4,0.7,1.4
		c0.3,0,0.6-0.2,0.8-0.4L77.6,65.3z M77.8,69l-0.1-0.5c-0.3,0.3-0.8,0.5-1.3,0.6c-1.1,0-1.6-1-1.6-2.2c0-1.8,1-2.5,2.2-2.5
		c0.2,0,0.4,0,0.5,0v-1.8h1.2V69L77.8,69z"/>
	<path id="Fill-48" class="st0" d="M83.9,69.1c-0.7,0-1.3-0.2-1.8-0.6l0.3-0.6c0.4,0.2,0.9,0.3,1.3,0.3c0.6,0,1-0.3,1-0.8
		c0-1.2-2.5-1-2.5-2.9c0-1,0.8-1.7,1.9-1.7c0.6,0,1.1,0.2,1.6,0.5l-0.3,0.6c-0.4-0.1-0.7-0.2-1.1-0.2c-0.6,0-0.9,0.3-0.9,0.7
		c0,1.2,2.6,1,2.6,2.9C86.1,68.3,85.3,69,83.9,69.1"/>
	<path id="Fill-49" class="st0" d="M88.6,69.1c-1.2,0-1.8-0.8-1.8-2.3c0-1.4,0.7-2.4,1.9-2.4c0.5,0,1,0.2,1.3,0.6l-0.4,0.6
		c-0.2-0.2-0.5-0.3-0.8-0.3c-0.5,0-0.9,0.5-0.9,1.4c0,1.1,0.3,1.5,0.8,1.5c0.4,0,0.7-0.1,1-0.4l0.4,0.6C89.8,68.8,89.2,69,88.6,69.1
		"/>
	<path id="Fill-50" class="st0" d="M91,69h1.2v-4.5H91V69z M91.6,63.9c-0.6,0-0.7-0.1-0.7-0.6c0-0.5,0.1-0.6,0.7-0.6
		c0.5,0,0.7,0.1,0.7,0.6C92.3,63.7,92.1,63.9,91.6,63.9z"/>
	<path id="Fill-51" class="st0" d="M96,66.2c0-0.7-0.2-1.1-0.7-1.1s-0.8,0.4-0.8,1.1L96,66.2L96,66.2z M94.4,66.9L94.4,66.9
		c0,0.9,0.4,1.2,1,1.2c0.5,0,1-0.1,1.5-0.3l0.2,0.7c-0.6,0.3-1.2,0.5-1.9,0.5c-1.2,0-2-0.6-2-2.2s0.8-2.5,2-2.5
		c1.2,0,1.9,0.6,1.8,2.6H94.4z"/>
	<path id="Fill-52" class="st0" d="M101.9,69h-1.2c0-0.9,0-1.8,0-2.4c0-1.1-0.2-1.3-0.6-1.3c-0.3,0-0.6,0.2-0.8,0.4V69h-1.2v-4.5h1
		l0.1,0.5c0.4-0.4,0.9-0.6,1.4-0.6c0.9,0,1.4,0.6,1.4,2C102,67,101.9,68,101.9,69"/>
	<path id="Fill-53" class="st0" d="M104.8,69.1c-1.2,0-1.8-0.8-1.8-2.3c0-1.4,0.7-2.4,1.9-2.4c0.5,0,1,0.2,1.3,0.6l-0.4,0.6
		c-0.2-0.2-0.5-0.3-0.8-0.3c-0.5,0-0.9,0.5-0.9,1.4c0,1.1,0.3,1.5,0.8,1.5c0.4,0,0.7-0.1,1-0.4l0.4,0.6
		C106,68.8,105.4,69,104.8,69.1"/>
	<path id="Fill-54" class="st0" d="M109.5,66.2c0-0.7-0.2-1.1-0.7-1.1c-0.5,0-0.8,0.4-0.8,1.1L109.5,66.2L109.5,66.2z M108,66.9
		L108,66.9c0,0.9,0.4,1.2,1,1.2c0.5,0,1-0.1,1.5-0.3l0.2,0.7c-0.6,0.3-1.2,0.5-1.9,0.5c-1.2,0-2-0.6-2-2.2s0.8-2.5,2-2.5
		c1.2,0,1.9,0.6,1.8,2.6H108z"/>
	<path id="Fill-55" class="st0" d="M112.9,69.1c-0.5,0-1-0.1-1.4-0.4l0.1-0.6c0.4,0.1,0.7,0.1,1.1,0.2c0.6,0,0.8-0.2,0.8-0.5
		c0-0.3-0.1-0.4-0.8-0.7c-0.9-0.3-1.2-0.7-1.2-1.3c0-0.8,0.7-1.4,1.6-1.4c0.4,0,0.9,0.1,1.3,0.3l-0.1,0.6c-0.3-0.1-0.6-0.1-0.9-0.1
		c-0.5,0-0.7,0.2-0.7,0.5c0,0.3,0.2,0.4,0.8,0.6c0.9,0.3,1.2,0.7,1.2,1.4C114.7,68.4,114,69.1,112.9,69.1"/>
</g>
</svg>
