<?xml version="1.0" encoding="utf-8"?>
<!-- Generator: Adobe Illustrator 22.1.0, SVG Export Plug-In . SVG Version: 6.00 Build 0)  -->
<svg version="1.1" id="Ebene_1" xmlns="http://www.w3.org/2000/svg" xmlns:xlink="http://www.w3.org/1999/xlink" x="0px" y="0px"
	 viewBox="0 0 118.7 47.2" style="enable-background:new 0 0 118.7 47.2;" xml:space="preserve">
<style type="text/css">
	.st0{fill:#1D1D1B;}
</style>
<g>
	<g>
		<g>
			<path class="st0" d="M80.3,34.8c0,5.1-1.2,8.9-5.7,12.4l-5-4.2c2.6-2.5,3.4-4.3,3.5-7.3h-4V24.4h11.2V34.8z"/>
			<rect x="69.2" y="5.6" class="st0" width="11.1" height="11.3"/>
		</g>
		<polygon class="st0" points="0,35.7 0,0 26.9,0 26.9,8.5 10.8,8.5 10.8,14.8 25.6,14.8 25.6,23.3 10.8,23.3 10.8,35.7 		"/>
		<path class="st0" d="M51.9,35.7v-14H41.5v14h-11V0h11v12.6h10.4V0H63v35.7H51.9z"/>
		<path class="st0" d="M86.5,35.7V0h15.3c7,0,10,0.7,12.2,2.2c3.1,2.1,4.7,5.5,4.7,9.9c0,4.1-1.6,7.7-4.5,9.8
			c-2.5,1.8-5.7,2.6-11.3,2.6h-5.4v11.2H86.5z M101.7,16.2c2.2,0,3.7-0.3,4.6-1c0.8-0.7,1.1-1.7,1.1-2.8c0-1.1-0.3-2.1-1.1-2.8
			s-2.1-1-4.4-1h-4.4v7.6H101.7z"/>
	</g>
</g>
</svg>
