<?xml version="1.0" encoding="utf-8"?>
<!-- Generator: Adobe Illustrator 22.1.0, SVG Export Plug-In . SVG Version: 6.00 Build 0)  -->
<svg version="1.1" id="Layer_1" xmlns="http://www.w3.org/2000/svg" xmlns:xlink="http://www.w3.org/1999/xlink" x="0px" y="0px"
	 viewBox="0 0 156.6 69.4" style="enable-background:new 0 0 156.6 69.4;" xml:space="preserve">
<style type="text/css">
	.st0{fill:none;stroke:#000000;stroke-width:0.75;stroke-miterlimit:10;}
</style>
<g transform="matrix(1.25 0 0 -1.25 -213.04 491.19)">
	<g>
		<path d="M181.8,383.9c-6.4,0-10.6-3.9-10.6-8.9c0-4.9,4.2-8.9,10.6-8.9c2,0,4.5,0.6,5.9,2.2l0.3-1.9h3.6v9.3h-9v-3.3h3.9
			c-0.3-1.6-2.1-2.6-4.9-2.6c-3.6,0-5,2.5-5,5.1c0,2.5,1.4,5.1,5,5.1c2.2,0,4-0.9,4.2-2.3h5.5C190.9,382,186.2,383.9,181.8,383.9z
			 M256.1,383.5v-3.1h5.1v3.1C261.1,383.5,256.1,383.5,256.1,383.5z M201.1,379.2c-4.6,0-8.4-2.7-8.4-6.5c0-4.2,3.4-6.6,8.5-6.6
			c3.5,0,6.8,1.2,7.7,4.1h-4.7c-0.5-0.9-1.7-1.4-2.9-1.4c-2.1,0-3.4,1.1-3.5,2.8h11.4C209.4,375.9,206.6,379.2,201.1,379.2z
			 M218.1,379.2c-4.8,0-8.1-2.8-8.1-6.6c0-3.7,3.3-6.5,8.1-6.5s8.2,2.8,8.2,6.5C226.3,376.4,222.9,379.2,218.1,379.2z M245.1,379.2
			c-4.4,0-6.8-2.8-6.8-6.1c0-3.5,2.1-6.2,6.8-6.2c1.6,0,3.2,0.7,4.1,1.8h0.1v-1.2c0-1.5-0.2-2.9-2.7-2.9c-0.8,0-1.4,0.1-1.8,0.3
			c-0.5,0.2-0.7,0.5-0.9,1.1h-5.1c0.6-3.3,4-4,7.6-4c7.3,0,7.7,3.8,7.7,5.8v10.9h-4.9v-1.6h-0.1
			C248.3,378.6,246.9,379.2,245.1,379.2z M270,379.2c-1.8,0-3.6-0.2-4.9-0.9c-1.4-0.6-2.3-1.7-2.4-3.3h4.7c0.2,1.1,1.1,1.6,2.5,1.6
			c1,0,2.4-0.4,2.4-1.3c0-0.8-0.5-1-1.3-1.1c-3.5-0.6-9-0.3-9-4.3c0-2.6,2.3-3.7,5.3-3.7c1.8,0,3.8,0.4,5.1,1.5
			c0.1-0.4,0.1-0.8,0.3-1.2h5.1c-0.6,1-0.6,2.1-0.6,3.2v5.4C277.2,378.6,273.6,379.2,270,379.2z M236.8,379.1
			c-2.2,0-3.9-0.8-4.7-2.4H232v2.2h-4.9v-12.4h5.1v6.1c0,1.5,1.3,2.9,3.8,2.9c0.7,0,1.3-0.1,1.9-0.2v3.7
			C237.6,379.1,237.2,379.1,236.8,379.1z M256.1,378.9v-12.4h5.1v12.4C261.1,378.9,256.1,378.9,256.1,378.9z M201.1,376.5
			c1.7,0,2.9-1.1,3-2.5h-6.3C198.1,375.5,199.3,376.5,201.1,376.5z M218.1,376.1c2.4,0,3.1-1.9,3.1-3.5s-0.7-3.4-3.1-3.4
			c-2.4,0-3.1,1.9-3.1,3.4C215,374.2,215.8,376.1,218.1,376.1z M246.3,376.1c2.3,0,3-1.6,3-3.1c0-1.6-0.9-2.9-3.1-2.9
			c-2.1,0-2.9,1.5-2.9,2.9C243.3,374.6,244.1,376.1,246.3,376.1z M272.3,372.3c0.1-2.6-0.7-3.7-3.1-3.7c-1.1,0-2.1,0.4-2.1,1.4
			s1,1.4,2.1,1.6C270.3,371.9,271.6,371.9,272.3,372.3z M213.5,363.4v-3.8h6.4v-13.2h5.5v13.2h6.4v3.8
			C231.7,363.4,213.5,363.4,213.5,363.4z M261.7,363.4v-17h5.1v6.8c0,1.4,0.8,2.7,2.7,2.7c2.8,0,2.5-1.7,2.5-3.4v-6h5.1v8
			c0,1.8-0.4,4.8-5.6,4.8c-1.8,0-3.9-0.8-4.7-2.1h-0.1v6.4h-5V363.4z M235.6,359.1c-4.6,0-8.4-2.7-8.4-6.5c0-4.2,3.4-6.6,8.5-6.6
			c3.5,0,6.8,1.2,7.7,4.1h-4.7c-0.5-0.9-1.7-1.4-2.9-1.4c-2.1,0-3.4,1.1-3.5,2.8h11.4C243.9,355.8,241.1,359.1,235.6,359.1z
			 M252.9,359.1c-5,0-8.1-2.8-8.1-6.8c0-3.8,3.5-6.4,8.1-6.4c4.1,0,7.3,1.9,7.8,5.2h-4.9c-0.2-1.3-1.1-2.1-2.9-2.1
			c-2.2,0-3,1.6-3,3.2c0,1.7,0.4,3.7,3.3,3.7c1.3,0,2.4-0.7,2.5-1.8h4.9C260.2,357.5,256.8,359.1,252.9,359.1z M235.6,356.4
			c1.7,0,2.9-1.1,3-2.5h-6.3C232.6,355.3,233.8,356.4,235.6,356.4z"/>
		<path class="st0" d="M294.5,338.7H284v2h10.5V338.7z M291.9,352.8l-2.6,39.4l-2.6-39.4 M294.5,362.5l-5.3-19.7h5.3V362.5z
			 M284,362.5l5.3-19.7H284V362.5z"/>
	</g>
</g>
</svg>
