<svg id="Layer_1" data-name="Layer 1" xmlns="http://www.w3.org/2000/svg" viewBox="0 0 373.91 176.91"><defs><style>.cls-1{fill:#1a1918;}</style></defs><title>logo_fhp</title><path id="Fill-1" class="cls-1" d="M148.28,65.63c0,9.34-2.13,16.32-10.58,22.94l-9.16-7.75c4.81-4.51,6.34-8,6.46-13.52h-7.33V46.47h20.61Z" transform="translate(-0.31 -1.44)"/><polygon id="Fill-3" class="cls-1" points="127.48 31.17 147.94 31.17 147.94 10.35 127.48 10.35 127.48 31.17"/><polygon id="Fill-5" class="cls-1" points="0 65.86 0 0 49.53 0 49.53 15.67 19.87 15.67 19.87 27.23 47.29 27.23 47.29 42.91 19.87 42.91 19.87 65.86 0 65.86"/><polygon id="Fill-6" class="cls-1" points="95.69 65.85 95.69 40.11 76.48 40.11 76.48 65.85 56.14 65.85 56.14 0 76.48 0 76.48 23.13 95.69 23.13 95.69 0 116.12 0 116.12 65.85 95.69 65.85"/><path id="Fill-7" class="cls-1" d="M187.77,31.29c3.92,0,6.81-.56,8.39-1.86a6.39,6.39,0,0,0,2.05-5.23A6.63,6.63,0,0,0,196.17,19c-1.49-1.4-3.92-1.86-8.12-1.86h-8.11V31.29Zm-27.89,36V1.44H188c13,0,18.56,1.4,22.48,4,5.78,3.82,8.58,10.07,8.58,18.28,0,7.56-3,14.18-8.3,18.1-4.57,3.26-10.54,4.85-20.8,4.85H180V67.3Z" transform="translate(-0.31 -1.44)"/><polygon id="Fill-8" class="cls-1" points="130.65 109.46 130.65 113.72 134.97 113.72 134.97 116.03 130.65 116.03 130.65 122.56 127.55 122.56 127.55 107.1 135.45 107.1 135.45 109.46 130.65 109.46"/><path id="Fill-9" class="cls-1" d="M143.69,118.83h-.87c-2.22,0-2.86.73-2.86,1.81a1.38,1.38,0,0,0,1.53,1.51,3.52,3.52,0,0,0,2.2-1Zm.64,5.17-.21-1.17a5.1,5.1,0,0,1-3.5,1.42c-2.31,0-3.55-1.15-3.55-3.28,0-2.38,1.9-4,5.91-4h.71v-.87c0-1.17-.66-1.74-2.13-1.74a10.82,10.82,0,0,0-3.48.69l-.39-1.78a11.33,11.33,0,0,1,4.6-1c2.93,0,4.3,1.4,4.3,3.57V124Z" transform="translate(-0.31 -1.44)"/><path id="Fill-10" class="cls-1" d="M153.86,124.23c-3,0-4.58-1.92-4.58-5.82,0-3.62,1.86-6.14,4.79-6.14a4.4,4.4,0,0,1,3.43,1.44l-1,1.51a2.8,2.8,0,0,0-1.95-.75c-1.33,0-2.17,1.23-2.17,3.64,0,2.79.76,3.89,2.08,3.89a3.48,3.48,0,0,0,2.43-1l.89,1.51a5.27,5.27,0,0,1-3.89,1.67" transform="translate(-0.31 -1.44)"/><path id="Fill-11" class="cls-1" d="M169.23,124H166.3c0-2.34.07-4.72.07-6,0-2.75-.55-3.37-1.6-3.37a3.87,3.87,0,0,0-2.11.94V124h-3V107.77h3v5.75a4.85,4.85,0,0,1,3.14-1.24c2.29,0,3.53,1.42,3.53,5.2,0,1.38-.09,4-.09,6.53" transform="translate(-0.31 -1.44)"/><path id="Fill-12" class="cls-1" d="M182.08,124h-2.93c0-2.34.07-4.72.07-6,0-2.75-.55-3.37-1.6-3.37a3.87,3.87,0,0,0-2.11.94V124h-3V107.77h3v5.75a4.84,4.84,0,0,1,3.14-1.24c2.29,0,3.53,1.42,3.53,5.2,0,1.38-.09,4-.09,6.53" transform="translate(-0.31 -1.44)"/><path id="Fill-13" class="cls-1" d="M190.08,114.45c-1.35,0-2.29.94-2.29,3.55,0,3.23.85,4.08,2.31,4.08s2.27-.94,2.27-3.55c0-3.23-.85-4.07-2.29-4.07m-.23,9.8c-3.25,0-5.08-1.65-5.08-5.77s2.13-6.21,5.54-6.21c3.25,0,5.08,1.65,5.08,5.77s-2.13,6.21-5.54,6.21" transform="translate(-0.31 -1.44)"/><path id="Fill-14" class="cls-1" d="M202,124.23c-3,0-4.58-1.92-4.58-5.82,0-3.62,1.86-6.14,4.79-6.14a4.4,4.4,0,0,1,3.43,1.44l-1,1.51a2.8,2.8,0,0,0-1.95-.75c-1.33,0-2.17,1.23-2.17,3.64,0,2.79.76,3.89,2.08,3.89a3.48,3.48,0,0,0,2.43-1l.89,1.51a5.27,5.27,0,0,1-3.89,1.67" transform="translate(-0.31 -1.44)"/><path id="Fill-15" class="cls-1" d="M217.38,124h-2.93c0-2.34.07-4.72.07-6,0-2.75-.55-3.37-1.6-3.37a3.87,3.87,0,0,0-2.11.94V124h-3V107.77h3v5.75a4.84,4.84,0,0,1,3.14-1.24c2.29,0,3.53,1.42,3.53,5.2,0,1.38-.09,4-.09,6.53" transform="translate(-0.31 -1.44)"/><path id="Fill-16" class="cls-1" d="M223.43,124.23a7.26,7.26,0,0,1-3.57-.94l.25-1.53a12.15,12.15,0,0,0,2.79.39c1.51,0,2.08-.57,2.08-1.26s-.37-1.14-2-1.74c-2.2-.78-3-1.72-3-3.39,0-2.08,1.67-3.48,4.19-3.48a6.68,6.68,0,0,1,3.2.85l-.32,1.51a9.7,9.7,0,0,0-2.27-.34c-1.19,0-1.72.55-1.72,1.19s.39,1,2,1.63c2.24.75,3.09,1.83,3.09,3.48,0,2.08-1.72,3.64-4.67,3.64" transform="translate(-0.31 -1.44)"/><path id="Fill-17" class="cls-1" d="M234.52,124.23c-3,0-4.58-1.92-4.58-5.82,0-3.62,1.86-6.14,4.79-6.14a4.4,4.4,0,0,1,3.43,1.44l-1,1.51a2.8,2.8,0,0,0-1.95-.75c-1.33,0-2.17,1.23-2.17,3.64,0,2.79.76,3.89,2.08,3.89a3.48,3.48,0,0,0,2.43-1l.89,1.51a5.27,5.27,0,0,1-3.89,1.67" transform="translate(-0.31 -1.44)"/><path id="Fill-18" class="cls-1" d="M249.88,124H247c0-2.34.07-4.72.07-6,0-2.75-.55-3.37-1.6-3.37a3.87,3.87,0,0,0-2.11.94V124h-3V107.77h3v5.75a4.84,4.84,0,0,1,3.14-1.24c2.29,0,3.53,1.42,3.53,5.2,0,1.38-.09,4-.09,6.53" transform="translate(-0.31 -1.44)"/><path id="Fill-19" class="cls-1" d="M260.33,124l-.23-1.21a5.14,5.14,0,0,1-3.46,1.46c-2.34,0-3.53-1.46-3.53-5.2,0-1.42.09-4,.09-6.53h3c0,2.31-.09,4.65-.09,6,0,2.7.55,3.34,1.58,3.34a3.94,3.94,0,0,0,2.13-.94v-8.43h3V124Z" transform="translate(-0.31 -1.44)"/><path id="Fill-20" class="cls-1" d="M268.33,124.18c-1.49,0-2.27-.46-2.27-2.31v-14.1h3V120.7c0,1.29.16,1.47.76,1.47l.57,0,.11,1.74a6.69,6.69,0,0,1-2.13.3" transform="translate(-0.31 -1.44)"/><path id="Fill-21" class="cls-1" d="M278.77,117c0-1.83-.62-2.72-1.86-2.72s-2,1.12-2.06,2.77h3.91Zm-3.91,1.88V119c0,2.11.91,3,2.56,3a12.53,12.53,0,0,0,3.71-.66l.44,1.69a10.3,10.3,0,0,1-4.74,1.22c-3,0-5-1.49-5-5.68s2-6.3,5.2-6.3c3,0,4.9,1.65,4.58,6.57Z" transform="translate(-0.31 -1.44)"/><path id="Fill-22" class="cls-1" d="M294.56,110.77h-.94v5.75h.94c2,0,3-1.05,3-2.89s-.8-2.86-3-2.86m-.3,8h-.64V124h-3.09V108.55c1.44,0,2.91,0,4.49,0,4.19,0,5.72,1.9,5.72,4.85,0,3.16-1.69,5.45-6.48,5.45" transform="translate(-0.31 -1.44)"/><path id="Fill-23" class="cls-1" d="M307.57,114.45c-1.35,0-2.29.94-2.29,3.55,0,3.23.85,4.08,2.31,4.08s2.27-.94,2.27-3.55c0-3.23-.85-4.07-2.29-4.07m-.23,9.8c-3.25,0-5.08-1.65-5.08-5.77s2.13-6.21,5.54-6.21c3.25,0,5.08,1.65,5.08,5.77s-2.13,6.21-5.54,6.21" transform="translate(-0.31 -1.44)"/><path id="Fill-24" class="cls-1" d="M318.56,124.23c-2.11,0-2.91-.8-2.91-3v-6.64h-1.44v-2.06h1.56a33.06,33.06,0,0,0,.69-3.34h2.15v3.34h2.54v2.06h-2.54v5.91c0,1.17.28,1.53,1,1.53a5.66,5.66,0,0,0,1.58-.25l.23,1.69a6.26,6.26,0,0,1-2.89.76" transform="translate(-0.31 -1.44)"/><path id="Fill-25" class="cls-1" d="M326.46,124.23a7.26,7.26,0,0,1-3.57-.94l.25-1.53a12.15,12.15,0,0,0,2.79.39c1.51,0,2.08-.57,2.08-1.26s-.37-1.14-2-1.74c-2.2-.78-3-1.72-3-3.39,0-2.08,1.67-3.48,4.19-3.48a6.68,6.68,0,0,1,3.2.85l-.32,1.51a9.7,9.7,0,0,0-2.27-.34c-1.19,0-1.72.55-1.72,1.19s.39,1,2,1.63c2.24.75,3.09,1.83,3.09,3.48,0,2.08-1.72,3.64-4.67,3.64" transform="translate(-0.31 -1.44)"/><path id="Fill-26" class="cls-1" d="M339.91,114.61a4.48,4.48,0,0,0-1.4-.23c-1.49,0-2.52,1.21-2.52,3.94,0,2.43.71,3.67,1.88,3.67a3.47,3.47,0,0,0,2-1Zm.55,9.39-.23-1.17a5,5,0,0,1-3.23,1.42c-2.68,0-4-2.45-4-5.52,0-4.63,2.49-6.46,5.65-6.46.46,0,1,0,1.28.07v-4.58h3V124Z" transform="translate(-0.31 -1.44)"/><path id="Fill-27" class="cls-1" d="M352.07,118.83h-.87c-2.22,0-2.86.73-2.86,1.81a1.38,1.38,0,0,0,1.53,1.51,3.52,3.52,0,0,0,2.2-1Zm.64,5.17-.21-1.17a5.1,5.1,0,0,1-3.5,1.42c-2.31,0-3.55-1.15-3.55-3.28,0-2.38,1.9-4,5.91-4h.71v-.87c0-1.17-.66-1.74-2.13-1.74a10.82,10.82,0,0,0-3.48.69l-.39-1.78a11.33,11.33,0,0,1,4.6-1c2.93,0,4.3,1.4,4.3,3.57V124Z" transform="translate(-0.31 -1.44)"/><path id="Fill-28" class="cls-1" d="M374.13,124H371.2c0-2.31.07-4.67.07-6,0-2.75-.5-3.37-1.49-3.37a4.16,4.16,0,0,0-2.18,1,9.34,9.34,0,0,1,.12,1.72V124h-2.93v-6c0-2.7-.51-3.37-1.47-3.37a3.93,3.93,0,0,0-2.06.94V124h-3V112.53h2.43l.21,1.21a5.06,5.06,0,0,1,3.39-1.46,2.9,2.9,0,0,1,2.79,1.65,5.52,5.52,0,0,1,3.67-1.65c2.24,0,3.43,1.46,3.43,5.17,0,1.42-.09,4-.09,6.55" transform="translate(-0.31 -1.44)"/><path id="Fill-29" class="cls-1" d="M133.38,149.45c-3.67,0-5.54-1.53-5.54-5.49V133.75h3.09v9.89c0,2.63.82,3.55,2.72,3.55,1.72,0,2.75-.8,2.75-3.37V133.75h3v9.87c0,4.24-2.5,5.84-6,5.84" transform="translate(-0.31 -1.44)"/><path id="Fill-30" class="cls-1" d="M152.46,149.2h-2.93c0-2.31.07-4.67.07-6,0-2.72-.52-3.34-1.58-3.34a3.9,3.9,0,0,0-2.13.94v8.43h-3V137.73h2.43l.21,1.21a5.16,5.16,0,0,1,3.48-1.46c2.31,0,3.5,1.46,3.5,5.2,0,1.42-.09,4-.09,6.53" transform="translate(-0.31 -1.44)"/><path id="Fill-31" class="cls-1" d="M155.79,149.2h3V137.73h-3Zm1.49-13c-1.42,0-1.76-.37-1.76-1.53s.37-1.53,1.76-1.53,1.74.34,1.74,1.53-.34,1.53-1.74,1.53Z" transform="translate(-0.31 -1.44)"/><path id="Fill-32" class="cls-1" d="M167.95,149.2H164.1l-3.27-11.47H164l1.86,6.48.46,2.29a44.11,44.11,0,0,0,1.9-8.77h3a44.88,44.88,0,0,1-3.32,11.47" transform="translate(-0.31 -1.44)"/><path id="Fill-33" class="cls-1" d="M179.68,142.17c0-1.83-.62-2.72-1.86-2.72s-2,1.12-2.06,2.77h3.91ZM175.76,144v.16c0,2.11.91,3,2.56,3a12.53,12.53,0,0,0,3.71-.66l.44,1.69a10.3,10.3,0,0,1-4.74,1.22c-3,0-5-1.49-5-5.68s2-6.3,5.2-6.3c3,0,4.9,1.65,4.58,6.57Z" transform="translate(-0.31 -1.44)"/><path id="Fill-34" class="cls-1" d="M191.57,140.34a3.41,3.41,0,0,0-1-.16c-.64,0-1.19.43-2.22,1.74v7.28h-3V137.73h2.43l.23,1.79c1.17-1.53,1.95-2,2.77-2a2.47,2.47,0,0,1,1.1.25Z" transform="translate(-0.31 -1.44)"/><path id="Fill-35" class="cls-1" d="M196.68,149.43a7.26,7.26,0,0,1-3.57-.94l.25-1.53a12.14,12.14,0,0,0,2.79.39c1.51,0,2.08-.57,2.08-1.26s-.37-1.14-2-1.74c-2.2-.78-3-1.72-3-3.39,0-2.08,1.67-3.48,4.19-3.48a6.68,6.68,0,0,1,3.2.85l-.32,1.51a9.7,9.7,0,0,0-2.27-.34c-1.19,0-1.72.55-1.72,1.19s.39,1,2,1.63c2.24.75,3.09,1.83,3.09,3.48,0,2.08-1.72,3.64-4.67,3.64" transform="translate(-0.31 -1.44)"/><path id="Fill-36" class="cls-1" d="M203.82,149.2h3V137.73h-3Zm1.49-13c-1.42,0-1.76-.37-1.76-1.53s.37-1.53,1.76-1.53,1.74.34,1.74,1.53-.34,1.53-1.74,1.53Z" transform="translate(-0.31 -1.44)"/><path id="Fill-37" class="cls-1" d="M213.24,149.43c-2.11,0-2.91-.8-2.91-3v-6.64h-1.44v-2.06h1.56a33.07,33.07,0,0,0,.69-3.34h2.15v3.34h2.54v2.06h-2.54v5.91c0,1.17.28,1.53,1,1.53a5.66,5.66,0,0,0,1.58-.25l.23,1.69a6.26,6.26,0,0,1-2.89.76" transform="translate(-0.31 -1.44)"/><path id="Fill-38" class="cls-1" d="M218.78,153.3a3.82,3.82,0,0,1-1.74-.48v-1.69a11.14,11.14,0,0,0,1.14.07,2.39,2.39,0,0,0,1.65-.51,1.62,1.62,0,0,0,.66-1.35,7.54,7.54,0,0,0-.52-2.27l-2.84-9.34h3.16l1.78,6.43a8.69,8.69,0,0,1,.5,2.84,42.42,42.42,0,0,0,1.9-9.27h3c-1.83,12-5.58,15.57-8.75,15.57" transform="translate(-0.31 -1.44)"/><path id="Fill-39" class="cls-1" d="M239.33,139.65c-1.35,0-2.29.94-2.29,3.55,0,3.23.85,4.08,2.31,4.08s2.27-.94,2.27-3.55c0-3.23-.85-4.07-2.29-4.07m-.23,9.8c-3.25,0-5.08-1.65-5.08-5.77s2.13-6.21,5.54-6.21c3.25,0,5.08,1.65,5.08,5.77s-2.13,6.21-5.54,6.21" transform="translate(-0.31 -1.44)"/><path id="Fill-40" class="cls-1" d="M253.09,135.12a3.83,3.83,0,0,0-1.35-.27c-.89,0-1.23.46-1.23,1.42v1.47h2.06v2.06h-2.06v9.41h-2.93v-9.41h-1.47v-2.06h1.47v-1.37c0-2.27.89-3.64,3.2-3.64a5.75,5.75,0,0,1,2.75.71Z" transform="translate(-0.31 -1.44)"/><path id="Fill-41" class="cls-1" d="M132.46,161.67c-.64,2.2-1.42,5-2,7.37h4.12c-.64-2.38-1.37-5-2.13-7.37Zm3.3,12.73c-.18-.87-.43-2.15-.66-3H130c-.21.87-.46,2-.64,3h-3c1.15-5.15,2.66-10.49,4.28-15.45h4.05c1.78,5.29,3.14,10.26,4.37,15.45Z" transform="translate(-0.31 -1.44)"/><path id="Fill-42" class="cls-1" d="M146.14,164.94a3.43,3.43,0,0,0-2,1v6.41a3.69,3.69,0,0,0,1.38.23c1.49,0,2.54-1.21,2.54-3.94,0-2.36-.71-3.67-1.88-3.67m-.82,9.71a10.56,10.56,0,0,1-1.22-.07v3.78h-3V162.93h2.41l.23,1.17a4.87,4.87,0,0,1,3.18-1.42c2.75,0,4.08,2.47,4.08,5.52,0,4.53-2.43,6.46-5.72,6.46" transform="translate(-0.31 -1.44)"/><path id="Fill-43" class="cls-1" d="M158.72,164.94a3.43,3.43,0,0,0-2,1v6.41a3.69,3.69,0,0,0,1.38.23c1.49,0,2.54-1.21,2.54-3.94,0-2.36-.71-3.67-1.88-3.67m-.82,9.71a10.56,10.56,0,0,1-1.22-.07v3.78h-3V162.93h2.41l.23,1.17a4.87,4.87,0,0,1,3.18-1.42c2.75,0,4.08,2.47,4.08,5.52,0,4.53-2.43,6.46-5.72,6.46" transform="translate(-0.31 -1.44)"/><path id="Fill-44" class="cls-1" d="M168.57,174.58c-1.49,0-2.27-.46-2.27-2.31v-14.1h3V171.1c0,1.29.16,1.47.76,1.47l.57,0,.11,1.74a6.69,6.69,0,0,1-2.13.3" transform="translate(-0.31 -1.44)"/><path id="Fill-45" class="cls-1" d="M172.94,174.4h3V162.93h-3Zm1.49-13c-1.42,0-1.76-.37-1.76-1.53s.37-1.53,1.76-1.53,1.74.34,1.74,1.53-.34,1.53-1.74,1.53Z" transform="translate(-0.31 -1.44)"/><path id="Fill-46" class="cls-1" d="M185.52,167.37c0-1.83-.62-2.72-1.86-2.72s-2,1.12-2.06,2.77h3.91Zm-3.91,1.88v.16c0,2.11.91,3,2.56,3a12.53,12.53,0,0,0,3.71-.66l.44,1.69a10.3,10.3,0,0,1-4.74,1.22c-3,0-5-1.49-5-5.68s2-6.3,5.2-6.3c3,0,4.9,1.65,4.58,6.57Z" transform="translate(-0.31 -1.44)"/><path id="Fill-47" class="cls-1" d="M197.52,165a4.48,4.48,0,0,0-1.4-.23c-1.49,0-2.52,1.21-2.52,3.94,0,2.43.71,3.67,1.88,3.67a3.47,3.47,0,0,0,2-1Zm.55,9.39-.23-1.17a5,5,0,0,1-3.23,1.42c-2.68,0-4-2.45-4-5.52,0-4.63,2.49-6.46,5.65-6.46.46,0,1,0,1.28.07v-4.58h3V174.4Z" transform="translate(-0.31 -1.44)"/><path id="Fill-48" class="cls-1" d="M213.6,174.63a8.26,8.26,0,0,1-4.65-1.47l.73-1.63a9.8,9.8,0,0,0,3.34.82c1.58,0,2.56-.69,2.56-2,0-3-6.46-2.43-6.46-7.28,0-2.65,2.06-4.37,4.95-4.37a7.33,7.33,0,0,1,4.14,1.26l-.73,1.6a8,8,0,0,0-2.84-.62c-1.53,0-2.24.73-2.24,1.76,0,3,6.62,2.52,6.62,7.28,0,2.61-1.92,4.63-5.42,4.63" transform="translate(-0.31 -1.44)"/><path id="Fill-49" class="cls-1" d="M225.51,174.63c-3,0-4.58-1.92-4.58-5.82,0-3.62,1.86-6.14,4.79-6.14a4.4,4.4,0,0,1,3.43,1.44l-1,1.51a2.8,2.8,0,0,0-1.95-.75c-1.33,0-2.17,1.23-2.17,3.64,0,2.79.76,3.89,2.08,3.89a3.48,3.48,0,0,0,2.43-1l.89,1.51a5.27,5.27,0,0,1-3.89,1.67" transform="translate(-0.31 -1.44)"/><path id="Fill-50" class="cls-1" d="M231.61,174.4h3V162.93h-3Zm1.49-13c-1.42,0-1.76-.37-1.76-1.53s.37-1.53,1.76-1.53,1.74.34,1.74,1.53-.34,1.53-1.74,1.53Z" transform="translate(-0.31 -1.44)"/><path id="Fill-51" class="cls-1" d="M244.18,167.37c0-1.83-.62-2.72-1.85-2.72s-2,1.12-2.06,2.77h3.91Zm-3.91,1.88v.16c0,2.11.92,3,2.56,3a12.53,12.53,0,0,0,3.71-.66l.44,1.69a10.3,10.3,0,0,1-4.74,1.22c-3,0-5-1.49-5-5.68s2-6.3,5.2-6.3c3,0,4.9,1.65,4.58,6.57Z" transform="translate(-0.31 -1.44)"/><path id="Fill-52" class="cls-1" d="M259.41,174.4h-2.93c0-2.31.07-4.67.07-6,0-2.72-.53-3.34-1.58-3.34a3.9,3.9,0,0,0-2.13.94v8.43h-3V162.93h2.43l.21,1.21a5.16,5.16,0,0,1,3.48-1.46c2.31,0,3.5,1.46,3.5,5.2,0,1.42-.09,4-.09,6.53" transform="translate(-0.31 -1.44)"/><path id="Fill-53" class="cls-1" d="M266.68,174.63c-3,0-4.58-1.92-4.58-5.82,0-3.62,1.86-6.14,4.79-6.14a4.4,4.4,0,0,1,3.43,1.44l-1,1.51a2.8,2.8,0,0,0-1.95-.75c-1.33,0-2.17,1.23-2.17,3.64,0,2.79.76,3.89,2.08,3.89a3.49,3.49,0,0,0,2.43-1l.89,1.51a5.27,5.27,0,0,1-3.89,1.67" transform="translate(-0.31 -1.44)"/><path id="Fill-54" class="cls-1" d="M278.7,167.37c0-1.83-.62-2.72-1.86-2.72s-2,1.12-2.06,2.77h3.91Zm-3.91,1.88v.16c0,2.11.91,3,2.56,3a12.53,12.53,0,0,0,3.71-.66l.44,1.69a10.3,10.3,0,0,1-4.74,1.22c-3,0-5-1.49-5-5.68s2-6.3,5.2-6.3c3,0,4.9,1.65,4.58,6.57Z" transform="translate(-0.31 -1.44)"/><path id="Fill-55" class="cls-1" d="M287.13,174.63a7.26,7.26,0,0,1-3.57-.94l.25-1.53a12.14,12.14,0,0,0,2.79.39c1.51,0,2.08-.57,2.08-1.26s-.37-1.14-2-1.74c-2.2-.78-3-1.72-3-3.39,0-2.08,1.67-3.48,4.19-3.48a6.69,6.69,0,0,1,3.21.85l-.32,1.51a9.7,9.7,0,0,0-2.27-.34c-1.19,0-1.72.55-1.72,1.19s.39,1,2,1.63c2.24.75,3.09,1.83,3.09,3.48,0,2.08-1.72,3.64-4.67,3.64" transform="translate(-0.31 -1.44)"/></svg>