<?xml version="1.0" encoding="utf-8"?>
<!-- Generator: Adobe Illustrator 22.1.0, SVG Export Plug-In . SVG Version: 6.00 Build 0)  -->
<svg version="1.1" id="DensityDesign_Logo" xmlns="http://www.w3.org/2000/svg" xmlns:xlink="http://www.w3.org/1999/xlink" x="0px"
	 y="0px" viewBox="0 0 42.4 47.7" style="enable-background:new 0 0 42.4 47.7;" xml:space="preserve">
<rect x="34.5" y="5.1" width="6.6" height="1.2"/>
<path d="M12.6,12.1V0h3.9v1.8h-2v3.3h1.4v1.6h-1.6v3.5h2v1.8h-3.7V12.1z"/>
<path d="M28.1,12.1l-2-6.1l-0.6-2v8h-1.2V0h1l2,6.3l0.6,2V0H29v12.1H28.1L28.1,12.1z"/>
<path d="M13.4,30.1V18h2v12.1H13.4z"/>
<path d="M3.4,47.5l-0.2-0.6c-0.2,0.6-0.8,0.8-1.4,0.8c-1.2,0-2.1-1-2.1-2.3v-7.6c0-1.4,1-2.3,2.3-2.3s2.3,1,2.3,2.3v2.1H2.8v-2.3
	c0-0.2-0.2-0.4-0.4-0.4c-0.4,0-0.6,0.2-0.6,0.4v7.8c0,0.4,0.2,0.6,0.6,0.6S3,45.7,3,45.3V43H2.3v-1.4h2.3v5.9H3.4L3.4,47.5z"/>
<path d="M15.2,47.5L13.8,42l-0.4-1.6v7h-1.6V35.4h1.8l1.2,5.5l0.4,1.8v-7h1.6v12.1L15.2,47.5L15.2,47.5z"/>
<path d="M27.3,19.2v10.7h-1.4V19.2h-1.6V18h4.5v1.2H27.3L27.3,19.2z"/>
<path d="M38.6,25.2v4.7h-1.4v-4.7l-2-7.2h1.4l1.4,5.7l1.4-5.7h1.2L38.6,25.2z"/>
<rect x="23.2" y="40.6" width="6.6" height="1.4"/>
<rect x="25.9" y="37.9" width="1.4" height="6.6"/>
<path d="M1.5,12.1H0.1V0h1.4C4.8,0,5,1.4,5,6.1S4.6,12.1,1.5,12.1z M1.9,10.4c1.2,0,1.4-0.4,1.4-4.3s0-4.3-1.4-4.3V10.4z"/>
<path d="M3,23.5c-0.8-1.4-1.2-2-1.2-3.3c0-0.4,0.2-0.6,0.6-0.6c0.2,0,0.6,0.2,0.6,0.6v1l1.6-0.2v-0.6c0-1.6-0.8-2.5-2.1-2.5
	c-1.8,0-2.5,1.2-2.5,2.7c0,1.4,1,3.1,1.8,4.1c0.8,1.2,1.2,2.1,1.2,3.1c0,0.4-0.2,0.8-0.6,0.8s-0.6-0.2-0.6-0.8v-1L-0.1,27v0.6
	c0,1.6,1,2.5,2.3,2.5c1.2,0,2.3-0.8,2.3-2.7C4.6,26.2,3.8,24.8,3,23.5z"/>
</svg>
