<?xml version="1.0" encoding="utf-8"?>
<!-- Generator: Adobe Illustrator 22.1.0, SVG Export Plug-In . SVG Version: 6.00 Build 0)  -->
<svg version="1.1" id="DensityDesign_Logo" xmlns="http://www.w3.org/2000/svg" xmlns:xlink="http://www.w3.org/1999/xlink" x="0px"
	 y="0px" viewBox="0 0 25.8 30.3" style="enable-background:new 0 0 25.8 30.3;" xml:space="preserve">
<g>
	<rect x="21" y="4.5" width="3.8" height="0.7"/>
	<path d="M8.5,8.4V1.6h2.2v1H9.6v1.9h0.8v0.9H9.5v2h1.1v1L8.5,8.4C8.5,8.4,8.5,8.4,8.5,8.4z"/>
	<path d="M17.3,8.4L16.2,5l-0.3-1.1v4.6h-0.7V1.6h0.6l1.1,3.6l0.3,1.1V1.6h0.6v6.9H17.3L17.3,8.4z"/>
	<path d="M8.9,18.7v-6.9h1.1v6.9H8.9z"/>
	<path d="M3.3,28.6l-0.1-0.3c-0.1,0.3-0.5,0.5-0.8,0.5c-0.7,0-1.2-0.6-1.2-1.3v-4.3c0-0.8,0.6-1.3,1.3-1.3s1.3,0.6,1.3,1.3v1.2H2.9
		V23c0-0.1-0.1-0.2-0.2-0.2c-0.2,0-0.3,0.1-0.3,0.2v4.4c0,0.2,0.1,0.3,0.3,0.3S3,27.6,3,27.3V26H2.6v-0.8h1.3v3.4H3.3L3.3,28.6z"/>
	<path d="M10,28.6l-0.8-3.1l-0.2-0.9v4H8v-6.8h1l0.7,3.1l0.2,1v-4h0.9v6.9L10,28.6L10,28.6z"/>
	<path d="M16.9,12.5v6.1h-0.8v-6.1h-0.9v-0.7h2.6v0.7H16.9L16.9,12.5z"/>
	<path d="M23.3,15.9v2.7h-0.8v-2.7l-1.1-4.1h0.8l0.8,3.2l0.8-3.2h0.7L23.3,15.9z"/>
	<rect x="14.5" y="24.7" width="3.8" height="0.8"/>
	<rect x="16.1" y="23.1" width="0.8" height="3.8"/>
	<path d="M2.2,8.4H1.4V1.6h0.8c1.9,0,2,0.8,2,3.5S3.9,8.4,2.2,8.4z M2.4,7.5c0.7,0,0.8-0.2,0.8-2.4s0-2.4-0.8-2.4V7.5z"/>
	<path d="M3,14.9c-0.5-0.8-0.7-1.1-0.7-1.9c0-0.2,0.1-0.3,0.3-0.3c0.1,0,0.3,0.1,0.3,0.3v0.6l0.9-0.1v-0.3c0-0.9-0.5-1.4-1.2-1.4
		c-1,0-1.4,0.7-1.4,1.5c0,0.8,0.6,1.8,1,2.3C2.8,16.3,3,16.8,3,17.4c0,0.2-0.1,0.5-0.3,0.5s-0.3-0.1-0.3-0.5v-0.6l-1.1,0.1v0.3
		c0,0.9,0.6,1.4,1.3,1.4c0.7,0,1.3-0.5,1.3-1.5C3.9,16.5,3.5,15.7,3,14.9z"/>
</g>
</svg>
