<?xml version="1.0" encoding="utf-8"?>
<!-- Generator: Adobe Illustrator 23.1.1, SVG Export Plug-In . SVG Version: 6.00 Build 0)  -->
<svg version="1.1" id="Layer_1" xmlns="http://www.w3.org/2000/svg" xmlns:xlink="http://www.w3.org/1999/xlink" x="0px" y="0px"
	 viewBox="0 0 14.47 4.82" style="enable-background:new 0 0 14.47 4.82;" xml:space="preserve">
<style type="text/css">
	.st0{fill:#231F20;}
	.st1{fill:#8FB6CE;}
</style>
<g>
	<path class="st0" d="M2.06,3.93l0.03,0l0,0.18l-0.03,0L2.06,3.93z M1.97,4.11l0.01-0.18l0.03,0L2,4.11L1.97,4.11z M2.15,3.93
		l0.03,0l0.01,0.18l-0.03,0L2.15,3.93z M1.87,4.1l0.01-0.18l0.03,0L1.9,4.11L1.87,4.1z M2.23,3.92l0.03,0L2.29,4.1l-0.03,0
		L2.23,3.92z M1.77,4.09L1.8,3.91l0.03,0L1.81,4.1L1.77,4.09z M2.32,3.91l0.03,0l0.03,0.18L2.35,4.09L2.32,3.91z M1.68,4.08
		L1.71,3.9L1.75,3.9L1.71,4.08L1.68,4.08z M2.41,3.9l0.03-0.01l0.04,0.18L2.44,4.08L2.41,3.9z M1.59,4.06l0.04-0.18l0.03,0.01
		L1.62,4.07L1.59,4.06z M2.49,3.88l0.03-0.01l0.04,0.18L2.54,4.06L2.49,3.88z M1.49,4.03l0.05-0.18l0.03,0.01L1.53,4.04L1.49,4.03z
		 M2.58,3.86l0.03-0.01l0.05,0.17L2.63,4.03L2.58,3.86z M1.4,4.01l0.06-0.17l0.03,0.01L1.43,4.02L1.4,4.01z M2.66,3.83l0.03-0.01
		l0.06,0.17L2.72,4L2.66,3.83z M1.31,3.97L1.38,3.8l0.03,0.01L1.34,3.99L1.31,3.97z M2.74,3.8l0.03-0.01l0.07,0.17L2.81,3.97
		L2.74,3.8z M1.22,3.94L1.3,3.77l0.03,0.01L1.25,3.95L1.22,3.94z M2.82,3.77l0.03-0.01l0.08,0.17L2.9,3.93L2.82,3.77z M1.14,3.9
		l0.08-0.16l0.03,0.01L1.17,3.91L1.14,3.9z M2.9,3.73l0.03-0.02l0.08,0.16L2.99,3.89L2.9,3.73z M1.05,3.85l0.09-0.16l0.03,0.02
		L1.08,3.87L1.05,3.85z M2.98,3.69l0.03-0.02L3.1,3.83L3.07,3.85L2.98,3.69z M0.97,3.8l0.1-0.16l0.03,0.02L1,3.82L0.97,3.8z
		 M3.05,3.64l0.03-0.02l0.1,0.15L3.15,3.8L3.05,3.64z M0.89,3.75l0.1-0.15l0.03,0.02l-0.1,0.15L0.89,3.75z M3.13,3.59l0.03-0.02
		l0.1,0.15L3.23,3.74L3.13,3.59z M0.81,3.69l0.11-0.15l0.03,0.02L0.84,3.71L0.81,3.69z M3.2,3.54l0.03-0.02l0.11,0.14L3.31,3.69
		L3.2,3.54z M0.74,3.63l0.12-0.14l0.03,0.02L0.76,3.66L0.74,3.63z M3.27,3.49l0.03-0.02L3.41,3.6L3.38,3.63L3.27,3.49z M0.66,3.57
		l0.12-0.14l0.03,0.02L0.69,3.59L0.66,3.57z M3.33,3.43l0.02-0.02l0.12,0.13L3.46,3.56L3.33,3.43z M0.6,3.5l0.13-0.13L0.75,3.4
		L0.62,3.53L0.6,3.5z M3.39,3.37l0.02-0.02l0.13,0.13L3.52,3.5L3.39,3.37z M0.53,3.43l0.13-0.12l0.02,0.03L0.55,3.46L0.53,3.43z
		 M3.45,3.31l0.02-0.03L3.61,3.4L3.59,3.43L3.45,3.31z M0.47,3.36l0.14-0.12l0.02,0.03L0.49,3.39L0.47,3.36z M3.51,3.24l0.02-0.03
		l0.14,0.11L3.65,3.35L3.51,3.24z M0.41,3.29l0.14-0.11L0.57,3.2L0.43,3.31L0.41,3.29z M3.56,3.17l0.02-0.03l0.15,0.11L3.71,3.28
		L3.56,3.17z M0.35,3.21L0.5,3.1l0.02,0.03l-0.15,0.1L0.35,3.21z M3.61,3.1l0.02-0.03l0.15,0.1L3.77,3.2L3.61,3.1z M0.3,3.13
		l0.15-0.1l0.02,0.03l-0.15,0.1L0.3,3.13z M3.66,3.03L3.68,3l0.16,0.09L3.82,3.12L3.66,3.03z M0.25,3.04l0.16-0.09l0.02,0.03
		L0.27,3.07L0.25,3.04z M3.7,2.95l0.02-0.03l0.16,0.09L3.87,3.04L3.7,2.95z M0.21,2.96l0.16-0.08l0.02,0.03L0.22,2.99L0.21,2.96z
		 M3.74,2.87l0.01-0.03l0.16,0.08L3.91,2.95L3.74,2.87z M0.17,2.87L0.33,2.8l0.01,0.03L0.18,2.9L0.17,2.87z M3.78,2.79l0.01-0.03
		l0.17,0.07L3.95,2.86L3.78,2.79z M0.13,2.78L0.3,2.72l0.01,0.03L0.14,2.81L0.13,2.78z M3.81,2.71l0.01-0.03L4,2.74L3.98,2.77
		L3.81,2.71z M0.1,2.69l0.17-0.06l0.01,0.03L0.11,2.72L0.1,2.69z M3.84,2.63L3.85,2.6l0.17,0.05L4.02,2.68L3.84,2.63z M0.07,2.6
		l0.18-0.05l0.01,0.03L0.08,2.63L0.07,2.6z M3.87,2.55l0.01-0.03l0.18,0.05L4.04,2.59L3.87,2.55z M0.05,2.51l0.18-0.04L0.23,2.5
		L0.06,2.54L0.05,2.51z M3.89,2.46l0.01-0.03l0.18,0.04L4.07,2.5L3.89,2.46z M0.03,2.41l0.18-0.03l0.01,0.03L0.04,2.45L0.03,2.41z
		 M3.9,2.38l0.01-0.03l0.18,0.03L4.08,2.4L3.9,2.38z M0.02,2.32L0.2,2.29l0,0.03L0.02,2.35L0.02,2.32z M3.92,2.29l0-0.03L4.1,2.28
		l0,0.03L3.92,2.29z M0.01,2.22l0.18-0.02l0,0.03L0.01,2.26L0.01,2.22z M3.93,2.2l0-0.03l0.18,0.01l0,0.03L3.93,2.2z M0,2.13
		l0.18-0.01l0,0.03L0,2.16L0,2.13z M3.93,2.13l0-0.03L4.11,2.1l0,0.03L3.93,2.13z M0,2.07V2.03l0.18,0v0.03L0,2.07z M3.93,2.01
		l0.18,0l0,0.03l-0.18,0L3.93,2.01z M0,1.97l0-0.03l0.18,0.01l0,0.03L0,1.97z M3.93,1.92l0.18-0.01l0,0.03L3.93,1.96L3.93,1.92z
		 M0.01,1.88l0-0.03l0.18,0.02l0,0.03L0.01,1.88z M3.92,1.84L4.1,1.82l0,0.03L3.92,1.87L3.92,1.84z M0.02,1.78l0-0.03L0.2,1.77
		l0,0.03L0.02,1.78z M3.91,1.75l0.18-0.03l0.01,0.03L3.91,1.78L3.91,1.75z M0.03,1.68l0.01-0.03l0.18,0.03L0.21,1.72L0.03,1.68z
		 M3.89,1.66l0.18-0.04l0.01,0.03L3.9,1.7L3.89,1.66z M0.05,1.59l0.01-0.03L0.24,1.6L0.23,1.63L0.05,1.59z M3.87,1.58l0.18-0.05
		l0.01,0.03L3.88,1.61L3.87,1.58z M0.08,1.5l0.01-0.03l0.17,0.05L0.25,1.55L0.08,1.5z M3.85,1.5l0.17-0.05l0.01,0.03L3.86,1.53
		L3.85,1.5z M0.1,1.41l0.01-0.03l0.17,0.06L0.28,1.47L0.1,1.41z M3.82,1.41l0.17-0.06L4,1.38L3.83,1.44L3.82,1.41z M0.14,1.32
		l0.01-0.03l0.17,0.07L0.31,1.38L0.14,1.32z M3.79,1.33l0.17-0.07l0.01,0.03L3.8,1.36L3.79,1.33z M0.17,1.23L0.19,1.2l0.17,0.08
		L0.34,1.3L0.17,1.23z M3.75,1.25l0.17-0.08l0.01,0.03L3.76,1.28L3.75,1.25z M0.21,1.14l0.02-0.03l0.16,0.08L0.38,1.22L0.21,1.14z
		 M3.71,1.17l0.16-0.08l0.02,0.03L3.73,1.2L3.71,1.17z M0.26,1.06l0.02-0.03l0.16,0.09L0.42,1.15L0.26,1.06z M3.67,1.1l0.16-0.09
		l0.02,0.03L3.68,1.13L3.67,1.1z M0.31,0.97l0.02-0.03l0.15,0.1L0.46,1.07L0.31,0.97z M3.62,1.02l0.15-0.1l0.02,0.03l-0.15,0.1
		L3.62,1.02z M0.36,0.89l0.02-0.03l0.15,0.1L0.51,1L0.36,0.89z M3.57,0.95l0.15-0.11l0.02,0.03L3.59,0.98L3.57,0.95z M0.42,0.81
		l0.02-0.03L0.58,0.9L0.56,0.93L0.42,0.81z M3.52,0.88l0.14-0.11L3.68,0.8L3.54,0.91L3.52,0.88z M0.48,0.74L0.5,0.71l0.14,0.12
		L0.61,0.86L0.48,0.74z M3.46,0.82L3.6,0.7l0.02,0.03L3.48,0.84L3.46,0.82z M0.54,0.67l0.02-0.02L0.7,0.77L0.67,0.79L0.54,0.67z
		 M3.4,0.75l0.13-0.13l0.02,0.02L3.43,0.78L3.4,0.75z M0.61,0.6l0.02-0.02L0.76,0.7L0.73,0.73L0.61,0.6z M3.34,0.69l0.13-0.13
		l0.02,0.02L3.37,0.71L3.34,0.69z M0.67,0.53L0.7,0.51l0.12,0.14L0.8,0.67L0.67,0.53z M3.28,0.63l0.12-0.14l0.03,0.02L3.3,0.65
		L3.28,0.63z M0.75,0.47l0.03-0.02l0.12,0.14L0.86,0.61L0.75,0.47z M3.21,0.58l0.11-0.14l0.03,0.02L3.23,0.6L3.21,0.58z M0.82,0.41
		l0.03-0.02l0.11,0.15L0.93,0.56L0.82,0.41z M3.14,0.52l0.11-0.15L3.27,0.4L3.16,0.54L3.14,0.52z M0.9,0.36l0.03-0.02l0.1,0.15
		L1,0.51L0.9,0.36z M3.06,0.48l0.1-0.15l0.03,0.02l-0.1,0.15L3.06,0.48z M0.98,0.3l0.03-0.02L1.1,0.44L1.07,0.46L0.98,0.3z
		 M2.99,0.43l0.09-0.16l0.03,0.02L3.02,0.45L2.99,0.43z M1.06,0.25l0.03-0.02L1.18,0.4L1.15,0.42L1.06,0.25z M2.91,0.39L3,0.23
		l0.03,0.02L2.94,0.4L2.91,0.39z M1.15,0.21L1.18,0.2l0.08,0.16L1.23,0.37L1.15,0.21z M2.83,0.35l0.08-0.17L2.94,0.2L2.87,0.36
		L2.83,0.35z M1.24,0.17l0.03-0.01l0.07,0.17L1.31,0.34L1.24,0.17z M2.75,0.32l0.07-0.17l0.03,0.01L2.79,0.33L2.75,0.32z M1.32,0.13
		l0.03-0.01l0.06,0.17L1.39,0.3L1.32,0.13z M2.67,0.29l0.06-0.17l0.03,0.01L2.71,0.3L2.67,0.29z M1.42,0.1l0.03-0.01L1.5,0.27
		L1.47,0.28L1.42,0.1z M2.59,0.26l0.05-0.17l0.03,0.01L2.62,0.27L2.59,0.26z M1.51,0.07l0.03-0.01l0.05,0.18L1.55,0.25L1.51,0.07z
		 M2.5,0.24l0.05-0.18l0.03,0.01L2.54,0.24L2.5,0.24z M1.6,0.05l0.03-0.01l0.04,0.18L1.64,0.23L1.6,0.05z M2.42,0.22l0.04-0.18
		l0.03,0.01L2.45,0.22L2.42,0.22z M1.69,0.03l0.03-0.01l0.03,0.18L1.72,0.21L1.69,0.03z M2.33,0.2l0.03-0.18L2.4,0.03L2.37,0.21
		L2.33,0.2z M1.79,0.02l0.03,0l0.02,0.18l-0.03,0L1.79,0.02z M2.25,0.19l0.02-0.18l0.03,0L2.28,0.2L2.25,0.19z M1.88,0.01l0.03,0
		l0.01,0.18l-0.03,0L1.88,0.01z M2.16,0.18L2.17,0l0.03,0L2.19,0.19L2.16,0.18z M1.98,0l0.03,0l0,0.18l-0.03,0L1.98,0z M2.07,0.18
		l0-0.18l0.03,0l0,0.18L2.07,0.18z"/>
	<polyline class="st1" points="3.16,2.24 3.16,2.24 3.16,2.24 3.16,2.24 	"/>
	<path class="st1" d="M3.16,2.24C3.16,2.24,3.16,2.24,3.16,2.24L3.16,2.24z"/>
	<path class="st0" d="M2.13,3.36l-0.3-0.1c0,0-0.01-0.01-0.01-0.01l0-0.08c0,0,0,0,0,0c0,0,0,0,0,0c0,0,0,0,0,0c0,0,0,0,0,0
		c0,0,0,0,0,0c0,0,0,0,0,0c0,0,0,0,0,0c0,0,0,0,0,0c0,0,0,0,0,0c0,0,0,0,0,0l0,0l0.31-0.07l0.02-0.12C2.14,2.96,2.13,2.94,2.13,2.93
		c0,0,0,0,0,0L2.13,2.81C2.12,2.8,2.12,2.8,2.11,2.79c0,0,0,0,0,0C2.1,2.78,2.09,2.78,2.08,2.78c-0.03,0-0.07,0.03-0.11,0.05
		C1.9,2.84,1.84,2.85,1.84,2.85c0,0,0,0-0.01,0C1.77,2.83,1.61,2.67,1.61,2.66v0c0,0,0-0.01,0-0.01c0,0,0.01,0,0.01,0
		c0,0,0.03,0.04,0.08,0.08c0-0.04-0.01-0.15-0.01-0.21c0-0.01,0-0.03,0-0.03c0-0.01,0.01-0.01,0.01-0.01c0.01,0,0.01,0.01,0.01,0.01
		c0,0,0,0.01,0,0.03c0,0.07,0.01,0.22,0.01,0.22l0,0c0,0,0,0,0,0c0.04,0.04,0.08,0.07,0.11,0.08C1.84,2.79,1.89,2.66,1.9,2.56
		c0,0,0.01-0.06,0.01-0.15v0c0-0.01,0.01-0.01,0.01-0.01c0.01,0,0.01,0,0.01,0.01C1.93,2.5,1.92,2.56,1.92,2.56
		c-0.01,0.1-0.06,0.22-0.07,0.27c0.02,0,0.07-0.01,0.11-0.02C2,2.79,2.04,2.76,2.08,2.76c0.01,0,0.02,0,0.02,0c0-0.01,0-0.01,0-0.02
		c0-0.01,0-0.02,0-0.03c0-0.04,0.03-0.07,0.05-0.11c0-0.01,0.01-0.03,0.02-0.06l0,0.01C2.16,2.55,2.15,2.56,2.15,2.56
		c-0.02,0-0.02-0.03-0.02-0.02c0,0,0-0.01,0-0.01c0-0.02,0.01-0.04,0.02-0.05c0,0,0,0,0-0.01C2.13,2.47,2.12,2.47,2.11,2.47
		c-0.01,0-0.01,0-0.02,0C2.07,2.47,2.04,2.44,2.04,2.44L2.01,2.42C2,2.41,2,2.4,2,2.39c0-0.01,0.01-0.02,0.02-0.02c0,0,0,0,0-0.01
		c0-0.01,0.01-0.02,0.02-0.02c0,0,0.01,0,0.01,0c0.02,0.01,0.03,0.03,0.03,0.03l0,0c0,0,0.01,0,0.01,0c0.01,0,0.01-0.01,0.01-0.01
		l0,0c0,0,0,0,0-0.01c0,0,0-0.01,0-0.01l0,0c0,0,0,0,0,0c0-0.01,0.01-0.06,0.02-0.07c0-0.01,0-0.01,0.02-0.03c0,0,0,0,0,0
		C2.12,2.22,2.12,2.2,2.12,2.18c0-0.04,0.02-0.07,0.04-0.09c0-0.01-0.01-0.08-0.01-0.12c0-0.01,0-0.01,0-0.02
		c0-0.02,0.02-0.13,0.05-0.23c0-0.01,0.01-0.01,0.01-0.01c0,0,0.01,0.01,0.01,0.01c-0.02,0.09-0.04,0.2-0.04,0.22c0,0,0,0.01,0,0.02
		c0,0.03,0,0.08,0,0.1C2.2,2.03,2.24,2.02,2.24,2.02c0,0,0.01,0,0.01,0.01c0,0,0,0.01-0.01,0.01c0,0-0.11,0.04-0.11,0.14
		c0,0.02,0,0.04,0.01,0.06c0,0,0,0,0,0c0,0,0,0,0,0c0,0,0,0,0,0c0,0,0.01-0.01,0.03-0.03c0.02-0.02,0.04-0.02,0.05-0.02
		c0.01,0,0.02,0,0.02,0.01c0.03-0.08,0.06-0.1,0.07-0.1c0,0,0.02-0.03,0.02-0.04l-0.01,0c0,0-0.01,0-0.01-0.01
		c0,0-0.02-0.07-0.03-0.12c0,0,0-0.01,0-0.01c0-0.05,0.04-0.1,0.06-0.11c0.01,0,0.02-0.03,0.02-0.03c0,0,0,0,0,0
		C2.35,1.73,2.35,1.7,2.35,1.69c0-0.02,0-0.04,0-0.05c0,0,0,0,0-0.01c0,0,0,0,0,0c0,0-0.02-0.01-0.02-0.03c0,0,0-0.01,0-0.01
		c0,0,0,0,0,0c0,0,0-0.01,0-0.02L2.21,1.52c0,0.01-0.01,0.02-0.02,0.03c0,0-0.02,0.02-0.04,0.03c-0.01,0-0.02,0-0.03,0
		c-0.01,0-0.01,0-0.01,0L2.11,1.57c0,0-0.01-0.01-0.01-0.02c0,0-0.03-0.02-0.03-0.07c-0.07,0-0.12-0.01-0.14-0.02
		c0,0.01,0.01,0.02,0.01,0.02c0,0.01,0.01,0.03,0.01,0.04c0,0.01,0,0.01,0,0.02c0,0-0.01,0.08-0.04,0.1c-0.01,0-0.02,0-0.03,0
		c-0.04,0-0.1-0.01-0.12-0.03c0-0.01-0.01-0.02-0.05-0.04C1.68,1.61,1.58,1.68,1.58,1.86c0,0.02,0,0.04,0,0.06
		c0.01,0,0.01,0.01,0.02,0.01c0-0.01,0-0.01,0-0.02c0-0.02,0-0.04,0.02-0.05c0,0,0,0,0,0c0,0,0.01-0.01,0.02-0.02
		c0.01-0.01,0.03-0.03,0.05-0.04c0.01,0,0.02-0.01,0.03-0.02c0.01-0.01,0.03-0.04,0.07-0.04c0,0,0.01,0,0.01,0
		c0.04,0.01,0.12,0.01,0.14,0.02C1.95,1.78,1.98,1.8,2,1.81c0.01,0,0.01,0.01,0.01,0c0,0,0,0,0.01,0l0-0.17c0-0.01,0-0.01,0.01-0.01
		c0.01,0,0.01,0,0.01,0.01l0,0.18c0.01,0,0.03,0.01,0.04,0.03c0,0,0.01,0.01,0.01,0.03c0,0.01,0,0.01,0,0.02
		C2.1,1.91,2.12,1.93,2.13,1.95c0,0.01,0.01,0.02,0.01,0.03C2.14,2,2.13,2.02,2.1,2.03c0,0-0.03,0-0.04,0
		C2.05,2.06,2.03,2.08,2.02,2.09c0,0.01,0,0.05,0,0.06c0,0.02-0.02,0.02-0.03,0.02c0,0-0.01,0-0.01,0c0,0.01-0.01,0.02-0.03,0.02
		c-0.01,0-0.01,0.01-0.03,0.01c0,0-0.01,0.01-0.02,0.02c-0.01,0-0.01,0-0.02,0c-0.03,0-0.07-0.02-0.09-0.04
		C1.78,2.17,1.76,2.15,1.76,2.15v0c0,0,0-0.01,0-0.01c0,0,0.01,0,0.01,0c0,0,0.01,0.03,0.03,0.04c0.01,0.01,0.05,0.03,0.07,0.03
		c0.01,0,0.01,0,0.02,0c0.01,0,0.01-0.01,0.03-0.02c0,0,0,0,0,0L1.92,2.18c0,0,0-0.01,0-0.01c0,0,0.01-0.01,0.01,0l0.01,0.01
		c0,0,0,0,0,0c0,0,0.01,0,0.01,0c0,0,0,0,0.01-0.01c-0.01,0-0.02-0.01-0.02-0.02l0,0v0l0,0c0,0,0,0,0-0.01c0.01,0,0.01,0,0.01,0
		c0,0,0,0,0,0c0,0,0,0,0,0l0,0c0,0,0,0,0.01,0c0,0,0.01,0,0.01,0c0,0,0,0,0,0c0,0,0.01,0,0.01,0c0.01,0,0.01,0,0.01,0
		c0-0.02,0-0.07,0-0.07l0-0.01c0,0,0.02-0.01,0.03-0.04c0,0,0-0.01-0.01-0.01c0,0-0.01,0-0.01,0c0,0-0.01,0-0.01,0
		C2,2.03,1.96,2.05,1.95,2.05c-0.01,0-0.02,0.01-0.02,0.01l0,0c0,0.01-0.01,0.02-0.05,0.04L1.75,2.13C1.76,2.17,1.76,2.2,1.76,2.2
		c0,0,0.01,0.03,0.01,0.04c0,0,0,0,0,0c0,0.04-0.02,0.17-0.13,0.19l0,0c0,0,0,0,0,0C1.62,2.47,1.56,2.51,1.5,2.52
		C1.51,2.54,1.53,2.6,1.54,2.63c0,0.02,0.03,0.09,0.04,0.15C1.6,2.82,1.61,2.85,1.61,2.86c0,0.01,0.02,0.03,0.02,0.07
		c0,0.01,0,0.01,0,0.02c0,0,0,0,0,0c0,0,0,0,0,0c0,0,0.02,0.03,0.04,0.06c0.01,0.02,0.01,0.04,0.01,0.07c0,0.03,0,0.06-0.01,0.07
		c0,0.03-0.02,0.04-0.06,0.07C1.6,3.25,1.57,3.26,1.54,3.26c-0.03,0-0.06-0.01-0.08-0.01C1.43,3.24,1.34,3.22,1.29,3.21
		C1.24,3.21,1.14,3.15,1.11,3.14C1.08,3.12,0.97,3.03,0.96,3.01C0.95,3.01,0.92,3,0.9,2.99v0c-0.01,0-0.09,0.06-0.1,0.06
		c-0.01,0-0.02,0.01-0.02,0.02c0,0,0,0,0,0c0,0,0,0.01,0.01,0.01c0,0,0,0,0.02,0.01c0.01,0,0.02,0.01,0.03,0.01
		c0.01,0,0.01,0.01,0.01,0.01c0,0.02-0.01,0.03-0.02,0.04l0,0c0,0,0,0.01,0,0.01c0,0.02-0.02,0.02-0.02,0.02c0,0,0,0-0.01,0
		c-0.01,0-0.01,0-0.02,0l0,0l0,0v0c-0.01,0-0.02,0-0.03,0C0.74,3.17,0.73,3.17,0.72,3.16l0,0c0,0,0,0,0,0c0,0,0-0.01,0-0.01
		c0-0.01-0.01-0.02-0.02-0.03C0.69,3.09,0.68,3.07,0.68,3.06c0,0,0,0,0-0.01c0-0.03,0.03-0.1,0.05-0.13
		c0.01-0.03,0.02-0.07,0.02-0.09c0-0.02,0.01-0.03,0.02-0.04C0.72,2.75,0.71,2.7,0.71,2.67c0-0.02,0-0.04,0-0.05c0,0,0,0,0,0
		C0.69,2.59,0.69,2.55,0.68,2.53C0.66,2.55,0.63,2.57,0.63,2.57l-0.01,0l0,0c-0.06,0-0.08-0.05-0.08-0.09
		c0-0.03,0.01-0.06,0.01-0.07c0-0.03,0.03-0.06,0.06-0.07c-0.02,0-0.03,0-0.03,0C0.56,2.33,0.56,2.32,0.55,2.31
		C0.53,2.29,0.52,2.29,0.48,2.29c-0.01,0-0.01,0-0.02-0.01c-0.01,0-0.03-0.01-0.05-0.01C0.38,2.26,0.36,2.26,0.35,2.25
		c0,0,0,0,0-0.01c0,0,0,0-0.01,0L0.28,2.19C0.27,2.18,0.26,2.17,0.26,2.16c0-0.02,0.01-0.03,0.01-0.03c0,0,0.09-0.09,0.13-0.17
		c0.02-0.06,0.03-0.23,0.03-0.23c0.02-0.13,0.06-0.18,0.08-0.19C0.49,1.5,0.49,1.47,0.49,1.45c0-0.02,0.01-0.03,0.01-0.04
		C0.49,1.4,0.48,1.39,0.47,1.38C0.46,1.37,0.45,1.34,0.45,1.32c0-0.01,0-0.02,0.01-0.03c0.01-0.01,0.06-0.06,0.06-0.07
		C0.59,1.1,0.66,1.08,0.67,1.07c0-0.01,0-0.02,0.01-0.02C0.69,1,0.73,0.98,0.76,0.97c0.02-0.01,0.05-0.07,0.09-0.1
		c0.03-0.02,0.11-0.04,0.18-0.05c0.02-0.01,0.05-0.01,0.08-0.01c0.05,0,0.11,0.01,0.1,0.01c0,0,0,0,0.01,0c0,0,0,0,0.01,0
		c0.02,0,0.05,0,0.09,0.02c0-0.02,0.02-0.04,0.03-0.05c0,0,0.01,0,0.01,0c0.01-0.04,0.08-0.05,0.1-0.05
		c0.01-0.04,0.06-0.04,0.1-0.04c0.04,0,0.07,0.01,0.06,0.01c0.01,0,0.01,0,0.02,0c0.06,0,0.11,0.03,0.12,0.04c0,0,0.01,0,0.01,0
		c0.05,0,0.07,0.05,0.08,0.06c0.03,0.01,0.04,0.04,0.04,0.06c0,0.02-0.01,0.04-0.01,0.05c0,0.01-0.01,0.03-0.04,0.03c0,0,0,0-0.01,0
		c-0.01,0-0.01,0-0.02,0c0,0,0,0.01-0.01,0.01C1.8,0.97,1.77,1.03,1.77,1.06c0,0.01-0.01,0.02-0.02,0.02c-0.01,0-0.01,0-0.02-0.01
		c0,0-0.01,0.01-0.01,0.01C1.71,1.1,1.7,1.1,1.69,1.1c0,0-0.01,0.01-0.02,0.01c0,0-0.01,0.01-0.01,0.01c0,0.01,0,0.02-0.02,0.02h0
		c-0.02,0-0.05-0.02-0.05-0.02L1.55,1.1c0,0.02,0,0.05-0.02,0.07c0,0,0,0,0,0v0.01c0,0.01,0,0.03,0,0.05c0,0.01-0.01,0.01-0.02,0.01
		c0.01,0.01,0.06,0.04,0.06,0.06c0,0,0,0,0,0l0.02,0.01l0.02,0c0,0,0.05,0.01,0.05,0.01c0.01,0,0.05,0.01,0.05,0.01l0.01,0.01
		c0,0,0,0,0,0.01c0,0.02-0.03,0.03-0.03,0.03L1.66,1.38l0.01,0.01c0,0.01,0.01,0.01,0.01,0.02c0,0.02-0.01,0.03-0.02,0.03
		c0,0,0,0.01,0,0.01c0,0.04-0.03,0.05-0.03,0.05C1.61,1.51,1.6,1.52,1.58,1.52c-0.03,0-0.05-0.01-0.07-0.02c0,0,0,0,0,0
		c0,0-0.08,0-0.09,0c-0.1-0.01-0.13-0.1-0.13-0.1C1.28,1.38,1.28,1.37,1.28,1.36c0-0.01,0-0.01,0-0.02L1.22,1.38c0,0,0,0,0,0.01
		c0.01,0.03,0.06,0.11,0.06,0.18v0c0,0,0,0,0,0.01c0,0.06,0.01,0.12,0.03,0.16c0.01,0.04,0.04,0.09,0.05,0.1l0,0
		c0.01,0,0.04,0.01,0.05,0.02c0,0.01,0.04,0.02,0.05,0.02c0.01,0,0.02,0.01,0.02,0.01c0.01,0,0.05,0.01,0.09,0.03
		c0-0.02,0-0.04,0-0.06c0-0.18,0.1-0.26,0.13-0.29c0-0.01-0.01-0.01-0.01-0.02c0-0.04,0.05-0.09,0.06-0.1c0-0.01,0,0,0.01-0.04
		c0.01-0.04,0.04-0.15,0.04-0.15C1.8,1.25,1.82,1.23,1.82,1.24C1.84,1.2,1.87,1.19,1.89,1.19c0,0,0.01,0,0.01,0
		c0.01,0,0.02-0.01,0.03-0.01c0.01,0,0.01,0,0.01,0c0.01,0,0.04-0.02,0.06-0.02c0,0,0,0,0,0c0,0,0.04,0,0.05,0.02
		c0,0,0.03,0.01,0.04,0.03c-0.01,0,0.03,0,0.03,0.04v0c0.01,0,0.01,0.01,0.02,0.02c0.01,0,0.01,0.01,0.02,0.02
		c0.01-0.02,0.03-0.06,0.03-0.07c0,0,0.03-0.04,0.03-0.11c0-0.04-0.01-0.08-0.03-0.13v0c0,0-0.01,0.01-0.02,0.01
		C2.16,1.03,2.15,1.04,2.15,1.03v0c0,0,0,0,0,0C2.15,1.05,2.14,1.05,2.13,1.05C2.12,1.06,2.1,1.07,2.09,1.07
		C2.08,1.09,2.05,1.09,2.02,1.1C2.01,1.11,2,1.12,1.98,1.12c-0.03,0-0.05-0.01-0.05-0.01c0,0-0.05-0.05-0.06-0.06c0,0,0,0,0,0
		c0,0.01-0.01,0.01-0.03,0.01h0c-0.03,0-0.04-0.02-0.04-0.03c0,0,0,0,0-0.01C1.8,1,1.82,1,1.82,0.99c0,0,0.04-0.02,0.08-0.03
		c0,0,0.01,0,0.01,0c0-0.01,0-0.06,0.02-0.07c0.01-0.01,0.03-0.02,0.05-0.03c0-0.01-0.01-0.02-0.01-0.04C1.97,0.8,1.98,0.77,2,0.74
		c0.05-0.06,0.07-0.07,0.09-0.07c0.02,0,0.05-0.01,0.06-0.01c0.01-0.01,0.04-0.02,0.08-0.02c0.02,0,0.04,0,0.06,0.01
		C2.3,0.63,2.32,0.62,2.33,0.61C2.34,0.6,2.4,0.58,2.41,0.58c0,0,0.01,0,0.02,0c0.03,0,0.08,0,0.11,0.04c0.01,0,0.05,0.01,0.07,0.04
		c0.01,0.03,0.04,0.07,0.04,0.1c0,0,0,0,0,0c0,0.02-0.01,0.03-0.01,0.03h0l0,0c0,0,0,0,0,0.01c0,0.01,0,0.05-0.01,0.06
		c0.02,0.01,0.14,0.06,0.22,0.19c0,0,0.03,0.05,0.03,0.08c0,0.01,0,0.01,0,0.01c0,0,0,0,0,0v0v0C2.91,1.18,2.93,1.2,2.93,1.21
		c0.03,0,0.06-0.01,0.08-0.01c0.03,0,0.06,0,0.09,0.01c0,0,0,0,0,0c0.01,0,0.01,0,0.02,0c0.03,0,0.05,0.01,0.05,0.01
		c0,0,0.01,0,0.02,0c0.01,0,0.01,0,0.02,0c0.03,0,0.08,0,0.14,0.04l0.06-0.02c0.01,0,0.02,0,0.03,0c0.1,0,0.15,0.09,0.15,0.15
		c0,0.03-0.02,0.06-0.04,0.09c0,0,0,0,0,0C3.6,1.58,3.62,1.71,3.64,1.9c0.01,0.06,0.01,0.12,0.01,0.18c0,0.27-0.07,0.5-0.09,0.6
		C3.56,2.7,3.56,2.73,3.56,2.75c0,0.1,0.04,0.2,0.07,0.21c0,0,0.01,0.01,0.01,0.01c0,0,0,0.01-0.01,0.01c0,0-0.17,0.02-0.27,0.02
		C3.35,3,3.35,3,3.34,3c-0.04,0-0.04,0-0.08,0C3.14,2.99,3.02,2.98,2.98,2.98c0,0,0,0.01,0,0c0,0,0.04,0.06,0.05,0.09v0v0
		c0,0.03-0.03,0.05-0.04,0.06C2.97,3.13,2.95,3.14,2.94,3.14c-0.01,0-0.02,0.01-0.03,0.01c-0.01,0-0.02,0-0.02,0
		c-0.01,0-0.04-0.01-0.04-0.01c-0.01,0-0.02,0-0.04,0c0,0-0.01,0-0.01,0C2.76,3.13,2.76,3.1,2.76,3.08c0,0,0-0.01,0-0.01
		c0-0.01,0-0.02,0-0.03C2.77,3.02,2.78,3.01,2.78,3c0-0.01,0.01-0.02,0.01-0.03c0,0,0,0,0,0C2.75,2.96,2.73,2.94,2.7,2.83L2.68,2.76
		C2.66,2.71,2.65,2.67,2.65,2.64c0-0.07,0.03-0.12,0.03-0.14C2.7,2.47,2.76,2.35,2.76,2.35L2.8,2.27l0-0.01c-0.01,0-0.04,0-0.08,0
		c0,0,0,0,0,0C2.7,2.42,2.66,2.48,2.66,2.48c0,0-0.07,0.11-0.09,0.13c0,0-0.01,0.03-0.01,0.04c0,0.01,0,0.01,0,0.02l0,0h0v0
		c0,0.01-0.01,0.04-0.01,0.04c0,0,0,0,0,0c0,0.01,0.01,0.04,0.02,0.05C2.59,2.77,2.61,2.78,2.62,2.8c0,0,0,0.01,0,0.01
		c0,0.02-0.02,0.04-0.04,0.05C2.57,2.87,2.54,2.87,2.51,2.88c-0.02,0-0.04,0-0.06,0c-0.04,0-0.05-0.04-0.05-0.05
		c0-0.01,0-0.01,0-0.01c0,0,0.02-0.06,0.02-0.07c0,0,0-0.01,0-0.03c0-0.01,0-0.02,0-0.03c0,0,0,0,0,0c0-0.02,0.02-0.06,0.04-0.09
		c0.01-0.01,0.01-0.04,0.01-0.06c0-0.01,0-0.02,0-0.03c0,0,0-0.01,0-0.02c0-0.03,0-0.1,0-0.15l0,0C2.41,2.46,2.3,2.58,2.3,2.59
		C2.3,2.6,2.3,2.61,2.3,2.62c0,0.02,0,0.04,0.01,0.09c0,0.01,0,0.02,0,0.03c0,0.04-0.01,0.06-0.03,0.08l0,0c0,0,0,0,0,0l0.03,0.23
		l0.05-0.01L2.68,3.1c0,0,0.01,0,0.01,0.01c0,0,0,0,0,0l0,0v0.08c0,0,0,0.01-0.01,0.01L2.13,3.36L2.13,3.36z M2.14,3.34l0.53-0.16
		V3.13L2.14,3.28V3.34z M1.84,3.24l0.28,0.09l0-0.06L1.84,3.19V3.24z M2.13,3.26l0.51-0.15L2.37,3.06L2.32,3.07l0.01,0.08
		c0,0,0,0.01-0.01,0.01c0,0-0.01,0-0.01-0.01L2.29,3.08L2.17,3.1L2.14,3.2c0,0-0.01,0.01-0.01,0.01c-0.01,0-0.01-0.01-0.01-0.01
		l0.02-0.08L1.87,3.18L2.13,3.26z M0.91,2.98c0.01,0,0.05,0.01,0.06,0.02C0.98,3.01,1.1,3.11,1.12,3.12
		c0.03,0.01,0.13,0.07,0.17,0.08C1.34,3.2,1.43,3.22,1.47,3.23c0.02,0.01,0.05,0.01,0.08,0.01c0.03,0,0.05-0.01,0.07-0.02
		c0.04-0.04,0.05-0.04,0.05-0.06c0-0.01,0.01-0.04,0.01-0.07c0-0.02,0-0.04-0.01-0.06C1.64,3,1.63,2.99,1.62,2.98
		c0,0,0,0.01-0.01,0.01C1.59,3.05,1.57,3.14,1.41,3.14c0,0-0.01,0-0.01,0c0.03,0.01,0.06,0.03,0.07,0.04c0,0,0,0.01,0,0.01
		c0,0-0.01,0-0.01,0C1.45,3.18,1.38,3.15,1.34,3.13c-0.01,0-0.02-0.01-0.02-0.01C1.3,3.11,1.1,3.04,1.01,2.99
		C0.92,2.95,0.85,2.87,0.77,2.81c0,0-0.01,0.01-0.01,0.03c0,0.02,0,0.06-0.02,0.1C0.73,2.96,0.7,3.04,0.7,3.05c0,0,0,0,0,0
		c0,0.01,0.04,0.08,0.05,0.1h0c0,0,0,0,0,0c0,0,0,0,0.01,0.01l0,0c0,0,0.02,0,0.02,0c0,0,0,0,0,0c0,0,0,0,0,0c0,0,0.01,0,0.02,0h0
		c0,0,0.01,0,0.01,0c0,0,0-0.01,0.01-0.02c0,0,0,0,0,0c0,0,0,0,0.01-0.01c0,0,0,0,0-0.01c-0.01,0-0.02-0.01-0.02-0.01
		c0,0-0.02,0-0.03-0.02c0-0.01-0.01-0.01-0.01-0.02c0,0,0-0.01,0-0.01C0.78,3.05,0.79,3.04,0.8,3.04C0.8,3.03,0.88,2.98,0.91,2.98
		C0.9,2.98,0.9,2.98,0.91,2.98C0.91,2.98,0.91,2.98,0.91,2.98C0.91,2.98,0.91,2.98,0.91,2.98 M2.85,3.12c0,0,0.03,0.01,0.04,0.01
		c0.01,0,0.01,0,0.02,0c0.01,0,0.01,0,0.02,0c0.01-0.01,0.03-0.02,0.04-0.02C2.98,3.1,3,3.08,3,3.07c0,0,0,0,0,0
		c0-0.01-0.04-0.07-0.04-0.08c0,0,0-0.01-0.01-0.02c0-0.02-0.01-0.04-0.01-0.07c0-0.02,0-0.03,0.01-0.05
		c0.02-0.04,0.23-0.33,0.23-0.54c0,0,0,0,0-0.01C3.18,2.31,3.17,2.31,3.16,2.32C3.13,2.37,3,2.48,2.9,2.56c0,0,0,0,0,0
		c0,0-0.02,0.18-0.04,0.24c-0.02,0.05-0.04,0.1-0.04,0.11H2.82l0.01,0l0,0c0,0.02-0.02,0.08-0.02,0.09c0,0.01-0.01,0.02-0.02,0.04
		c0,0.01,0,0.01,0,0.02c0,0,0,0,0,0.01c0,0.03,0.01,0.05,0.02,0.05c0,0,0.01,0,0.01,0C2.82,3.12,2.85,3.12,2.85,3.12L2.85,3.12z
		 M1.35,3.11l0.04,0c0.01,0,0.01,0,0.02,0c0.15,0,0.15-0.07,0.19-0.13c0-0.01,0.01-0.02,0.01-0.02c0,0,0-0.01,0-0.01
		c0-0.01,0-0.01,0-0.02c0-0.03-0.02-0.05-0.02-0.07c0-0.01-0.01-0.04-0.02-0.08C1.55,2.73,1.52,2.65,1.52,2.63
		c0-0.02-0.04-0.1-0.04-0.11c-0.05,0-0.08-0.03-0.09-0.04C1.38,2.5,1.38,2.5,1.38,2.5L1.35,2.56c0,0-0.04,0.09-0.04,0.11h0v0
		c0,0,0,0,0,0c0,0,0,0.01,0.01,0.01c0.01,0,0.02,0,0.02,0.01c0.02,0,0.05,0.03,0.06,0.03c0,0.01,0.03,0.02,0.03,0.03
		c0,0,0.01,0.01,0.01,0.01c0.01,0.01,0.03,0.02,0.03,0.02c0,0,0.04,0.05,0.05,0.06c0,0,0.01,0.01,0.01,0.02c0,0,0,0.01,0,0.01
		C1.51,2.88,1.5,2.88,1.5,2.88l-0.01,0L1.44,2.84l-0.01,0c0.01,0.01,0.02,0.03,0.02,0.03c0,0,0.01,0.03,0.02,0.05c0,0,0,0.01,0,0.01
		c0,0.01-0.01,0.02-0.02,0.02c0,0,0,0-0.01,0c-0.02,0-0.02-0.01-0.02-0.02L1.4,2.9L1.39,2.89L1.4,2.92c0,0,0.01,0.03,0.01,0.03
		c0,0,0,0,0,0.01c0,0.01-0.01,0.02-0.01,0.02c0,0-0.01,0-0.01,0c-0.01,0-0.02,0-0.02-0.01l0,0L1.34,2.9
		C1.33,2.92,1.31,2.92,1.3,2.93c0,0-0.01,0-0.01,0.01c0,0-0.01,0.01-0.01,0.01c-0.01,0-0.01,0-0.01,0c-0.01,0-0.01-0.01-0.01-0.02
		c0-0.01,0-0.01,0-0.02c0.01-0.01,0.02-0.01,0.02-0.02c0,0,0-0.02-0.01-0.02c0,0,0,0,0,0c0,0-0.01-0.01-0.01-0.01
		C1.25,2.85,1.24,2.84,1.24,2.84c0,0-0.03-0.03-0.03-0.03C1.18,2.79,1.17,2.74,1.16,2.68C1.13,2.71,1.08,2.71,1.03,2.71
		c-0.04,0-0.08,0-0.12-0.01c-0.08,0-0.15-0.04-0.18-0.07c0,0.01,0,0.02,0,0.03c0,0.04,0.01,0.09,0.05,0.12c0,0,0,0,0,0
		c0.08,0.07,0.14,0.14,0.23,0.18C1.1,3.02,1.3,3.1,1.33,3.1C1.33,3.11,1.34,3.11,1.35,3.11L1.35,3.11C1.35,3.11,1.35,3.11,1.35,3.11
		 M2.17,2.96L2.16,3.09l0,0l0.07-0.18c0,0,0-0.01,0.01-0.01c0,0,0.01,0,0.01,0.01L2.3,3.06l0,0L2.26,2.82l0-0.03
		c-0.01,0-0.03,0.01-0.03,0.02C2.21,2.84,2.19,2.9,2.19,2.92C2.19,2.94,2.18,2.95,2.17,2.96C2.17,2.96,2.17,2.96,2.17,2.96
		 M2.18,3.08l0.1-0.02L2.24,2.94L2.18,3.08z M3.26,2.97c0.04,0,0.04,0,0.08,0c0.01,0,0.01,0,0.02,0c0.01,0,0.02,0,0.03,0
		C3.33,2.95,3.24,2.87,3.24,2.67c0-0.01,0-0.01,0.01-0.01c0.01,0,0.01,0,0.01,0.01c0.01,0.28,0.17,0.3,0.17,0.3c0,0,0,0,0,0
		c0.06,0,0.13-0.01,0.16-0.01C3.56,2.93,3.54,2.84,3.54,2.75c0-0.03,0-0.05,0.01-0.08c0.02-0.1,0.09-0.32,0.09-0.59
		c0-0.06,0-0.12-0.01-0.18C3.6,1.72,3.58,1.59,3.54,1.5C3.53,1.52,3.51,1.54,3.51,1.54L3.43,1.6C3.4,1.65,3.31,1.69,3.29,1.71
		C3.27,1.73,3.25,1.73,3.23,1.74l0,0L3.16,2.02c0,0.01-0.01,0.01-0.01,0.01c-0.01,0-0.01-0.01-0.01-0.01l0.07-0.28
		c0,0-0.01,0-0.01,0c-0.01,0-0.02,0-0.03,0C2.88,2.08,2.81,2.5,2.8,2.62C2.8,2.62,2.81,2.61,2.81,2.6c0.01-0.01,0.04-0.03,0.07-0.06
		c0.09-0.07,0.23-0.19,0.27-0.24C3.16,2.3,3.17,2.29,3.18,2.28l0,0C3.22,2.25,3.27,2.25,3.3,2.25c0.01,0,0.02,0,0.02,0
		c0.01,0,0.01,0.01,0.01,0.01c0,0.01-0.01,0.01-0.01,0.01c0,0-0.01,0-0.02,0c-0.02,0-0.07,0-0.1,0.02c0,0.01,0,0.01,0,0.02
		c0,0.22-0.21,0.51-0.23,0.55c0,0.01-0.01,0.02-0.01,0.04c0,0.02,0,0.04,0.01,0.06c0,0,0,0,0,0v0c0,0,0,0,0.01,0c0,0,0.01,0,0.02,0
		c0.02,0,0.04,0,0.07,0c0.02,0,0.05,0,0.08,0C3.09,2.94,3.04,2.88,3.04,2.88c0,0,0-0.01,0-0.01c0,0,0.01,0,0.01,0
		c0,0,0.08,0.09,0.15,0.11c0,0,0,0,0,0C3.22,2.97,3.24,2.97,3.26,2.97 M1.39,2.96C1.39,2.96,1.39,2.96,1.39,2.96
		C1.39,2.96,1.39,2.96,1.39,2.96L1.39,2.96L1.39,2.96L1.39,2.96c0-0.01,0-0.04,0-0.04L1.37,2.88L1.36,2.86L1.35,2.83
		c0,0,0-0.01,0-0.01c0,0,0,0,0.01,0c0,0,0.01,0,0.01,0l0.05,0.06l0.02,0.04c0,0,0,0,0,0c0,0,0,0,0,0c0.01,0,0.01,0,0.01,0
		c0,0,0,0,0-0.01C1.45,2.9,1.43,2.87,1.43,2.87c0,0-0.02-0.04-0.04-0.05c0,0,0-0.01,0-0.01c0,0,0.01-0.01,0.01,0l0.04,0.02L1.5,2.86
		c0,0,0,0,0,0c0,0,0,0,0,0c0-0.01-0.05-0.06-0.05-0.06c0,0-0.02-0.01-0.03-0.02c0,0-0.01-0.01-0.01-0.02c0,0,0,0,0,0
		c0,0-0.01-0.01-0.01-0.01C1.4,2.74,1.39,2.74,1.39,2.73c0,0-0.04-0.03-0.05-0.03c-0.01,0-0.05,0-0.05-0.03c0,0,0,0,0,0
		c0-0.02,0.04-0.12,0.04-0.12l0.03-0.06c0,0,0-0.01,0.01-0.02C1.38,2.44,1.41,2.4,1.41,2.38c0,0,0-0.01,0.01-0.01
		c0,0,0.07-0.01,0.06-0.03c0-0.01,0-0.02,0-0.02c0-0.03-0.01-0.06-0.17-0.12C1.3,2.2,1.26,2.24,1.23,2.29
		C1.22,2.32,1.2,2.36,1.19,2.4C1.18,2.43,1.18,2.48,1.18,2.52c0,0.01,0,0.01,0,0.02c0,0.04,0,0.08,0.01,0.12c0,0,0,0,0,0.01
		c0,0.06,0.02,0.12,0.04,0.13c0,0,0.03,0.03,0.03,0.03c0,0,0.03,0.02,0.04,0.03c0,0.01,0.01,0.02,0.01,0.03c0,0,0,0.01,0,0.01
		C1.29,2.9,1.28,2.91,1.27,2.91c0,0,0,0,0,0c0,0,0,0,0,0.01c0,0,0,0,0,0C1.28,2.91,1.29,2.91,1.3,2.91c0,0,0.01,0,0.02-0.01
		c0.01,0,0.01-0.01,0.01-0.01c0-0.01,0-0.02,0-0.02c0,0,0,0,0,0l0,0c0,0,0,0,0,0l0,0l0,0c0,0,0.01-0.01,0.01-0.01
		c0,0,0.01,0,0.01,0.01L1.39,2.96C1.39,2.96,1.39,2.96,1.39,2.96 M2.15,2.93c0,0.01,0,0.01,0,0.02c0-0.01,0.01-0.02,0.01-0.03
		c0.01-0.02,0.02-0.08,0.04-0.11c0.02-0.03,0.06-0.03,0.06-0.03c0.01,0,0.01,0,0.01,0.01l0,0.01C2.29,2.78,2.3,2.76,2.3,2.74
		c0-0.01,0-0.02,0-0.03C2.28,2.67,2.28,2.64,2.28,2.62c0-0.02,0-0.03,0.01-0.04c0.01-0.02,0.11-0.14,0.17-0.26
		C2.46,2.31,2.47,2.3,2.48,2.29c0.02-0.05,0.04-0.1,0.04-0.14c0,0,0-0.01,0-0.01l0,0l0.06-0.12c-0.01,0-0.02,0.01-0.02,0.01
		L2.37,2.04v0c0,0-0.01,0.05-0.03,0.06C2.33,2.1,2.31,2.12,2.28,2.2C2.26,2.24,2.25,2.29,2.24,2.37c0,0-0.02,0.06-0.03,0.12
		c-0.02,0.05-0.03,0.1-0.04,0.12c-0.02,0.04-0.05,0.08-0.04,0.1c0,0.01,0,0.02,0,0.03c0,0.01,0,0.02,0,0.03c0,0,0,0,0,0c0,0,0,0,0,0
		c0,0.01,0.01,0.01,0.01,0.02l0,0.01L2.15,2.93L2.15,2.93z M2.85,1.75c0.01,0,0.01,0.01,0.01,0.01c0,0.02-0.03,0.12-0.03,0.14
		c0,0.01,0,0.02,0,0.03c0,0.01,0,0.02,0.01,0.03c0.01,0.03,0.02,0.08,0.02,0.12c0,0,0,0,0,0.01c0,0.03-0.02,0.1-0.03,0.15
		c0,0.01,0,0.01,0,0.02L2.81,2.28L2.78,2.36c0,0-0.06,0.12-0.07,0.15C2.7,2.52,2.67,2.57,2.67,2.64c0,0.03,0.01,0.07,0.02,0.11
		l0.02,0.07c0.04,0.11,0.04,0.11,0.08,0.12c0,0,0,0,0,0c0-0.01,0.01-0.03,0.01-0.04c0,0,0,0,0,0c0,0,0,0,0,0
		c0-0.03,0.02-0.07,0.04-0.12c0.02-0.04,0.03-0.17,0.04-0.22C2.86,2.59,2.84,2.61,2.82,2.62c0,0-0.03,0.05-0.03,0.05
		c0,0-0.01,0.01-0.01,0c0,0-0.01-0.01-0.01-0.01c0,0,0.03-0.52,0.37-0.92c-0.1-0.03-0.19-0.12-0.23-0.17c0,0,0,0.01,0,0.01
		c0,0-0.02,0.09-0.1,0.12c0,0-0.02,0.01-0.03,0.01C2.77,1.75,2.75,1.8,2.75,1.8C2.74,1.81,2.74,1.82,2.73,1.83c0,0,0,0,0,0
		c0,0-0.07,0.11-0.09,0.14C2.63,1.98,2.61,1.99,2.6,2c0,0,0,0,0,0.01l0,0L2.54,2.13c0,0,0,0.01,0,0.01c0,0.04-0.01,0.09-0.04,0.14
		c0.08-0.02,0.15-0.03,0.2-0.03h0c0.05,0,0.09-0.01,0.1-0.01c0,0,0-0.01,0-0.01c0.01-0.04,0.02-0.12,0.02-0.14c0,0,0,0,0-0.01
		c0-0.03-0.01-0.09-0.02-0.11C2.8,1.96,2.8,1.94,2.8,1.93c0-0.01,0-0.02,0-0.03c0-0.02,0.03-0.12,0.03-0.14v0
		C2.83,1.76,2.84,1.75,2.85,1.75C2.84,1.75,2.84,1.75,2.85,1.75 M2.42,2.82c0,0.01,0,0.03,0.03,0.04c0.02,0,0.04,0,0.06,0
		c0.03,0,0.05,0,0.06-0.01C2.59,2.84,2.6,2.82,2.6,2.81c0,0,0,0,0,0c0-0.01-0.02-0.02-0.03-0.04C2.56,2.76,2.55,2.73,2.55,2.71
		c0,0,0-0.01,0-0.01c0,0,0.01-0.02,0.01-0.03v0c0,0,0-0.01,0-0.02c0-0.02,0-0.04,0.01-0.05c0.01-0.01,0.08-0.13,0.08-0.13
		c0,0,0.03-0.05,0.05-0.2C2.64,2.27,2.57,2.28,2.49,2.3c0,0.02,0,0.14,0,0.18c0,0.01,0,0.01,0,0.02c0,0.01,0,0.02,0,0.03
		c0,0.02,0,0.06-0.02,0.08C2.46,2.62,2.45,2.67,2.45,2.68c0,0,0,0,0,0c0,0.01,0,0.02,0,0.03c0,0.01,0,0.02,0,0.03
		C2.44,2.75,2.42,2.81,2.42,2.82C2.42,2.81,2.42,2.81,2.42,2.82 M0.7,2.52c0,0,0.01,0.06,0.03,0.08c0,0,0,0,0.01,0.01
		c0.03,0.03,0.1,0.07,0.18,0.08c0.04,0,0.08,0.01,0.12,0.01c0.05,0,0.1-0.01,0.13-0.03c0-0.04,0-0.08-0.01-0.12
		c0-0.01,0-0.01,0-0.02c0-0.04,0.01-0.08,0.01-0.12c0,0,0,0,0,0C1.12,2.37,1.03,2.28,0.99,2.23C0.98,2.24,0.95,2.25,0.92,2.27
		C0.91,2.28,0.89,2.29,0.88,2.3C0.86,2.33,0.84,2.36,0.84,2.38c0,0,0,0.01,0,0.01v0c0,0.02,0.02,0.05,0.03,0.05c0,0,0,0,0,0
		c0.02,0,0.03,0,0.04,0.02c0.01,0.02,0.03,0.08,0.03,0.08C0.95,2.55,1.01,2.6,1.01,2.6c0,0,0,0.01,0,0.01c0,0-0.01,0-0.01,0
		c0,0-0.06-0.05-0.07-0.06C0.91,2.54,0.91,2.49,0.9,2.48c0,0-0.02-0.01-0.04-0.01c-0.03,0-0.05,0-0.07,0v0h0l0,0
		C0.78,2.47,0.72,2.5,0.7,2.52C0.7,2.52,0.7,2.52,0.7,2.52 M0.57,2.41c0,0.02-0.01,0.05-0.01,0.07c0,0.04,0.01,0.07,0.06,0.07h0
		c0.01,0,0.04-0.02,0.05-0.04c0,0,0,0,0.01-0.01C0.7,2.49,0.77,2.45,0.79,2.45h0c0,0,0,0,0,0c0,0,0,0,0,0c0,0,0.03,0,0.05,0
		C0.83,2.43,0.81,2.42,0.81,2.39c0,0,0,0,0,0c0,0,0,0,0,0c0,0-0.02-0.01-0.03-0.02C0.76,2.36,0.75,2.34,0.75,2.35
		c-0.01,0-0.02,0-0.04-0.01c-0.02,0-0.03,0-0.04,0c0,0,0,0,0,0c0,0,0,0-0.01,0C0.63,2.34,0.57,2.38,0.57,2.41 M2.14,2.53
		C2.14,2.53,2.14,2.53,2.14,2.53c0.01,0.01,0.01,0.01,0.01,0.01c0,0,0,0,0.01-0.01l0.02-0.03l0.02-0.03c0,0,0,0,0,0
		c0.02-0.06,0.03-0.11,0.03-0.11C2.23,2.3,2.24,2.24,2.26,2.2c0,0-0.01,0-0.02,0c-0.01,0-0.02,0-0.04,0.02
		C2.18,2.24,2.17,2.25,2.17,2.25C2.14,2.29,2.14,2.28,2.14,2.29c0,0.01-0.02,0.06-0.02,0.07H2.11l0.01,0c0,0,0,0,0,0c0,0,0,0,0,0v0
		c0,0,0,0,0,0c0,0.01,0,0.02-0.01,0.03c-0.01,0-0.02,0.02-0.03,0.02c0,0-0.01,0-0.01,0c0,0-0.01-0.01-0.01-0.02
		C2.05,2.38,2.04,2.38,2.04,2.38c0,0,0,0-0.01,0c0,0,0,0,0,0c0,0.01-0.01,0.02-0.02,0.02c0,0,0,0,0.01,0.01l0.03,0.03
		c0,0,0.03,0.02,0.04,0.02c0,0,0.01,0,0.01,0c0.01,0,0.03,0,0.04-0.02c0,0,0,0,0,0c0-0.01,0-0.02,0-0.03
		C2.14,2.4,2.14,2.38,2.14,2.37c0-0.01,0-0.02,0-0.03v0c0-0.01,0.01-0.01,0.01-0.01c0.01,0,0.01,0.01,0.01,0.01
		c0,0.01,0,0.02,0,0.03c0,0.01,0,0.02,0.01,0.02c0,0,0.01,0,0.01-0.01c0-0.03,0.01-0.04,0.02-0.04c0-0.01,0.01-0.01,0.01-0.01
		c0.01,0,0.01,0.01,0.01,0.01c0,0.01-0.01,0.02-0.01,0.04c0,0.02-0.02,0.03-0.03,0.03c0,0.01,0,0.02,0,0.03
		c0,0.02-0.01,0.03-0.01,0.04C2.15,2.49,2.14,2.52,2.14,2.53L2.14,2.53L2.14,2.53z M1.48,2.5C1.48,2.5,1.48,2.5,1.48,2.5L1.48,2.5
		c0.08-0.01,0.13-0.05,0.15-0.09c0.01-0.03,0.03-0.06,0.03-0.09c0-0.04-0.02-0.09-0.06-0.15c0,0,0-0.01,0-0.01c0,0,0.01,0,0.01,0
		c0.05,0.06,0.07,0.12,0.07,0.16c0,0.03-0.01,0.06-0.02,0.09c0.08-0.02,0.1-0.13,0.1-0.17v0c0,0-0.01-0.04-0.01-0.04
		c0,0-0.01-0.04-0.02-0.07c0-0.01-0.1-0.15-0.11-0.16l0,0c0,0-0.01-0.01-0.01-0.01l0,0C1.57,1.94,1.5,1.92,1.47,1.91
		c0,0.01-0.01,0.01-0.02,0.01c-0.01,0-0.03,0.01-0.04,0.01c-0.02,0-0.03,0-0.03,0c0,0,0,0-0.01,0c0,0-0.01,0-0.01,0h0
		c0,0-0.01,0-0.01,0.01c-0.01,0-0.02,0.01-0.02,0.01c0,0.01-0.01,0.02-0.01,0.03c0,0.01-0.01,0.03-0.01,0.04
		c0,0.01,0,0.03-0.01,0.04c0,0-0.02,0.01-0.03,0.02c0,0-0.01,0-0.02,0c-0.01,0-0.02,0-0.03-0.01C1.22,2.04,1.2,2.02,1.2,2.02
		c0,0,0,0,0,0L1.1,2.05c0,0-0.1,0.02-0.12,0.03c-0.02,0-0.11,0.03-0.1,0.06c0,0,0,0,0,0c0,0.01,0,0.02,0,0.02c0,0.01,0,0.02,0,0.03
		c0,0.02,0,0.02,0.01,0.03C0.9,2.24,0.91,2.25,0.92,2.25c0.02-0.01,0.04-0.03,0.06-0.03C0.97,2.21,0.96,2.2,0.96,2.2
		c0,0,0-0.01,0-0.01c0,0,0.01,0,0.01,0c0,0,0.01,0.01,0.02,0.02c0.04,0.04,0.14,0.14,0.18,0.17c0.01-0.04,0.02-0.07,0.04-0.1
		c0.03-0.06,0.09-0.11,0.09-0.11l0.01,0C1.47,2.23,1.5,2.28,1.5,2.32c0,0.01,0,0.02,0,0.03C1.49,2.38,1.44,2.39,1.42,2.39
		c0,0.02-0.02,0.05-0.03,0.08c0,0,0,0,0,0C1.4,2.47,1.42,2.5,1.48,2.5 M0.75,2.33c0.01,0,0.06,0.03,0.07,0.04
		c0.01-0.03,0.03-0.05,0.05-0.08C0.88,2.28,0.89,2.27,0.9,2.26c-0.01,0-0.02-0.01-0.03-0.02C0.86,2.23,0.86,2.22,0.86,2.2
		c0-0.01,0-0.02,0-0.03c0-0.01,0-0.01,0-0.02c0,0,0,0,0,0c0-0.06,0.1-0.08,0.12-0.08C1,2.06,1.1,2.04,1.1,2.04L1.18,2
		C1.18,1.99,1.17,1.98,1.17,1.96c0,0,0-0.01,0-0.01C1.18,1.91,1.2,1.88,1.2,1.88v0c0,0-0.03-0.09-0.03-0.1c0,0-0.05-0.07-0.06-0.09
		C1.09,1.68,1.06,1.65,1.04,1.57c-0.03,0-0.11,0.02-0.22,0.02c-0.02,0-0.05,0-0.07,0C0.75,1.59,0.69,1.65,0.69,1.74
		c0,0.1,0.03,0.24,0.03,0.28H0.71l0.01,0c0,0.02-0.01,0.07-0.02,0.13c0,0.02-0.01,0.05-0.01,0.08c0,0.03,0,0.06,0.02,0.09
		c0,0,0,0,0,0C0.73,2.32,0.74,2.33,0.75,2.33 M2.12,2.36C2.12,2.36,2.12,2.36,2.12,2.36L2.12,2.36L2.12,2.36z M2.1,2.36
		C2.1,2.36,2.1,2.36,2.1,2.36L2.1,2.36z M0.63,1.57c0,0-0.08,0.06-0.08,0.2v0c0,0.06,0,0.13,0,0.19c0,0.09-0.01,0.18-0.04,0.24
		c0,0.01-0.01,0.02-0.01,0.02c0,0-0.02,0.03-0.02,0.04c0,0,0,0,0.01,0c0.04,0,0.06,0,0.08,0.02C0.57,2.3,0.58,2.31,0.58,2.31
		c0,0,0.02,0,0.05,0c0.01,0,0.01,0,0.02,0c0,0,0,0,0.01,0c0,0,0,0,0,0h0c0.01,0,0.02,0,0.03,0C0.67,2.29,0.67,2.25,0.67,2.23
		c0-0.04,0.01-0.07,0.01-0.09C0.69,2.09,0.7,2.04,0.7,2.02c0,0,0,0,0,0c0-0.03-0.03-0.18-0.03-0.28c0-0.08,0.04-0.13,0.05-0.16
		C0.69,1.58,0.66,1.58,0.63,1.57C0.63,1.57,0.63,1.57,0.63,1.57 M0.38,2.24c0.01,0,0.02,0.01,0.03,0.01c0.01,0,0.03,0.01,0.04,0.01
		c0-0.02,0.02-0.04,0.02-0.04c0-0.01,0.01-0.01,0.01-0.02c0.03-0.06,0.04-0.14,0.04-0.23c0-0.07,0-0.14,0-0.19c0,0,0,0,0,0
		c0-0.12,0.05-0.18,0.08-0.2c-0.01,0-0.03-0.01-0.04-0.01C0.56,1.56,0.49,1.63,0.49,1.75L0.47,2.03c0,0,0,0,0,0.01
		c0,0.01,0,0.02-0.02,0.06c0,0-0.02,0.05-0.04,0.08C0.4,2.2,0.4,2.2,0.4,2.2C0.39,2.21,0.38,2.23,0.37,2.24c0,0,0,0,0,0L0.38,2.24
		C0.37,2.24,0.38,2.24,0.38,2.24 M0.5,1.57C0.48,1.6,0.46,1.64,0.45,1.73c0,0-0.01,0.16-0.03,0.23C0.38,2.05,0.29,2.14,0.29,2.14
		c0,0-0.01,0.01-0.01,0.02c0,0.01,0,0.01,0.01,0.02l0.06,0.04c0,0,0,0,0,0c0,0,0.02-0.02,0.02-0.03c0,0,0-0.01,0.01-0.03
		c0.01-0.03,0.04-0.08,0.04-0.08c0.01-0.04,0.02-0.05,0.02-0.06h0l0,0l0.02-0.28c0-0.11,0.05-0.18,0.07-0.2
		c-0.01,0-0.01,0-0.02-0.01C0.52,1.55,0.51,1.55,0.5,1.57 M1.95,2.15C1.95,2.15,1.95,2.16,1.95,2.15C1.95,2.16,1.95,2.15,1.95,2.15
		C1.94,2.15,1.95,2.15,1.95,2.15 M1.64,1.97c0,0,0.07,0.1,0.1,0.15l0.13-0.03C1.9,2.07,1.91,2.06,1.91,2.05
		c0.01-0.02,0.03-0.01,0.04-0.02C1.95,2.03,1.99,2.01,2,2C2,2,2.01,2,2.02,2c0.01,0,0.01,0,0.01,0c0.01,0,0.02,0.01,0.02,0.02
		c0.01,0,0.01,0,0.02,0c0.01,0,0.02,0,0.02,0c0.02-0.01,0.02-0.02,0.02-0.03c0-0.01,0-0.02,0-0.03c0-0.01-0.04-0.04-0.04-0.04
		c0,0,0,0,0-0.01c0,0,0-0.01,0-0.01c0.01-0.01,0.01-0.01,0.01-0.02c0-0.01-0.01-0.02-0.01-0.02l0,0C2.05,1.85,2.04,1.84,2.03,1.84
		c-0.01,0-0.01,0-0.02,0c-0.02,0-0.06-0.04-0.08-0.05c0,0-0.09-0.01-0.13-0.02c0,0,0,0-0.01,0c-0.03,0-0.05,0.03-0.06,0.04
		C1.72,1.82,1.71,1.83,1.69,1.83c0,0-0.03,0.02-0.03,0.03C1.65,1.87,1.64,1.88,1.64,1.88c0,0,0,0-0.01,0.01
		c-0.01,0-0.01,0.01-0.01,0.03c0,0.02,0,0.04,0,0.04c0,0,0,0,0,0C1.63,1.96,1.63,1.96,1.64,1.97C1.64,1.96,1.64,1.96,1.64,1.97
		 M1.15,0.91c0,0,0.01,0.01,0,0.01c0,0-0.07,0.11-0.08,0.16C1.06,1.11,1.05,1.17,1.05,1.19c0,0.01,0,0.02,0,0.02
		c0,0.01,0,0.09-0.01,0.16c0,0.01,0,0.02,0,0.03c0,0,0,0.01,0,0.01c0,0.03,0.01,0.05,0.01,0.05c0,0.04,0.01,0.07,0.02,0.1
		c0.02,0.08,0.05,0.11,0.06,0.13C1.13,1.7,1.18,1.77,1.18,1.78c0,0,0.04,0.09,0.04,0.11v0c0,0.02-0.02,0.04-0.02,0.07
		c0,0,0,0.01,0,0.01C1.19,1.98,1.2,1.99,1.2,2c0,0,0,0,0,0.01c0.01,0.01,0.02,0.02,0.03,0.03c0,0,0.01,0,0.02,0c0,0,0.01,0,0.01,0
		c0,0,0.02-0.01,0.03-0.01c0,0,0-0.01,0-0.02c0-0.01,0.01-0.04,0.01-0.04c0-0.01,0.01-0.02,0.01-0.03c0,0,0,0,0-0.01l0,0
		c0,0,0,0,0,0c0.01-0.01,0.03-0.01,0.03-0.02c0,0,0.01-0.01,0.02-0.01c0,0,0,0,0,0l0,0c0.01,0,0.02,0.01,0.02,0.01
		c0,0,0.01,0,0.02,0c0.01,0,0.02,0,0.03,0c0,0,0,0,0,0c0,0-0.01-0.01-0.01-0.01c-0.01,0-0.04-0.02-0.05-0.03
		c0-0.01-0.03-0.01-0.04-0.01C1.32,1.84,1.3,1.78,1.28,1.73C1.27,1.69,1.26,1.63,1.26,1.57c0,0,0,0,0,0c0,0,0,0,0,0
		c0-0.06-0.04-0.14-0.05-0.17c0-0.01,0-0.01-0.01-0.02c0,0,0-0.01,0-0.01c0-0.01,0.01-0.02,0.01-0.02c0.03-0.03,0.05-0.1,0.06-0.13
		C1.27,1.18,1.3,1.17,1.32,1.16c0.01,0,0.03-0.02,0.05-0.05C1.38,1.09,1.39,1.07,1.4,1.05C1.4,1.03,1.41,1.02,1.41,1
		c0-0.02,0-0.04-0.01-0.07C1.38,0.92,1.37,0.9,1.34,0.88C1.33,0.87,1.32,0.87,1.31,0.86C1.28,0.84,1.24,0.84,1.23,0.84c0,0,0,0,0,0
		C1.18,0.84,1,0.86,0.95,0.92C0.9,0.97,0.87,1.01,0.87,1.05c0,0.02,0.01,0.03,0.02,0.05c0.04,0.05,0.08,0.09,0.12,0.09
		c0.01,0,0.01,0,0.02,0h0c0,0,0,0,0,0c0-0.03,0.01-0.08,0.02-0.11c0.02-0.05,0.09-0.16,0.09-0.16C1.14,0.91,1.15,0.91,1.15,0.91
		C1.15,0.91,1.15,0.91,1.15,0.91 M2.37,1.81c-0.01,0-0.05,0.06-0.05,0.09c0,0,0,0.01,0,0.01C2.33,1.95,2.34,2,2.35,2.02l0.01,0
		l0.19-0.02c0,0,0.01,0,0.03-0.01c0.02-0.01,0.04-0.02,0.05-0.03c0.01-0.01,0.03-0.04,0.05-0.07C2.66,1.9,2.64,1.9,2.63,1.9
		C2.61,1.9,2.6,1.9,2.6,1.89c0,0-0.02-0.01-0.03-0.01L2.55,1.9c0,0-0.01,0-0.01,0c-0.04,0-0.05-0.06-0.05-0.07
		c0-0.01-0.02-0.01-0.02-0.01c-0.01,0-0.03,0-0.03-0.01c0,0-0.03-0.03-0.05-0.04C2.38,1.78,2.38,1.8,2.37,1.81 M2.54,1.88l0.02-0.02
		l0.01,0c0,0,0.01,0,0.02,0.01c0,0,0,0,0,0l0.02-0.01c0,0,0.01,0,0.01,0c0,0,0,0.01,0,0.01L2.61,1.88c0,0,0.01,0,0.02,0
		c0.02,0,0.05-0.01,0.08-0.06C2.72,1.81,2.72,1.8,2.73,1.79c0,0,0.02-0.05,0.04-0.1l0,0c0,0,0.02-0.01,0.03-0.02
		c0.06-0.02,0.08-0.11,0.08-0.11V1.56c0-0.01,0-0.01,0-0.02c0-0.01,0-0.01,0.01-0.01h0c0,0,0.01,0,0.01,0c0,0,0.12,0.16,0.25,0.18
		c0.01,0,0.02,0,0.04,0c0.02,0,0.04,0,0.07-0.02C3.08,1.65,3.02,1.57,3.02,1.49c0-0.11,0.1-0.22,0.14-0.25c-0.01,0-0.02,0-0.03,0
		c-0.01,0-0.03,0-0.05,0.01C2.97,1.29,2.9,1.48,2.9,1.48v0c0,0.01-0.01,0.01-0.01,0.01c-0.01,0-0.01,0-0.01-0.01
		c0-0.01,0.06-0.2,0.18-0.25c-0.02,0-0.03,0-0.05,0c-0.18,0-0.35,0.09-0.36,0.09C2.62,1.33,2.6,1.36,2.59,1.37c0,0,0.01,0,0.01,0
		c0.01,0,0.01,0,0.02,0c0,0,0.02,0.01,0.04,0.02c0.01,0,0.02,0.01,0.03,0.01c0.02,0,0.06,0.02,0.07,0.02c0.01,0,0.03,0,0.04,0.02
		c0,0,0,0,0,0c0,0.01,0,0.01-0.01,0.01c0.01,0,0.02,0.01,0.02,0.02c0,0,0,0,0,0c0,0.01-0.01,0.02-0.01,0.02v0l0,0
		c0,0,0.02,0.03,0.02,0.04c0,0.01,0,0.01,0,0.02c0,0.01,0,0.01-0.01,0.02c0,0,0,0-0.01,0c0,0,0,0.01,0,0.01c0,0.01,0,0.02-0.01,0.02
		c0,0-0.01,0.02-0.02,0.02c0,0-0.02,0.03-0.03,0.04C2.74,1.69,2.73,1.69,2.73,1.69l0,0C2.72,1.71,2.69,1.71,2.68,1.71c0,0,0,0,0,0
		c0,0,0,0,0,0c0,0-0.03,0.01-0.04,0.01c-0.01,0-0.01,0-0.02-0.01c0-0.01-0.01-0.02-0.01-0.03c0-0.01,0-0.02,0-0.02
		c0.01-0.01,0.02-0.02,0.02-0.02c0,0,0,0,0-0.01c0,0,0,0,0,0c0,0-0.01-0.01-0.02-0.03c0-0.01,0-0.01,0.01-0.02
		C2.64,1.56,2.67,1.5,2.67,1.49c0,0,0-0.01,0-0.01c0-0.01,0-0.01,0-0.01c0,0-0.04-0.02-0.05-0.03c0,0-0.05-0.01-0.06-0.01v0v0l0,0
		c0,0,0,0,0,0c-0.01,0-0.01,0-0.02,0c-0.01,0-0.03,0-0.03,0C2.5,1.44,2.47,1.45,2.47,1.45c0,0-0.03,0.03-0.03,0.03L2.4,1.51
		c0,0-0.04,0.04-0.04,0.12c0,0,0,0.01,0,0.01c0,0.01,0,0.03,0,0.05c0,0,0,0.04,0.03,0.06c0,0.01,0.05,0.04,0.05,0.04
		c0,0,0.02,0,0.02,0c0.01,0,0.02,0.01,0.03,0.03C2.51,1.84,2.52,1.89,2.54,1.88L2.54,1.88C2.54,1.88,2.54,1.88,2.54,1.88 M2.64,1.42
		c0.01,0,0.04,0.02,0.05,0.03c0,0.01,0.01,0.01,0.01,0.03c0,0.01,0,0.01,0,0.02C2.69,1.51,2.66,1.57,2.64,1.59c0,0,0,0,0,0.01
		c0,0,0.01,0.01,0.01,0.02c0,0.01,0.01,0.01,0.01,0.02c0,0,0,0.01,0,0.01C2.64,1.65,2.63,1.66,2.63,1.67c0,0,0,0.01,0,0.02
		c0,0.01,0,0.02,0,0.03v0v0v0c0.01,0,0.03-0.01,0.04-0.01c0,0,0,0,0,0h0c0,0,0.02,0,0.03-0.01c0,0,0,0,0,0
		c0.01-0.02,0.04-0.01,0.04-0.02c0,0,0.02-0.03,0.03-0.03c0,0,0.01-0.02,0.02-0.02c0,0,0-0.01,0-0.01l0,0c0,0,0-0.01,0-0.01
		c0-0.01,0.01-0.01,0.01-0.02c0,0,0,0,0-0.01c0,0,0-0.01,0-0.01c0-0.01-0.02-0.03-0.02-0.04c0,0,0,0,0-0.01
		c0-0.01,0.01-0.02,0.01-0.02c0,0,0,0,0,0c0,0-0.01-0.01-0.01-0.01c0,0-0.01-0.01-0.01-0.01c0-0.01,0-0.01,0.01-0.02c0,0,0,0-0.01,0
		c-0.01,0-0.01,0-0.02,0c-0.01,0-0.06-0.02-0.07-0.02c-0.01,0-0.02,0-0.03-0.01C2.63,1.4,2.61,1.39,2.6,1.39c0,0,0,0,0,0
		c0,0,0,0,0,0c-0.01,0-0.01,0-0.02,0c-0.01,0-0.02,0-0.03,0c-0.01,0-0.04,0.02-0.06,0.02l0,0l0,0l0,0c0,0-0.03,0.02-0.06,0.03
		c-0.02,0,0,0.04-0.05,0.05c-0.01,0-0.01,0.01-0.02,0.01C2.35,1.52,2.36,1.54,2.34,1.55c0,0,0,0,0,0c0,0,0,0.01,0,0.01c0,0,0,0,0,0
		c0,0.01,0,0.02,0,0.03c0,0,0,0.01,0,0.01c0,0,0,0,0,0c0,0,0,0.01,0,0.01C2.35,1.53,2.39,1.5,2.39,1.5l0.03-0.03
		c0,0,0.02-0.02,0.03-0.03C2.47,1.43,2.5,1.42,2.51,1.41c0.01-0.01,0.03-0.01,0.04-0.01c0.01,0,0.01,0,0.02,0h0c0,0,0,0,0,0
		c0,0,0,0,0,0C2.58,1.41,2.63,1.42,2.64,1.42 M3.18,1.24C3.15,1.27,3.04,1.38,3.04,1.49c0,0.08,0.05,0.16,0.24,0.21
		c0.03-0.02,0.11-0.06,0.13-0.1L3.5,1.52c0,0,0.08-0.08,0.08-0.13c0-0.05-0.04-0.13-0.13-0.13c-0.01,0-0.02,0-0.02,0L3.35,1.28
		l-0.01,0C3.3,1.24,3.25,1.24,3.22,1.24c-0.01,0-0.01,0-0.02,0C3.19,1.24,3.18,1.24,3.18,1.24C3.18,1.24,3.18,1.24,3.18,1.24
		 M1.78,1.63c0.01,0,0.02,0.01,0.03,0.01c0.02,0,0.05,0.01,0.07,0.01c0.01,0,0.02,0,0.03,0c0.01,0,0.03-0.08,0.03-0.08
		c0-0.01,0-0.01,0-0.02c0-0.01,0-0.02,0-0.03c0-0.01-0.01-0.02-0.01-0.03C1.9,1.45,1.9,1.42,1.9,1.41c0,0,0,0,0,0v0
		c0-0.01-0.01-0.03-0.02-0.04C1.87,1.34,1.86,1.33,1.86,1.3c0,0,0-0.01,0-0.01C1.86,1.26,1.88,1.22,1.9,1.21c0,0,0.01,0,0.01,0
		c0,0,0,0-0.01,0l-0.01,0c0,0,0,0-0.01,0c-0.01,0-0.04,0-0.05,0.04c0,0-0.02,0.02-0.03,0.03c0,0-0.04,0.11-0.04,0.14
		c-0.01,0.04,0,0.03-0.01,0.04C1.75,1.49,1.7,1.53,1.7,1.56c0,0.01,0,0.01,0.01,0.01c0,0,0,0,0,0C1.75,1.6,1.76,1.6,1.78,1.63
		L1.78,1.63C1.77,1.63,1.77,1.63,1.78,1.63 M0.56,1.54C0.58,1.54,0.6,1.55,0.62,1.55C0.66,1.56,0.7,1.56,0.74,1.56
		c0.03,0,0.05,0,0.08,0c0.1,0,0.19-0.01,0.22-0.01C1.03,1.53,1.03,1.5,1.02,1.46c0,0-0.01-0.02-0.01-0.05c0,0,0,0,0,0
		C1,1.43,0.95,1.46,0.91,1.49C0.89,1.5,0.88,1.5,0.86,1.5c-0.05,0-0.08-0.04-0.11-0.05C0.74,1.44,0.73,1.44,0.72,1.44
		c-0.03,0-0.08,0.01-0.12,0.02c0,0-0.01,0-0.01,0c-0.03,0-0.06-0.02-0.08-0.03c0,0.01-0.01,0.01-0.01,0.03
		c0,0.02,0.01,0.04,0.03,0.07C0.54,1.53,0.55,1.53,0.56,1.54 M2.13,1.56c0.01,0,0.01,0,0.02,0c0.01-0.01,0.03-0.02,0.03-0.02
		c0.01-0.01,0.01-0.01,0.01-0.02c0-0.01,0-0.02,0-0.03c0,0,0-0.01,0-0.01c0,0,0,0,0-0.01c0-0.01-0.01-0.02-0.01-0.02
		c0,0,0-0.01,0-0.01c0,0,0,0,0,0c0,0,0,0-0.01-0.01c0,0-0.01-0.01-0.01-0.01c-0.01,0-0.01-0.01-0.01-0.01c0,0,0-0.01,0-0.01
		c0,0,0,0,0-0.01C2.15,1.38,2.15,1.36,2.15,1.35c0,0,0-0.02-0.01-0.02C2.14,1.31,2.13,1.31,2.13,1.31L2.12,1.3
		c0-0.01-0.01-0.02-0.01-0.02l0-0.01c0,0,0,0,0,0c0-0.02-0.02-0.01-0.03-0.03c0-0.01-0.03-0.02-0.03-0.02C2.03,1.2,2,1.19,2,1.19h0
		c0,0-0.02,0-0.03,0.01c0.01,0,0.02,0,0.04,0.01c0,0,0.02,0.02,0.03,0.02c0,0,0.02,0.01,0.03,0.03c0.01,0.01,0.02,0.03,0.02,0.03
		c0,0.01,0,0.01-0.01,0.01c-0.01,0-0.01,0-0.01-0.01c0,0,0-0.01-0.01-0.02C2.05,1.26,2.03,1.25,2.03,1.24c0,0-0.02-0.02-0.02-0.02
		c-0.01,0-0.03,0-0.04,0c-0.03,0-0.05,0.01-0.06,0.02c0,0-0.03,0.04-0.03,0.06c0,0,0,0,0,0.01c0,0.02,0.01,0.03,0.02,0.04
		C1.91,1.36,1.92,1.38,1.92,1.4c0,0,0,0,0,0v0c0,0.01,0,0.03,0.01,0.05c0.01,0,0.06,0.02,0.15,0.02h0c0.01-0.01,0.03-0.02,0.04-0.02
		c0,0,0,0,0-0.01c0-0.01-0.01-0.03-0.01-0.04c0,0,0,0,0,0c0,0,0-0.01,0-0.01C2.09,1.4,2.06,1.4,2.06,1.4c-0.01,0-0.01,0-0.01-0.01
		c0-0.01,0-0.01,0.01-0.01c0,0,0.03-0.01,0.04-0.02c0,0,0,0,0,0c0-0.02,0-0.03-0.01-0.04c0-0.01,0-0.01,0.01-0.01
		c0.01,0,0.01,0,0.01,0.01c0,0.01,0.01,0.06,0.01,0.07v0v0v0v0c0,0,0.01,0.03,0.01,0.05c0,0.01,0,0.01-0.01,0.02
		C2.12,1.47,2.11,1.48,2.1,1.49c0,0,0,0,0,0c0,0.04,0.02,0.04,0.03,0.06C2.12,1.55,2.13,1.56,2.13,1.56
		C2.13,1.56,2.13,1.56,2.13,1.56 M2.32,1.55c0-0.01,0-0.01,0.01-0.02c0,0,0.01-0.02,0.02-0.04c0.01-0.01,0.02-0.02,0.03-0.02
		c0.03,0,0.01-0.03,0.05-0.05c0.03-0.01,0.04-0.03,0.06-0.03h0h0h0c0.01,0,0.04-0.01,0.05-0.02c0,0,0.01,0,0.02,0c0,0,0,0,0-0.01
		c0,0,0.03-0.04,0.07-0.06c-0.08-0.06-0.1-0.13-0.1-0.16c0,0,0,0,0-0.01l0,0L2.53,1.14c0,0,0,0.01,0,0.02
		c-0.01,0.01,0,0.02-0.02,0.03l0,0c0,0,0,0,0,0c0,0,0,0,0,0c0,0,0,0,0,0v0l0,0C2.49,1.18,2.47,1.15,2.47,1.15l0-0.01l0.02-0.07
		L2.5,1c-0.05,0.03-0.1,0.03-0.11,0.03c0,0,0,0,0,0C2.34,1.02,2.32,0.97,2.31,0.95c0,0,0,0,0,0c0,0,0,0,0,0.01
		c0,0.01,0,0.02,0.01,0.03c0,0.01,0,0.01,0,0.02c0,0.02,0,0.04,0,0.05C2.3,1.08,2.28,1.08,2.27,1.08h0c0,0,0,0,0,0c0,0,0,0,0,0
		c0,0-0.01,0-0.01,0c-0.01,0-0.01,0.01-0.01,0.01c0,0-0.01,0-0.01,0c0,0,0-0.01,0-0.01c0,0,0-0.03,0.01-0.03
		c0-0.01-0.02-0.04-0.02-0.06c0-0.02-0.02-0.11-0.02-0.13v0c0,0,0,0,0,0c0-0.02,0.02-0.08,0.02-0.09c0-0.01,0.02-0.06,0.03-0.08
		c0-0.01,0.01-0.01,0.01-0.02C2.26,0.66,2.24,0.65,2.23,0.65c-0.04,0-0.07,0.02-0.07,0.02l0,0c0,0-0.04,0-0.06,0.01
		c-0.02,0-0.03,0.01-0.08,0.07C1.99,0.78,1.99,0.8,1.99,0.82C1.99,0.84,2,0.86,2,0.86v0c0,0,0,0,0,0h0c0.01,0,0.01,0,0.02,0
		c0.03,0.01,0.11,0.05,0.14,0.1C2.16,0.98,2.16,0.99,2.16,1c0.01,0,0.01-0.01,0.02-0.01L2.16,0.91c0-0.01,0-0.01,0.01-0.01
		c0.01,0,0.01,0,0.01,0.01l0.03,0.11c0,0,0,0,0,0c0.02,0.04,0.02,0.08,0.02,0.12c0,0.07-0.03,0.12-0.03,0.12
		c0,0-0.03,0.08-0.04,0.08c0,0,0,0.01,0,0.01c0,0,0.01,0.03,0.01,0.03c0,0.01,0,0.01,0,0.02c0,0,0,0,0,0.01
		C2.19,1.41,2.2,1.42,2.2,1.44v0c0,0,0,0.01,0,0.01c0,0.01,0.01,0.02,0.01,0.03c0,0,0,0.01,0,0.01c0,0,0,0,0,0.01c0,0,0,0.01,0,0.01
		L2.32,1.55z M1.49,1.34C1.48,1.35,1.47,1.37,1.47,1.4c0,0,0,0,0,0c0,0,0,0,0,0c0,0.01,0,0.02,0,0.02c0,0.02,0,0.03,0.02,0.03
		c0.01,0,0.01,0.01,0.02,0.01C1.53,1.48,1.56,1.5,1.58,1.5c0.01,0,0.02,0,0.04-0.01c0,0,0.02-0.01,0.02-0.03c0,0,0-0.01,0-0.01
		l0-0.01c0,0,0.02-0.01,0.02-0.02c0,0,0,0,0-0.01L1.64,1.38c0,0,0-0.01,0-0.01c0,0,0,0,0.01-0.01l0.05-0.01c0,0,0,0,0.01,0
		c0,0,0,0,0,0c-0.01,0-0.03-0.01-0.04-0.01c-0.01,0-0.05-0.01-0.05-0.01l0,0c0,0,0,0.01,0,0.02c0,0,0,0.01-0.01,0.01
		c-0.01,0-0.02,0.01-0.04,0.01c0,0-0.01,0-0.01,0L1.54,1.37c0,0-0.01-0.01,0-0.01c0,0,0.01-0.01,0.01,0l0.01,0.01c0,0,0,0,0,0
		c0.01,0,0.02,0,0.03-0.01c0,0,0-0.01-0.01-0.01L1.56,1.33L1.53,1.32C1.52,1.33,1.49,1.34,1.49,1.34 M0.76,1.43
		c0.02,0.02,0.06,0.05,0.1,0.05c0.01,0,0.03,0,0.04-0.01c0.04-0.02,0.07-0.05,0.09-0.06L0.92,1.38c-0.02,0-0.1-0.04-0.11-0.04
		c-0.02,0-0.06-0.02-0.09-0.03c-0.02-0.02-0.06-0.07-0.06-0.1v0c0,0,0,0,0,0c0-0.01,0.01-0.07,0.01-0.12
		C0.64,1.1,0.59,1.13,0.54,1.23c0,0-0.04,0.05-0.06,0.07c0,0,0,0.01,0,0.02c0,0.02,0.01,0.05,0.01,0.05C0.49,1.38,0.5,1.39,0.52,1.4
		c0,0,0,0,0,0c0,0,0,0,0,0c0.02,0.02,0.04,0.03,0.07,0.03c0,0,0.01,0,0.01,0c0.04-0.01,0.08-0.02,0.12-0.02
		C0.74,1.42,0.75,1.42,0.76,1.43 M1.3,1.36c0,0.01,0,0.02,0,0.02c0,0,0.03,0.08,0.11,0.09c0,0,0.03,0,0.06,0
		C1.46,1.46,1.45,1.44,1.45,1.43c0-0.01,0-0.02,0-0.02c0,0,0,0,0,0c0,0,0,0,0,0c0-0.03,0.01-0.06,0.02-0.07
		C1.49,1.31,1.53,1.3,1.53,1.3l0.01,0l0.01,0C1.53,1.29,1.49,1.26,1.49,1.26v0c0,0,0,0,0,0c0,0,0,0,0,0
		C1.44,1.28,1.35,1.31,1.35,1.31L1.3,1.33C1.3,1.34,1.3,1.35,1.3,1.36 M0.73,1.29C0.74,1.31,0.79,1.32,0.8,1.32
		c0.02,0,0.1,0.04,0.12,0.04l0.09,0.03c0,0,0,0,0,0c0,0,0.01,0,0.01,0v0c0,0,0,0,0,0c0-0.01,0-0.01,0-0.02
		c0.01-0.06,0.01-0.14,0.01-0.15c0,0,0-0.01,0-0.01c-0.01,0-0.01,0-0.02,0c-0.05,0-0.09-0.05-0.13-0.1
		C0.86,1.09,0.85,1.07,0.85,1.05c0-0.04,0.03-0.09,0.08-0.14c0.04-0.04,0.12-0.07,0.19-0.08c-0.01,0-0.01,0-0.02,0
		c-0.03,0-0.06,0-0.08,0.01C0.97,0.85,0.88,0.87,0.86,0.89C0.83,0.9,0.8,0.96,0.77,0.98C0.74,1,0.7,1.01,0.69,1.06
		c0,0.01,0,0.02-0.01,0.03C0.68,1.13,0.67,1.2,0.67,1.21c0,0,0,0,0,0C0.67,1.22,0.71,1.29,0.73,1.29 M1.33,1.18
		C1.3,1.19,1.29,1.19,1.28,1.22c-0.01,0.03-0.02,0.1-0.06,0.14l0.06-0.03l0.06-0.03c0,0,0.09-0.03,0.14-0.05
		C1.49,1.23,1.5,1.23,1.51,1.23c0-0.01,0-0.02,0-0.03c0,0,0,0-0.01,0L1.45,1.23c0,0-0.01,0-0.01,0c0,0,0-0.01,0-0.01l0.05-0.03
		c0.01,0,0.01-0.01,0.02-0.01C1.52,1.15,1.53,1.12,1.53,1.1c0,0,0-0.01,0-0.01L1.39,1.13l0,0c0,0-0.01,0-0.01,0
		C1.36,1.15,1.34,1.17,1.33,1.18 M2.56,1.15c0,0.03,0.01,0.09,0.1,0.15c0.03-0.01,0.13-0.06,0.26-0.08C2.9,1.2,2.89,1.18,2.85,1.16
		C2.83,1.14,2.8,1.13,2.77,1.11c0,0-0.01-0.01-0.01-0.01c0,0,0.01-0.01,0.01-0.01c0.03,0.01,0.05,0.02,0.07,0.04
		c0-0.02-0.03-0.07-0.03-0.07C2.75,0.93,2.63,0.89,2.62,0.88c0,0,0,0.01,0,0.01c0,0,0,0,0,0c0,0.01,0.01,0.03,0.01,0.05
		c0,0,0,0.01,0,0.02c0,0-0.01,0.01-0.01,0.01c0,0,0,0,0,0c0,0.01,0,0.04-0.01,0.05c-0.01,0-0.01,0.01-0.01,0.02c0,0,0,0.02,0,0.03
		c0,0.01,0,0.03-0.01,0.04c0,0-0.01,0.01-0.01,0.01C2.56,1.13,2.56,1.14,2.56,1.15 M0.67,1.21L0.67,1.21L0.67,1.21z M2.5,1.17
		C2.5,1.16,2.5,1.16,2.5,1.17c0.01-0.02,0.01-0.03,0.01-0.03l0-0.01l0.01-0.01c0.01-0.01,0.01-0.01,0.02-0.01
		c0,0,0.01-0.01,0.01-0.01c0,0,0.01-0.02,0.01-0.03c0-0.01,0-0.03,0-0.03c0,0,0,0,0,0c0,0,0,0,0,0c0-0.01,0.01-0.02,0.02-0.03
		c0,0,0.01-0.03,0.01-0.04c0-0.02,0.02-0.02,0.02-0.03c0,0,0,0,0,0C2.6,0.93,2.6,0.91,2.6,0.9c0,0,0,0,0-0.01
		c0-0.01,0-0.02,0.01-0.03c0,0,0,0,0,0c0-0.01,0.01-0.05,0.01-0.06c0,0,0,0,0,0c0,0,0,0,0,0c0-0.01,0.01-0.03,0.01-0.04c0,0,0,0,0,0
		c0-0.01-0.02-0.06-0.04-0.09C2.57,0.64,2.53,0.64,2.53,0.64l-0.01,0C2.5,0.61,2.45,0.6,2.42,0.6c-0.01,0-0.01,0-0.01,0
		c0,0-0.07,0.02-0.07,0.02c-0.01,0-0.02,0.02-0.04,0.04c0,0,0,0,0,0c0,0,0,0,0,0C2.29,0.68,2.28,0.69,2.28,0.69
		C2.27,0.71,2.25,0.76,2.25,0.77c0,0.01-0.02,0.07-0.02,0.09c0,0,0,0,0,0c0,0.02,0.01,0.12,0.02,0.13c0,0.01,0.02,0.05,0.02,0.06
		c0,0,0,0,0,0c0,0,0,0.01,0,0.01c0,0,0.01,0,0.01,0c0,0,0,0,0,0c0,0,0,0,0,0c0,0,0.01,0,0.01,0c0,0,0,0,0,0c0-0.01,0-0.03,0-0.04
		c0-0.01,0-0.01,0-0.01c0-0.01-0.01-0.02-0.01-0.04c0,0,0-0.01,0-0.01c0-0.01,0.01-0.01,0.01-0.02c0-0.01,0.01-0.01,0.01-0.02
		c0-0.02,0.01-0.05,0.01-0.07c0-0.01,0.03-0.04,0.03-0.05C2.36,0.77,2.38,0.76,2.4,0.76c0,0,0,0,0,0c0.01,0,0.03,0,0.04,0
		c0.01,0,0.01,0,0.01,0c0.01-0.01,0.06-0.05,0.06-0.05c0,0,0.01,0,0.01,0c0,0,0.01,0,0.01,0.01c0,0,0.01,0.03,0.01,0.04
		c0,0,0.02,0.03,0.03,0.04c0.01,0.01,0.02,0.05,0.02,0.06c0,0,0,0,0,0.01L2.52,0.98l0,0L2.51,1.08L2.49,1.15
		C2.49,1.15,2.5,1.16,2.5,1.17 M1.62,1.12c0.01,0,0.02,0.01,0.03,0.01c0,0,0,0,0,0c0.01,0,0,0,0.01-0.01c0-0.01,0.01-0.02,0.02-0.03
		l0,0c0,0,0,0,0,0L1.66,1.08c0,0,0-0.01,0-0.01c0,0,0.01,0,0.01,0l0.02,0.02c0.01,0,0.01,0,0.01,0c0,0,0.01-0.01,0.01-0.01
		c0,0,0,0,0,0c0,0,0,0,0,0c0,0,0,0,0,0h0c0,0,0,0,0,0c0,0,0,0,0,0c0,0,0,0,0,0c0,0,0,0,0,0c0,0,0,0,0,0c0,0,0.01,0.01,0.01,0.01
		c0,0,0,0,0-0.01c0.01-0.03,0.04-0.1,0.04-0.12c0-0.01,0.01-0.01,0.01-0.02c-0.01,0-0.02-0.01-0.05-0.02L1.72,0.89
		c0,0.01,0,0.02-0.01,0.03C1.7,0.93,1.69,0.94,1.68,0.93c0,0,0,0,0,0l0,0h0c0,0-0.02,0.02-0.04,0.03C1.63,0.97,1.61,0.99,1.57,0.99
		c0,0-0.03,0.01-0.06,0.01c-0.01,0-0.02,0-0.02,0c0,0,0,0-0.01,0c-0.01,0-0.02,0-0.03,0c-0.01,0-0.02,0-0.02-0.01
		c0,0,0-0.01-0.01-0.01c0,0.01,0,0.02,0,0.03c0,0.02,0,0.04-0.01,0.05C1.41,1.07,1.4,1.09,1.39,1.11l0.13-0.03l0.01,0l0.01,0
		L1.6,1.11C1.6,1.11,1.61,1.11,1.62,1.12 M1.96,1.09c0.01,0,0.02,0.01,0.03,0.01c0.01,0,0.02,0,0.03-0.01
		c0.03-0.02,0.06-0.02,0.05-0.03c0,0,0,0,0-0.01c0,0,0-0.01,0-0.01C2.05,0.99,2.06,1.01,2.05,1C2.04,0.99,2.03,0.98,2.03,0.98l0,0
		c0,0,0,0-0.01,0c0,0,0,0,0,0c0,0,0,0,0,0c0,0,0,0,0,0.01c0,0,0,0.01,0.01,0.01c0.01,0.01,0.01,0.02,0.01,0.02v0c0,0,0,0.01,0,0.01
		c0,0-0.01,0-0.01,0c0,0-0.01-0.01-0.01-0.02c0,0,0,0,0,0L1.98,0.99C1.96,0.99,1.95,0.98,1.94,0.98c-0.01,0-0.01,0-0.02,0
		c0,0-0.01,0-0.02,0c-0.03,0-0.07,0.02-0.07,0.02c0,0-0.02,0.01-0.02,0.01c0,0,0.01,0.01,0.02,0.01h0c0.01,0,0.01,0,0.02,0l0,0
		c0,0,0,0,0,0c0-0.01,0.01-0.01,0.02-0.01c0.01,0,0.01,0,0.01,0.01c0,0,0.06,0.06,0.06,0.06C1.95,1.09,1.95,1.09,1.96,1.09
		 M2.02,0.96c0.01,0,0.01,0,0.02,0.01c0,0,0.01,0.01,0.02,0.02c0.01,0.01,0.02,0.01,0.02,0.05c0,0,0,0.01,0,0.01
		c0.01,0,0.03-0.01,0.04-0.01c0,0,0.01-0.01,0.01-0.01c0-0.01,0.01-0.01,0.01-0.02c0-0.01,0-0.02-0.01-0.03
		c-0.02-0.04-0.1-0.08-0.13-0.09c0,0-0.01,0-0.01,0c0,0,0,0-0.01,0c-0.02,0-0.04,0.02-0.05,0.03c-0.01,0-0.01,0.04-0.01,0.06
		c0,0,0.01,0,0.01,0c0.02,0,0.03,0,0.05,0.01L2,0.98c0,0,0,0,0,0c0,0,0-0.01,0.01-0.02C2.01,0.96,2.02,0.96,2.02,0.96L2.02,0.96z
		 M1.81,1.02L1.81,1.02L1.81,1.02z M2.32,0.93c0,0,0.03,0.08,0.06,0.09c0,0,0,0,0,0c0.01,0,0.07,0,0.12-0.04c0,0,0,0,0,0v0
		l0.03-0.04c-0.01,0-0.02,0-0.02,0l0,0c0,0.01-0.01,0.01-0.01,0.01c-0.01,0-0.01-0.01-0.01-0.01l0-0.01c-0.01,0-0.01-0.01-0.01-0.01
		l0,0c0,0-0.01-0.01,0-0.01c0,0,0.01-0.01,0.01,0c0,0,0.03,0.02,0.05,0.02c0,0,0,0,0,0l0.03-0.05v0c0-0.01-0.01-0.05-0.01-0.05
		C2.55,0.81,2.52,0.79,2.52,0.77c0,0,0-0.02-0.01-0.03C2.5,0.76,2.47,0.78,2.46,0.78c-0.01,0-0.01,0-0.02,0c-0.02,0-0.04,0-0.04,0
		c-0.01,0-0.03,0.01-0.03,0.01C2.36,0.81,2.34,0.84,2.34,0.85c0,0-0.01,0.04-0.01,0.06C2.33,0.92,2.32,0.92,2.32,0.93
		C2.32,0.93,2.32,0.93,2.32,0.93 M1.5,0.98c0,0,0.01,0,0.02,0c0.02,0,0.05-0.01,0.05-0.01c0.03,0,0.04-0.02,0.06-0.03
		c0.01-0.01,0.03-0.03,0.05-0.03c0,0,0,0,0,0c0,0,0,0,0,0c0,0,0.01,0,0.02-0.01C1.7,0.9,1.7,0.88,1.7,0.88c0,0,0-0.01,0-0.01
		c0,0,0-0.01,0-0.01c0,0,0.01,0,0.01,0l0.04,0.03C1.79,0.91,1.79,0.9,1.81,0.91c0.01,0,0.02,0.01,0.02,0.01c0,0,0,0,0,0
		C1.86,0.91,1.86,0.91,1.86,0.9c0,0,0.01-0.02,0.01-0.04c0-0.02-0.01-0.04-0.03-0.05L1.83,0.81c0,0-0.03-0.05-0.06-0.05
		c0,0-0.01,0-0.01,0l-0.01,0c0,0-0.01-0.01-0.04-0.02C1.69,0.73,1.66,0.72,1.63,0.72c-0.01,0-0.01,0-0.02,0c0,0-0.03-0.01-0.06-0.01
		c-0.04,0-0.08,0.01-0.08,0.03c0,0,0,0.01-0.01,0.01c0,0-0.02,0-0.05,0.01C1.39,0.77,1.37,0.79,1.37,0.79h0c0,0,0,0,0,0
		c0,0.01,0,0.01-0.01,0.01c0,0-0.01,0-0.01,0h0c-0.01,0-0.02,0.02-0.02,0.03c0,0,0,0,0,0.01v0c0,0,0,0,0,0
		c0.01,0,0.02,0.01,0.03,0.02C1.38,0.88,1.4,0.91,1.41,0.93c0,0,0,0.01,0,0.01c0.02,0.01,0.03,0.03,0.03,0.04c0,0,0,0,0,0
		c0.01,0,0.02,0,0.03,0C1.49,0.97,1.49,0.97,1.5,0.98 M0.96,2.2L0.96,2.2L0.96,2.2L0.96,2.2z M1.95,2.11c0,0,0-0.01,0-0.01l0,0
		c-0.01,0-0.01-0.01-0.01-0.01c0,0,0-0.01,0-0.01c0,0,0.01,0,0.01,0c0,0.01,0.03,0.02,0.04,0.02v0c0.01,0,0.01,0.01,0.01,0.01
		c0,0.01-0.01,0.01-0.01,0.01c0,0-0.01,0-0.01,0L1.96,2.11C1.96,2.11,1.95,2.11,1.95,2.11C1.95,2.11,1.95,2.11,1.95,2.11 M2.56,1.81
		L2.56,1.81l-0.04,0c0,0-0.01,0-0.01-0.01c0-0.01,0-0.01,0.01-0.01L2.6,1.77c0.01,0,0.01,0,0.01,0.01c0,0.01,0,0.01-0.01,0.01
		L2.58,1.8l0,0c0,0,0,0.01,0,0.01C2.57,1.81,2.57,1.81,2.56,1.81C2.57,1.81,2.56,1.81,2.56,1.81 M2.57,1.43L2.57,1.43L2.57,1.43z
		 M1.93,1.32c0,0-0.01-0.01,0-0.01c0,0,0.02-0.04,0.05-0.04c0,0,0.01,0,0.01,0c0,0,0,0.01,0,0.01c0,0-0.01,0-0.01,0l0,0c0,0,0,0,0,0
		c0,0,0,0,0,0l0,0.01c0,0,0,0.01,0,0.01c0,0-0.01,0-0.01,0l0-0.01c0,0,0,0,0,0C1.96,1.31,1.95,1.32,1.95,1.32l0,0
		C1.95,1.32,1.94,1.32,1.93,1.32C1.94,1.32,1.94,1.32,1.93,1.32 M2.41,1C2.39,1,2.37,0.99,2.37,0.99c0,0,0-0.01,0-0.01
		c0,0,0.01,0,0.01,0c0,0,0.01,0.01,0.03,0.01c0.01,0,0.01,0,0.01,0.01C2.42,1,2.42,1,2.41,1L2.41,1z M1.74,1L1.72,0.99l0,0.01
		C1.71,1,1.71,1,1.7,1c0,0-0.01-0.01,0-0.01l0-0.01L1.69,0.97c0,0-0.01-0.01,0-0.01c0,0,0.01-0.01,0.01,0l0.05,0.03
		c0,0,0.01,0.01,0,0.01C1.75,1,1.75,1,1.74,1C1.74,1,1.74,1,1.74,1 M2.42,0.97c-0.02,0-0.03-0.01-0.03-0.02c0,0,0-0.01,0-0.01
		c0,0,0.01,0,0.01,0c0,0,0,0,0,0c0,0,0.01,0,0.01,0c0.01,0,0.01,0,0.01,0.01C2.43,0.97,2.42,0.97,2.42,0.97L2.42,0.97z M2.38,0.9
		c-0.01,0-0.01-0.01-0.01-0.01l0-0.01c-0.01,0-0.02-0.01-0.02-0.01v0c0,0-0.01-0.01,0-0.01c0,0,0.01-0.01,0.01,0
		c0,0,0.03,0.02,0.05,0.02c0.01,0,0.01,0,0.01,0.01c0,0.01,0,0.01-0.01,0.01c-0.01,0-0.02,0-0.02,0l0,0C2.39,0.89,2.39,0.9,2.38,0.9
		C2.38,0.9,2.38,0.9,2.38,0.9"/>
	<path d="M2.85,2.74C2.79,2.72,2.77,2.7,2.77,2.67c0-0.03,0.03-0.06,0.03-0.06c0,0,0.01,0,0.01,0c0,0,0,0.01,0,0.01
		c0,0-0.03,0.02-0.03,0.04c0,0.02,0.01,0.04,0.07,0.05c0,0,0.01,0.01,0.01,0.01C2.86,2.74,2.86,2.74,2.85,2.74
		C2.85,2.74,2.85,2.74,2.85,2.74"/>
	<path d="M3.55,2.68c-0.01,0-0.01-0.01-0.01-0.01c0-0.01,0-0.02,0-0.03c0-0.1-0.02-0.33-0.02-0.49c0-0.04,0-0.08,0.01-0.11
		C3.54,2,3.54,1.96,3.54,1.92c0-0.08-0.01-0.13-0.01-0.13c0-0.01,0-0.01,0.01-0.01c0.01,0,0.01,0,0.01,0.01c0,0,0.01,0.06,0.01,0.13
		c0,0.04,0,0.08-0.01,0.13c0,0.03-0.01,0.06-0.01,0.1c0,0.15,0.02,0.39,0.02,0.49c0,0.01,0,0.03,0,0.03
		C3.56,2.68,3.56,2.68,3.55,2.68C3.55,2.68,3.55,2.68,3.55,2.68"/>
	<path d="M3.24,1.43c0,0,0-0.01,0-0.01l0.08-0.08c0,0,0.01,0,0.01,0c0,0,0,0.01,0,0.01L3.25,1.43C3.25,1.44,3.25,1.44,3.24,1.43
		C3.25,1.44,3.24,1.44,3.24,1.43"/>
	<path d="M3.36,2.79c0,0-0.11-0.12-0.22-0.24l0,0c0,0,0-0.01,0-0.01c0,0,0.01,0,0.01,0c0.1,0.12,0.22,0.24,0.22,0.24
		c0,0,0,0.01,0,0.01C3.37,2.79,3.37,2.79,3.36,2.79C3.36,2.79,3.36,2.79,3.36,2.79 M1.55,2.72c0,0,0-0.01,0-0.01
		c0,0,0.1-0.09,0.11-0.13C1.68,2.54,1.69,2.5,1.69,2.5c0.03-0.08,0.03-0.12,0.04-0.16h0c0-0.01,0.01-0.01,0.01-0.01
		c0.01,0,0.01,0.01,0.01,0.01C1.74,2.38,1.74,2.43,1.71,2.5c0,0-0.01,0.04-0.03,0.08C1.66,2.63,1.56,2.72,1.56,2.72
		C1.56,2.72,1.56,2.72,1.55,2.72C1.55,2.72,1.55,2.72,1.55,2.72 M1.74,2.19C1.72,2.12,1.56,2.05,1.56,2.05c0,0-0.01-0.01-0.01-0.01
		c0-0.01,0.01-0.01,0.01-0.01c0,0,0.16,0.06,0.19,0.15c0,0.01,0,0.01-0.01,0.01C1.75,2.2,1.75,2.2,1.74,2.19
		C1.75,2.2,1.74,2.19,1.74,2.19 M1.31,2.19c0,0,0-0.01,0-0.01c0,0,0.04-0.05,0.14-0.05c0,0,0.04,0,0.07,0c0.01,0,0.01,0,0.01,0.01
		c0,0.01,0,0.01-0.01,0.01c-0.03,0-0.07,0-0.07,0c-0.09,0-0.13,0.05-0.13,0.05C1.32,2.19,1.32,2.19,1.31,2.19
		C1.31,2.19,1.31,2.19,1.31,2.19 M2.92,2.11C2.91,2.06,2.91,2.01,2.91,1.99c0-0.02,0-0.03,0-0.03v0c0-0.01,0-0.01,0.01-0.01
		c0.01,0,0.01,0,0.01,0.01c0,0,0,0.01,0,0.03c0,0.03,0,0.07,0.01,0.12c0,0.01,0,0.01-0.01,0.01C2.93,2.12,2.93,2.12,2.92,2.11
		C2.92,2.12,2.92,2.11,2.92,2.11 M1.14,2.03c0,0-0.03-0.09-0.05-0.2C1.07,1.77,1.07,1.73,1.07,1.69c0-0.03,0-0.04,0-0.04h0
		c0-0.01,0.01-0.01,0.01-0.01c0.01,0,0.01,0.01,0.01,0.01c0,0,0,0.01,0,0.04c0,0.03,0,0.08,0.01,0.13c0.02,0.1,0.05,0.2,0.05,0.2
		c0,0.01,0,0.01-0.01,0.01C1.15,2.04,1.15,2.04,1.14,2.03C1.14,2.04,1.14,2.03,1.14,2.03 M2.15,1.98c0,0-0.01-0.01-0.01-0.01
		c0,0,0.07-0.21,0.12-0.24c0.01,0,0.01,0,0.01,0.01c0,0,0,0.01-0.01,0.01c-0.01,0-0.05,0.06-0.07,0.12
		C2.18,1.92,2.17,1.97,2.17,1.97l0,0C2.17,1.97,2.16,1.98,2.15,1.98C2.16,1.98,2.16,1.98,2.15,1.98 M2.74,1.8
		c-0.01,0-0.01-0.01-0.01-0.01c0.01-0.04,0.02-0.1,0.02-0.1h0c0-0.01,0.01-0.01,0.01-0.01c0.01,0,0.01,0.01,0.01,0.01
		c0,0-0.01,0.06-0.03,0.11C2.75,1.8,2.75,1.8,2.74,1.8C2.74,1.8,2.74,1.8,2.74,1.8 M2.78,1.76c0-0.01,0-0.01,0.01-0.01l0.18-0.01
		c0,0,0.04,0,0.06-0.02c0,0,0.01,0,0.01,0c0,0,0,0.01,0,0.01C3.01,1.76,2.97,1.76,2.97,1.76L2.79,1.77L2.78,1.76
		C2.79,1.77,2.79,1.77,2.78,1.76 M1.98,1.65c-0.03,0-0.06-0.01-0.06-0.01c-0.01,0-0.01-0.01-0.01-0.01c0-0.01,0.01-0.01,0.01-0.01
		c0,0,0.02,0,0.05,0c0.05,0,0.11-0.01,0.13-0.08c0-0.01,0.01-0.01,0.01-0.01c0.01,0,0.01,0.01,0.01,0.01
		C2.1,1.64,2.03,1.65,1.98,1.65L1.98,1.65z M2.89,1.54c0-0.09-0.06-0.1-0.1-0.1c-0.01,0-0.02,0-0.02,0v0c-0.01,0-0.01,0-0.01-0.01
		c0-0.01,0-0.01,0.01-0.01c0,0,0.01,0,0.03,0c0.04,0,0.12,0.02,0.12,0.12C2.91,1.55,2.91,1.55,2.89,1.54L2.89,1.54
		C2.9,1.55,2.89,1.55,2.89,1.54 M2.07,1.35c0,0,0-0.01,0-0.01C2.09,1.33,2.1,1.33,2.1,1.32C2.09,1.31,2.06,1.29,2.04,1.29
		c-0.01,0-0.02-0.01-0.02-0.02c0-0.02,0.01-0.02,0.01-0.03c0,0,0.01,0,0.01,0c0,0,0,0.01,0,0.01c0,0-0.01,0.01-0.01,0.01
		c0,0,0,0,0,0c0.03,0.01,0.07,0.04,0.07,0.04l0,0.01c0,0-0.01,0.02-0.04,0.04v0C2.08,1.36,2.08,1.36,2.07,1.35
		C2.08,1.36,2.07,1.36,2.07,1.35"/>
	<g>
		<path class="st0" d="M10.45,3.1c0.02,0.03,0.08,0.09,0.21,0.09c0.14,0,0.23-0.08,0.23-0.19c0-0.09-0.07-0.15-0.12-0.17v0
			c0.05-0.02,0.1-0.08,0.1-0.16c0-0.11-0.09-0.18-0.21-0.18c-0.11,0-0.19,0.09-0.19,0.09c-0.01,0.01-0.01,0.02,0,0.03l0.04,0.03
			c0.01,0.01,0.02,0.01,0.03,0c0.02-0.02,0.06-0.06,0.12-0.06c0.06,0,0.11,0.04,0.11,0.11c0,0.06-0.05,0.11-0.14,0.11h-0.06
			c-0.01,0-0.02,0.01-0.02,0.02v0.04c0,0.01,0.01,0.02,0.02,0.02h0.06c0.11,0,0.16,0.06,0.16,0.12c0,0.07-0.06,0.11-0.13,0.11
			c-0.07,0-0.13-0.05-0.14-0.06c-0.01-0.01-0.02-0.01-0.03,0l-0.04,0.04C10.44,3.08,10.44,3.09,10.45,3.1 M10.15,3.1
			c-0.11,0-0.15-0.11-0.14-0.2c0.01-0.02,0.06-0.08,0.14-0.08c0.07,0,0.13,0.06,0.13,0.14C10.28,3.04,10.22,3.1,10.15,3.1
			 M9.91,2.91c0,0.16,0.08,0.28,0.24,0.28c0.12,0,0.23-0.1,0.23-0.23c0-0.14-0.1-0.22-0.21-0.22c-0.07,0-0.13,0.03-0.13,0.04
			c0.03-0.12,0.19-0.21,0.24-0.22c0.02-0.01,0.02-0.02,0.02-0.03l-0.02-0.04c0-0.01-0.01-0.02-0.03-0.01
			C10.15,2.51,9.91,2.63,9.91,2.91 M9.44,3c0-0.05,0.05-0.11,0.13-0.12C9.65,2.89,9.7,2.95,9.7,3c0,0.07-0.06,0.11-0.13,0.11
			C9.5,3.11,9.44,3.07,9.44,3 M9.57,2.78C9.49,2.77,9.46,2.73,9.46,2.67c0-0.06,0.05-0.11,0.11-0.11c0.07,0,0.12,0.04,0.12,0.11
			C9.68,2.73,9.65,2.77,9.57,2.78 M9.34,3c0,0.11,0.09,0.19,0.23,0.19C9.72,3.19,9.8,3.11,9.8,3c0-0.09-0.08-0.15-0.12-0.17v0
			c0.04-0.02,0.1-0.08,0.1-0.16c0-0.11-0.09-0.18-0.22-0.18c-0.12,0-0.21,0.07-0.21,0.18c0,0.08,0.06,0.13,0.1,0.16v0
			C9.42,2.85,9.34,2.91,9.34,3 M8.86,3.18h0.35c0.01,0,0.02-0.01,0.02-0.02V3.12c0-0.01-0.01-0.02-0.02-0.02H9.1V2.51
			C9.1,2.5,9.09,2.5,9.08,2.5H9.03L8.88,2.63c0,0-0.01,0.01,0,0.02l0.01,0.04c0,0.01,0.01,0.01,0.02,0.01L9,2.65V3.1H8.86
			c-0.01,0-0.02,0.01-0.02,0.02v0.04C8.84,3.17,8.84,3.18,8.86,3.18 M7.94,2.83c0-0.14,0.12-0.26,0.26-0.26
			c0.14,0,0.26,0.12,0.26,0.26c0,0.14-0.12,0.26-0.26,0.26C8.05,3.09,7.94,2.97,7.94,2.83 M7.84,2.83c0,0.2,0.16,0.36,0.36,0.36
			c0.2,0,0.36-0.16,0.36-0.36c0-0.2-0.16-0.36-0.36-0.36C8,2.46,7.84,2.63,7.84,2.83 M7.11,3.16c0,0.01,0.01,0.02,0.02,0.02h0.06
			c0.01,0,0.02-0.01,0.02-0.02V2.67h0l0.44,0.52h0.03c0.01,0,0.02-0.01,0.02-0.02V2.49c0-0.01-0.01-0.02-0.02-0.02H7.61
			c-0.01,0-0.02,0.01-0.02,0.02v0.48h0L7.15,2.46H7.13c-0.01,0-0.02,0.01-0.02,0.02V3.16z M6.55,2.94l0.12-0.28h0L6.8,2.94H6.55z
			 M6.36,3.18h0.06c0.01,0,0.02-0.01,0.02-0.02c0.02-0.05,0.04-0.09,0.06-0.14h0.33L6.9,3.17c0,0.01,0.01,0.02,0.02,0.02h0.06
			c0.01,0,0.02-0.01,0.02-0.03L6.7,2.48c0-0.01-0.01-0.01-0.02-0.01H6.67c-0.01,0-0.01,0-0.02,0.01L6.34,3.15
			C6.34,3.17,6.35,3.18,6.36,3.18 M5.89,3.16c0,0.01,0.01,0.02,0.02,0.02h0.36c0.01,0,0.02-0.01,0.02-0.02V3.11
			c0-0.01-0.01-0.02-0.02-0.02H5.99V2.49c0-0.01-0.01-0.02-0.02-0.02H5.9c-0.01,0-0.02,0.01-0.02,0.02V3.16z M5.58,3.16
			c0,0.01,0.01,0.02,0.02,0.02h0.07c0.01,0,0.02-0.01,0.02-0.02V2.49c0-0.01-0.01-0.02-0.02-0.02H5.6c-0.01,0-0.02,0.01-0.02,0.02
			V3.16z M4.66,3.16c0,0.01,0,0.02,0.02,0.02h0.07c0.01,0,0.02-0.01,0.02-0.01l0.07-0.45h0l0.18,0.46c0,0.01,0.01,0.01,0.02,0.01
			h0.02c0.01,0,0.02-0.01,0.02-0.01l0.18-0.46h0l0.07,0.45c0,0.01,0.01,0.01,0.02,0.01h0.07c0.01,0,0.02-0.01,0.02-0.02L5.31,2.48
			c0-0.01-0.01-0.02-0.02-0.02H5.28c-0.01,0-0.02,0-0.02,0.01L5.05,2.99h0L4.84,2.48c0-0.01-0.01-0.01-0.02-0.01H4.8
			c-0.01,0-0.02,0.01-0.02,0.02L4.66,3.16z"/>
		<path class="st0" d="M13.15,1.49c0-0.18,0.15-0.33,0.33-0.33c0.18,0,0.33,0.15,0.33,0.33c0,0.18-0.15,0.33-0.33,0.33
			C13.3,1.82,13.15,1.68,13.15,1.49 M12.96,1.49c0,0.29,0.23,0.52,0.52,0.52c0.29,0,0.52-0.23,0.52-0.52c0-0.29-0.23-0.52-0.52-0.52
			C13.19,0.97,12.96,1.21,12.96,1.49 M11.96,1.49c0,0.29,0.23,0.52,0.52,0.52c0.13,0,0.25-0.04,0.35-0.14
			c0.01-0.01,0.01-0.03,0-0.04l-0.09-0.09c-0.01-0.01-0.02-0.01-0.04,0c-0.06,0.05-0.13,0.08-0.22,0.08c-0.18,0-0.32-0.15-0.32-0.33
			c0-0.18,0.14-0.34,0.32-0.34c0.08,0,0.16,0.03,0.22,0.08c0.01,0.01,0.03,0.01,0.04,0l0.09-0.09c0.01-0.01,0.01-0.03,0-0.04
			c-0.1-0.09-0.2-0.13-0.35-0.13C12.19,0.97,11.96,1.21,11.96,1.49 M11.58,1.97c0,0.01,0.01,0.03,0.03,0.03h0.13
			c0.01,0,0.03-0.01,0.03-0.03V1.02c0-0.01-0.01-0.03-0.03-0.03h-0.13c-0.01,0-0.03,0.01-0.03,0.03V1.97z M10.48,1.97
			C10.48,1.98,10.5,2,10.51,2h0.13c0.02,0,0.03-0.01,0.03-0.03V1.35h0l0.6,0.66h0.03c0.01,0,0.03-0.01,0.03-0.03V1.02
			c0-0.01-0.01-0.03-0.03-0.03h-0.13c-0.02,0-0.03,0.01-0.03,0.03v0.59h0l-0.6-0.64h-0.04c-0.01,0-0.03,0.01-0.03,0.03V1.97z
			 M9.42,1.49c0,0.29,0.23,0.52,0.52,0.52c0.13,0,0.25-0.04,0.35-0.14c0.01-0.01,0.01-0.03,0-0.04L10.2,1.74
			c-0.01-0.01-0.02-0.01-0.04,0c-0.06,0.05-0.13,0.08-0.22,0.08c-0.18,0-0.32-0.15-0.32-0.33c0-0.18,0.14-0.34,0.32-0.34
			c0.08,0,0.16,0.03,0.22,0.08c0.01,0.01,0.03,0.01,0.04,0l0.09-0.09c0.01-0.01,0.01-0.03,0-0.04c-0.1-0.09-0.2-0.13-0.35-0.13
			C9.65,0.97,9.42,1.21,9.42,1.49 M8.63,1.97C8.63,1.98,8.64,2,8.66,2h0.59c0.02,0,0.03-0.01,0.03-0.03V1.85
			c0-0.01-0.01-0.03-0.03-0.03H8.82V1.57h0.36c0.01,0,0.03-0.01,0.03-0.03V1.42c0-0.01-0.01-0.03-0.03-0.03H8.82V1.16h0.43
			c0.02,0,0.03-0.01,0.03-0.03V1.02c0-0.01-0.01-0.03-0.03-0.03H8.66C8.64,0.99,8.63,1,8.63,1.02V1.97z M8.03,1.97
			C8.03,1.98,8.05,2,8.06,2h0.13c0.01,0,0.03-0.01,0.03-0.03V1.16h0.22c0.02,0,0.03-0.01,0.03-0.03V1.02c0-0.01-0.01-0.03-0.03-0.03
			H7.81C7.8,0.99,7.79,1,7.79,1.02v0.12c0,0.01,0.01,0.03,0.03,0.03h0.22V1.97z M7.42,1.97C7.42,1.98,7.43,2,7.44,2h0.13
			C7.59,2,7.6,1.98,7.6,1.97V1.02C7.6,1,7.59,0.99,7.58,0.99H7.44C7.43,0.99,7.42,1,7.42,1.02V1.97z M6.64,1.97
			C6.64,1.98,6.66,2,6.67,2H7.2c0.02,0,0.03-0.01,0.03-0.03V1.85c0-0.01-0.01-0.03-0.03-0.03H6.83V1.02C6.83,1,6.82,0.99,6.8,0.99
			H6.67C6.66,0.99,6.64,1,6.64,1.02V1.97z M5.64,1.49c0-0.18,0.15-0.33,0.33-0.33c0.18,0,0.33,0.15,0.33,0.33
			c0,0.18-0.15,0.33-0.33,0.33C5.79,1.82,5.64,1.68,5.64,1.49 M5.46,1.49c0,0.29,0.23,0.52,0.52,0.52c0.29,0,0.52-0.23,0.52-0.52
			c0-0.29-0.23-0.52-0.52-0.52C5.69,0.97,5.46,1.21,5.46,1.49 M4.85,1.45V1.17h0.17c0.08,0,0.15,0.06,0.15,0.14
			c0,0.09-0.07,0.15-0.15,0.15H4.85z M4.66,1.97C4.66,1.98,4.67,2,4.69,2h0.13c0.01,0,0.03-0.01,0.03-0.03V1.63h0.18
			c0.18,0,0.32-0.15,0.32-0.32c0-0.17-0.15-0.32-0.32-0.32H4.69C4.67,0.99,4.66,1,4.66,1.02V1.97z"/>
	</g>
</g>
</svg>
