<?xml version="1.0" encoding="utf-8"?>
<!-- Generator: Adobe Illustrator 22.1.0, SVG Export Plug-In . SVG Version: 6.00 Build 0)  -->
<svg version="1.1" id="Layer_1" xmlns="http://www.w3.org/2000/svg" xmlns:xlink="http://www.w3.org/1999/xlink" x="0px" y="0px"
	 viewBox="0 0 165 155.9" style="enable-background:new 0 0 165 155.9;" xml:space="preserve">
<style type="text/css">
	.st0{fill:#231F20;}
</style>
<title>logo_fhp</title>
<path class="st0" d="M83.3,144.7l1.2,0l0.1,6.5l-1.2,0L83.3,144.7z M79.9,151.1l0.3-6.5l1.2,0l-0.3,6.5L79.9,151.1z M86.4,144.6
	l1.2-0.1L88,151l-1.2,0.1L86.4,144.6z M76.5,150.9l0.5-6.5l1.2,0.1l-0.5,6.5L76.5,150.9z M89.5,144.4l1.2-0.1l0.6,6.5l-1.2,0.1
	L89.5,144.4z M73.1,150.5L74,144l1.2,0.2l-0.8,6.5L73.1,150.5z M92.6,144l1.2-0.2l1,6.4l-1.2,0.2L92.6,144z M69.7,149.9l1.2-6.4
	l1.2,0.2l-1.2,6.4L69.7,149.9z M95.7,143.5l1.2-0.2l1.3,6.4l-1.2,0.2L95.7,143.5z M66.4,149.3l1.4-6.3l1.2,0.3l-1.4,6.4L66.4,149.3z
	 M98.8,142.9l1.2-0.3l1.6,6.3l-1.2,0.3L98.8,142.9z M63.1,148.4l1.7-6.3l1.2,0.3l-1.7,6.3L63.1,148.4z M101.8,142.1l1.2-0.3l1.8,6.2
	l-1.2,0.3L101.8,142.1z M59.8,147.4l2-6.2l1.2,0.4l-2,6.2L59.8,147.4z M104.8,141.1l1.2-0.4l2.1,6.1l-1.2,0.4L104.8,141.1z
	 M56.6,146.2l2.3-6.1l1.1,0.4l-2.3,6.1L56.6,146.2z M107.7,140l1.1-0.5l2.4,6l-1.1,0.5L107.7,140z M53.4,144.9l2.6-6l1.1,0.5l-2.6,6
	L53.4,144.9z M110.6,138.8l1.1-0.5l2.7,5.9l-1.1,0.5L110.6,138.8z M50.3,143.4l2.9-5.9l1.1,0.5l-2.9,5.9L50.3,143.4z M113.4,137.5
	l1.1-0.6l3,5.8l-1.1,0.6L113.4,137.5z M47.3,141.8l3.1-5.7l1.1,0.6l-3.1,5.7L47.3,141.8z M116.1,136l1.1-0.6l3.3,5.6l-1.1,0.6
	L116.1,136z M44.3,140.1l3.4-5.5l1,0.6l-3.4,5.5L44.3,140.1z M118.8,134.4l1-0.7l3.5,5.5l-1,0.7L118.8,134.4z M41.5,138.2l3.7-5.4
	l1,0.7l-3.7,5.4L41.5,138.2z M121.4,132.7l1-0.7l3.7,5.3l-1,0.7L121.4,132.7z M38.7,136.2l3.9-5.2l1,0.7l-3.9,5.2L38.7,136.2z
	 M123.9,130.8l1-0.7l4,5.1l-1,0.7L123.9,130.8z M36,134.1l4.1-5.1l0.9,0.8l-4.1,5L36,134.1z M126.4,128.9l0.9-0.8l4.2,4.9l-0.9,0.8
	L126.4,128.9z M33.5,131.8l4.3-4.8l0.9,0.8l-4.4,4.8L33.5,131.8z M128.7,126.8l0.9-0.8l4.5,4.7l-0.9,0.8L128.7,126.8z M31,129.4
	l4.6-4.6l0.9,0.9l-4.6,4.6L31,129.4z M131,124.7l0.8-0.9l4.7,4.5l-0.8,0.9L131,124.7z M28.6,126.9l4.8-4.4l0.8,0.9l-4.8,4.4
	L28.6,126.9z M133.1,122.4l0.8-0.9l4.9,4.3l-0.8,0.9L133.1,122.4z M26.4,124.3l5-4.2l0.8,0.9l-5,4.2L26.4,124.3z M135.1,120l0.8-0.9
	l5.1,4.1l-0.8,0.9L135.1,120z M24.3,121.6l5.2-3.9l0.7,1l-5.2,3.9L24.3,121.6z M137,117.6l0.7-1l5.3,3.8l-0.7,1L137,117.6z
	 M22.3,118.8l5.4-3.7l0.7,1l-5.4,3.7L22.3,118.8z M138.8,115l0.7-1l5.4,3.6l-0.7,1L138.8,115z M20.5,116l5.5-3.4l0.6,1l-5.5,3.4
	L20.5,116z M140.5,112.3l0.6-1l5.6,3.3l-0.6,1L140.5,112.3z M18.7,113l5.7-3.2l0.6,1.1l-5.7,3.2L18.7,113z M142.1,109.7l0.6-1.1
	l5.7,3.1l-0.6,1.1L142.1,109.7z M17.2,110l5.8-2.9l0.5,1.1l-5.8,2.9L17.2,110z M143.5,106.9l0.5-1.1l5.9,2.8l-0.5,1.1L143.5,106.9z
	 M15.7,106.9l5.9-2.7l0.5,1.1l-6,2.7L15.7,106.9z M144.8,104.1l0.5-1.1l6,2.5l-0.5,1.1L144.8,104.1z M14.4,103.7l6.1-2.4l0.4,1.1
	l-6.1,2.4L14.4,103.7z M145.9,101.2l0.4-1.1l6.1,2.2l-0.4,1.1L145.9,101.2z M13.3,100.4l6.2-2.1l0.4,1.2l-6.2,2.1L13.3,100.4z
	 M147,98.2l0.4-1.2l6.2,2l-0.4,1.2L147,98.2z M12.3,97.2l6.3-1.8l0.3,1.2l-6.3,1.8L12.3,97.2z M147.9,95.2l0.3-1.2l6.3,1.6l-0.3,1.2
	L147.9,95.2z M11.5,93.8l6.3-1.4l0.3,1.2L11.8,95L11.5,93.8z M148.6,92.2l0.2-1.2l6.4,1.3l-0.2,1.2L148.6,92.2z M10.8,90.5l6.4-1.2
	l0.2,1.2L11,91.7L10.8,90.5z M149.2,89.1l0.2-1.2l6.4,1l-0.2,1.2L149.2,89.1z M10.3,87.1l6.4-0.9l0.2,1.2l-6.4,0.9L10.3,87.1z
	 M149.6,86l0.1-1.2l6.5,0.8l-0.1,1.2L149.6,86z M9.9,83.7l6.5-0.6l0.1,1.2L10,84.9L9.9,83.7z M150,82.9l0.1-1.2l6.5,0.4l-0.1,1.2
	L150,82.9z M9.8,80.3l6.5-0.3l0.1,1.2l-6.5,0.3L9.8,80.3z M150.1,80.4l0-1.2l6.5,0.2l0,1.2L150.1,80.4z M9.7,78.1v-1.2l6.5,0v1.2
	L9.7,78.1z M150.1,76.1l6.5-0.1l0,1.2l-6.5,0.1L150.1,76.1z M9.8,74.6l0.1-1.2l6.5,0.3L16.3,75L9.8,74.6z M150,73l6.5-0.4l0.1,1.2
	l-6.5,0.4L150,73z M10,71.2l0.1-1.2l6.5,0.6l-0.1,1.2L10,71.2z M149.7,69.9l6.5-0.7l0.1,1.2l-6.5,0.7L149.7,69.9z M10.4,67.8
	l0.2-1.2l6.4,0.9l-0.2,1.2L10.4,67.8z M149.3,66.8l6.4-1l0.2,1.2l-6.4,1L149.3,66.8z M10.9,64.4l0.2-1.2l6.4,1.2l-0.2,1.2L10.9,64.4
	z M148.7,63.7l6.4-1.3l0.2,1.2l-6.4,1.3L148.7,63.7z M11.6,61.1l0.3-1.2l6.3,1.5l-0.3,1.2L11.6,61.1z M148,60.7l6.3-1.6l0.3,1.2
	l-6.3,1.6L148,60.7z M12.5,57.8l0.3-1.2l6.2,1.8l-0.3,1.2L12.5,57.8z M147.1,57.7l6.2-1.9l0.4,1.2l-6.2,1.9L147.1,57.7z M13.5,54.5
	l0.4-1.1l6.2,2.1l-0.4,1.2L13.5,54.5z M146.1,54.7l6.1-2.1l0.4,1.1l-6.1,2.1L146.1,54.7z M14.6,51.3l0.4-1.1l6,2.4l-0.4,1.1
	L14.6,51.3z M145,51.8l6-2.4l0.5,1.1l-6,2.4L145,51.8z M15.9,48.1l0.5-1.1l5.9,2.7l-0.5,1.1L15.9,48.1z M143.7,49l5.9-2.7l0.5,1.1
	l-5.9,2.7L143.7,49z M17.4,45l0.5-1.1l5.8,2.9l-0.5,1.1L17.4,45z M142.3,46.2l5.8-3l0.6,1.1l-5.8,3L142.3,46.2z M19,42l0.6-1.1
	l5.7,3.2l-0.6,1.1L19,42z M140.7,43.5l5.6-3.3l0.6,1.1l-5.6,3.3L140.7,43.5z M20.7,39l0.6-1l5.5,3.5l-0.7,1L20.7,39z M139.1,40.8
	l5.5-3.5l0.7,1l-5.5,3.5L139.1,40.8z M22.6,36.1l0.7-1l5.3,3.7l-0.7,1L22.6,36.1z M137.3,38.3l5.3-3.8l0.7,1l-5.3,3.8L137.3,38.3z
	 M24.6,33.4l0.7-1l5.1,4l-0.8,1L24.6,33.4z M135.4,35.8l5.1-4l0.8,1l-5.1,4L135.4,35.8z M26.7,30.7l0.8-0.9l4.9,4.2l-0.8,0.9
	L26.7,30.7z M133.4,33.4l4.9-4.3l0.8,0.9l-4.9,4.3L133.4,33.4z M29,28.1l0.8-0.9l4.7,4.5l-0.8,0.9L29,28.1z M131.3,31.1l4.7-4.5
	l0.8,0.9l-4.7,4.5L131.3,31.1z M31.3,25.7l0.9-0.9l4.6,4.6l-0.9,0.9L31.3,25.7z M129.1,28.9l4.5-4.7l0.9,0.8l-4.5,4.7L129.1,28.9z
	 M33.8,23.3l0.9-0.8l4.3,4.8l-0.9,0.8L33.8,23.3z M126.7,26.8l4.3-4.9l0.9,0.8l-4.3,4.9L126.7,26.8z M36.4,21.1l0.9-0.8l4.1,5
	l-0.9,0.8L36.4,21.1z M124.3,24.8l4.1-5.1l0.9,0.8l-4.1,5.1L124.3,24.8z M39.1,18.9l1-0.7l3.9,5.2l-1,0.7L39.1,18.9z M121.8,23
	l3.8-5.3l1,0.7l-3.8,5.3L121.8,23z M41.9,16.9l1-0.7l3.6,5.4l-1,0.7L41.9,16.9z M119.2,21.2l3.6-5.4l1,0.7l-3.6,5.4L119.2,21.2z
	 M44.8,15.1l1-0.6l3.3,5.6l-1.1,0.6L44.8,15.1z M116.5,19.6l3.3-5.6l1.1,0.6l-3.3,5.6L116.5,19.6z M47.7,13.4l1.1-0.6l3.1,5.7
	l-1.1,0.6L47.7,13.4z M113.8,18.1l3-5.7l1.1,0.6l-3,5.8L113.8,18.1z M50.8,11.8l1.1-0.5l2.8,5.9l-1.1,0.5L50.8,11.8z M111,16.8
	l2.7-5.9l1.1,0.5l-2.8,5.9L111,16.8z M53.9,10.3L55,9.9l2.6,6l-1.1,0.5L53.9,10.3z M108.1,15.6l2.5-6l1.1,0.5l-2.5,6L108.1,15.6z
	 M57,9l1.1-0.4l2.3,6.1l-1.1,0.4L57,9z M105.2,14.5l2.2-6.1l1.1,0.4l-2.2,6.1L105.2,14.5z M60.3,7.9l1.2-0.4l2,6.2l-1.2,0.4
	L60.3,7.9z M102.2,13.5l1.9-6.2l1.2,0.3l-1.9,6.2L102.2,13.5z M63.6,6.9l1.2-0.3l1.7,6.3l-1.2,0.3L63.6,6.9z M99.2,12.7l1.6-6.3
	l1.2,0.3l-1.6,6.3L99.2,12.7z M66.9,6.1l1.2-0.3l1.4,6.4l-1.2,0.3L66.9,6.1z M96.2,12l1.3-6.4l1.2,0.2l-1.3,6.4L96.2,12z M70.2,5.4
	l1.2-0.2l1.1,6.4l-1.2,0.2L70.2,5.4z M93.1,11.5l1-6.4l1.2,0.2l-1,6.4L93.1,11.5z M73.6,4.9l1.2-0.1l0.8,6.5l-1.2,0.1L73.6,4.9z
	 M90,11.1l0.8-6.5l1.2,0.1l-0.8,6.5L90,11.1z M77,4.5l1.2-0.1l0.5,6.5L77.5,11L77,4.5z M86.9,10.9l0.4-6.5l1.2,0.1l-0.4,6.5
	L86.9,10.9z M80.5,4.3l1.2,0l0.1,6.5l-1.2,0L80.5,4.3z M83.8,10.8l0.1-6.5l1.2,0L85,10.8L83.8,10.8z"/>
<path class="st0" d="M85.8,124.3l-10.7-3.6c-0.1-0.1-0.2-0.2-0.2-0.3l0-2.8c0,0,0-0.1,0-0.1c0,0,0-0.1,0-0.1c0,0,0,0,0,0
	c0,0,0,0,0,0c0,0,0,0,0,0c0,0,0,0,0,0c0,0,0,0,0,0c0,0,0,0,0,0c0,0,0,0,0,0c0,0,0.1,0,0.1-0.1l0,0l10.9-2.6l0.6-4.4
	c-0.7-0.2-0.7-1.1-0.7-1.3c0,0,0-0.1,0-0.1l-0.3-4.4c-0.2-0.2-0.4-0.4-0.5-0.6c0,0,0-0.1-0.1-0.1c-0.4-0.2-0.8-0.3-1.1-0.3
	c-1.2,0-2.4,1-4.1,1.6c-2.2,0.7-4.6,0.8-4.6,0.8c-0.1,0-0.1,0-0.2,0c-2.3-0.5-7.7-6.5-7.8-6.5v0c-0.1-0.1-0.1-0.4,0-0.5
	c0.1-0.1,0.4-0.1,0.5,0c0,0,1.2,1.3,2.7,2.7c-0.1-1.6-0.3-5.4-0.3-7.3c0-0.5,0-0.9,0.1-1.2c0-0.2,0.2-0.3,0.4-0.3
	c0.2,0,0.3,0.2,0.3,0.4c0,0.1-0.1,0.5,0,1c0,2.5,0.4,8,0.4,8l0,0c0,0,0,0,0,0c1.4,1.3,3,2.6,3.8,2.8c0.4-1.2,2.2-5.9,2.6-9.6
	c0,0,0.2-2.2,0.4-5.3v0c0-0.2,0.2-0.3,0.4-0.3c0.2,0,0.3,0.2,0.3,0.4c-0.2,3.1-0.4,5.3-0.4,5.3c-0.4,3.6-2,8-2.5,9.5
	c0.8-0.1,2.4-0.2,3.9-0.7c1.6-0.5,2.7-1.6,4.3-1.7c0.3,0,0.6,0,0.9,0.1c0-0.2,0-0.5,0-0.7c0-0.4,0-0.8,0-1.2c0-1.3,1-2.4,1.7-3.9
	c0.2-0.4,0.4-1.2,0.8-2.1l-0.1,0.2c-0.2,0.3-0.4,0.5-0.7,0.5c-0.8-0.1-0.9-0.9-0.9-0.8c-0.1-0.1-0.1-0.3-0.1-0.4
	c0-0.6,0.3-1.5,0.6-1.9c0,0,0.1-0.1,0.1-0.3c-0.4,0.2-0.8,0.3-1.2,0.3c-0.2,0-0.4,0-0.6-0.1c-0.8-0.2-1.7-1-1.7-1l-1-0.9
	c-0.3-0.3-0.5-0.4-0.5-0.8c0.1-0.5,0.4-0.6,0.6-0.6c0-0.1,0-0.1,0-0.2c0-0.5,0.5-0.5,0.7-0.5c0.2,0,0.3,0,0.4,0.1
	c0.6,0.2,1.1,1,1.2,1.2l0,0c0.1,0,0.2-0.1,0.3-0.2c0.2-0.1,0.4-0.3,0.5-0.3l0,0c0,0,0-0.1,0-0.2c0-0.2,0-0.4,0-0.5l0,0
	c0,0,0,0,0-0.1c0-0.5,0.5-2.3,0.6-2.7c0.1-0.3,0.1-0.3,0.7-1.1c0,0-0.1-0.1-0.1-0.1c-0.4-1-0.6-1.8-0.6-2.6c0-1.4,0.6-2.5,1.3-3.4
	c0-0.2-0.2-2.8-0.2-4.4c0-0.3,0-0.5,0-0.7c0.1-0.8,0.9-4.7,1.6-8c0-0.2,0.2-0.3,0.4-0.3c0.2,0,0.3,0.2,0.3,0.4
	c-0.7,3.3-1.6,7.3-1.6,8c0,0.2,0,0.4,0,0.6c0,1.1,0.1,2.8,0.2,3.7c1.1-1,2.3-1.5,2.3-1.5c0.2-0.1,0.4,0,0.4,0.2
	c0.1,0.2,0,0.4-0.2,0.5c0,0-3.8,1.6-3.8,4.9c0,0.6,0.1,1.3,0.4,2.1c0,0,0,0,0,0c0,0,0,0,0,0c0,0,0,0,0,0c0.1-0.1,0.4-0.3,1.2-1.1
	c0.7-0.6,1.3-0.8,1.8-0.8c0.4,0,0.7,0.1,0.9,0.2c1-2.7,2.2-3.5,2.4-3.7c0.2-0.1,0.5-1.1,0.7-1.6l-0.3,0c-0.2,0-0.3-0.1-0.4-0.2
	c0,0-0.8-2.6-1.1-4.1c0-0.2,0-0.3,0-0.5c0-1.7,1.5-3.6,2-3.9c0.2-0.1,0.6-1.1,0.6-1.1c0,0,0,0,0-0.1c-0.7-1.1-0.9-2.3-0.9-2.3
	c-0.1-0.7-0.1-1.3-0.1-1.9c0-0.1,0-0.1,0-0.2c-0.1,0-0.1,0-0.1-0.1c0,0-0.6-0.4-0.6-1.1c0-0.1,0-0.2,0-0.3c0,0,0-0.1,0-0.2
	c0-0.2,0-0.4-0.1-0.6l-3.9-1.9c0,0.3-0.2,0.7-0.6,0.9c0,0-0.6,0.6-1.3,0.9c-0.4,0.1-0.8,0.2-1,0.2c-0.2,0-0.3,0-0.3,0l-0.3-0.2
	c0,0-0.2-0.4-0.3-0.6c0,0-1-0.7-1-2.3c-2.5,0-4.2-0.4-5.1-0.6c0.1,0.3,0.2,0.6,0.3,0.9c0.1,0.5,0.2,1,0.2,1.4c0,0.3,0,0.5,0,0.8
	c-0.1,0-0.3,2.8-1.5,3.4c-0.3,0.1-0.7,0.2-1.2,0.2c-1.6-0.1-3.7-0.2-4.3-1.1c-0.2-0.5-0.4-0.6-1.7-1.5c-0.8,0.6-4.4,3.3-4.4,9.8
	c0,0.7,0,1.5,0.1,2.3c0.3,0.1,0.5,0.2,0.8,0.4c0-0.2-0.1-0.5-0.1-0.8c0-0.6,0.1-1.4,0.7-1.7c0,0,0,0,0.1-0.1
	c0.2-0.2,0.5-0.4,0.7-0.7c0.3-0.3,0.9-1.2,1.6-1.3c0.3,0,0.7-0.4,1-0.7c0.3-0.3,1.1-1.5,2.5-1.5c0.1,0,0.3,0,0.4,0
	c1.4,0.3,4.4,0.3,5.1,0.7c0.3,0.2,1.4,1,2.1,1.4c0.2,0.1,0.3,0.2,0.3,0.2c0,0,0.2,0,0.3,0L81.7,63c0-0.2,0.1-0.3,0.3-0.4
	c0.2,0,0.4,0.1,0.4,0.3l0.1,6.4c0.5,0.1,1.1,0.5,1.4,1.2c0.2,0.1,0.4,0.5,0.5,1c0,0.2-0.1,0.4-0.2,0.7c0.5,0.3,1.3,0.9,1.6,1.6
	c0.1,0.3,0.2,0.7,0.2,1.1c0,0.7-0.3,1.6-1.3,1.9c0,0-1,0.1-1.6,0.2c-0.2,1-0.8,1.5-1.1,1.8c0,0.5,0,1.7-0.1,2.3
	c-0.1,0.7-0.7,0.8-1.1,0.8c-0.1,0-0.2,0-0.3,0c-0.1,0.3-0.4,0.7-0.9,0.8c-0.2,0-0.5,0.4-1,0.5c0-0.1-0.2,0.4-0.9,0.6
	c-0.2,0.1-0.5,0.1-0.7,0.1c-1.2,0-2.6-0.6-3.1-1.3c-0.6-0.7-1.1-1.7-1.1-1.7v0c-0.1-0.2,0-0.4,0.2-0.5c0.2-0.1,0.4,0,0.5,0.2
	c0,0,0.5,1,1,1.5c0.3,0.4,1.6,1,2.6,1c0.2,0,0.4,0,0.6-0.1c0.4-0.1,0.4-0.4,0.9-0.6c0,0,0.1,0,0.1-0.1l-0.4-0.3
	C78,82,78,81.8,78.1,81.7c0.1-0.1,0.3-0.2,0.5,0l0.5,0.4c0,0,0.1,0.1,0.1,0.1c0.1,0,0.2-0.1,0.3-0.1c0,0,0.1-0.2,0.3-0.4
	c-0.3-0.1-0.6-0.3-0.7-0.7l0,0v0l0,0c0,0,0-0.1,0.1-0.3c0.2-0.1,0.3-0.1,0.4,0c0,0,0.1,0,0.1,0c0,0.1,0.1,0.1,0.1,0.2l0,0
	c0,0,0.1,0.1,0.2,0.1c0.1,0.1,0.3,0.1,0.4,0.1c0,0,0,0,0,0c0,0,0.2,0,0.4,0c0.3,0,0.4-0.1,0.4-0.2c0-0.7,0.1-2.5,0.1-2.5l0.2-0.3
	c0,0,0.8-0.5,1-1.6c0-0.1-0.2-0.4-0.2-0.4c-0.1,0-0.2-0.1-0.3-0.1c-0.2,0-0.3,0-0.4,0.2c-0.4,0.3-1.6,1-2.1,1.2
	c-0.3,0.1-0.7,0.2-0.9,0.3l0,0c-0.1,0.3-0.5,0.8-1.9,1.6l-4.5,1c0.3,1.2,0.6,2.6,0.6,2.5c0,0,0.3,1.1,0.3,1.5c0,0,0,0,0,0
	c-0.1,1.4-0.8,6.1-4.7,6.7l0,0c0,0,0,0,0,0c-0.9,1.3-2.8,2.6-5.2,3.1c0.4,0.8,1.4,3,1.6,4c0.1,0.6,0.9,3.3,1.6,5.4
	c0.4,1.4,0.8,2.5,0.9,2.7c0.1,0.2,0.8,1.2,0.8,2.6c0,0.3,0,0.5-0.1,0.8c0,0,0,0,0,0.1c0,0,0.1,0,0.1,0.1c0,0,0.7,0.9,1.5,2.2
	c0.4,0.7,0.5,1.5,0.5,2.3c0,1.1-0.2,2.1-0.2,2.6c-0.1,1.1-0.8,1.3-2,2.6c-0.7,0.8-1.9,1.1-2.9,1.1c-1.1,0-2.2-0.2-2.9-0.4
	c-1.3-0.4-4.4-1-6.2-1.2c-1.9-0.2-5.5-2.4-6.3-2.8c-1-0.5-5-3.9-5.5-4.3c-0.3-0.3-1.3-0.6-1.9-0.7v0c-0.2-0.1-3.3,2-3.5,2.1
	c-0.2,0.1-0.6,0.5-0.7,0.7c0,0,0,0,0,0.1c0,0.1,0.1,0.2,0.2,0.5c0,0.1,0.2,0.1,0.5,0.2c0.2,0.1,0.8,0.3,1,0.3c0.2,0,0.3,0.3,0.3,0.4
	c-0.1,0.6-0.5,1-0.9,1.3l0,0c0,0.1,0,0.2,0,0.3c-0.2,0.7-0.7,0.6-0.9,0.7c-0.1,0-0.2,0-0.2,0c-0.2,0-0.4,0-0.5,0l0,0l-0.1,0v0
	c-0.3,0-0.8-0.1-0.9-0.1c-0.3-0.2-0.6-0.4-0.7-0.8l0,0c0,0,0,0,0-0.1c0-0.1-0.1-0.2-0.2-0.3c-0.1-0.3-0.3-0.6-0.5-1
	c-0.4-0.8-0.8-1.6-0.9-2c0-0.1,0-0.2,0-0.2c0-1,1.1-3.5,1.7-4.8c0.5-1.2,0.5-2.4,0.6-3.2c0.1-0.6,0.4-1.1,0.6-1.3
	c-1.4-1.5-1.7-3.3-1.7-4.6c0-0.8,0.1-1.5,0.1-1.6c0,0-0.1-0.1-0.1-0.1c-0.7-0.9-1-2.4-1-3c-0.8,0.6-2,1.3-2,1.3l-0.2,0l0,0
	c-2.3,0-2.9-1.6-2.9-3.1c0-1,0.2-2.1,0.3-2.6c0.2-1.1,1.1-2,2.1-2.6c-0.6,0-1-0.1-1.1-0.2c-0.4-0.2-0.7-0.5-1-0.8
	c-0.5-0.6-1.1-0.5-2.5-0.6c-0.2,0-0.4-0.1-0.6-0.2c-0.3,0-1.1-0.2-1.9-0.4c-0.9-0.3-1.7-0.4-2-1c0,0,0-0.1-0.1-0.3
	c-0.1,0-0.1,0-0.2-0.1l-2.3-1.6c-0.5-0.4-0.6-0.9-0.6-1.3c0-0.7,0.4-1.1,0.4-1.1c0,0,3.1-3.2,4.5-6.2c0.7-2.2,1-8.1,1-8.2
	c0.6-4.7,2.2-6.4,2.9-6.9c-0.7-1.2-0.9-2.1-0.9-2.8c0-0.7,0.2-1.1,0.4-1.4c-0.5-0.5-0.8-0.9-0.9-1c-0.5-0.5-0.7-1.4-0.7-2.3
	c0-0.4,0-0.9,0.4-1.2c0.5-0.4,2.1-2.3,2.1-2.3c2.4-4.3,4.9-5.2,5.3-5.3c0.1-0.3,0.1-0.6,0.2-0.8c0.5-1.9,2-2.5,3-3
	c0.8-0.5,1.9-2.6,3.2-3.4c1.2-0.7,4.1-1.3,6.4-1.8c0.8-0.2,1.9-0.2,2.9-0.2c1.9,0,3.8,0.2,3.7,0.2c0,0,0.1,0,0.2,0c0,0,0.1,0,0.2,0
	c0.6,0,1.8,0.1,3.1,0.7c0.1-0.9,0.8-1.4,1.1-1.7c0.1-0.1,0.3-0.1,0.4-0.1c0.3-1.3,2.7-1.7,3.5-1.8c0.3-1.4,2.1-1.6,3.4-1.6
	c1.3,0,2.4,0.2,2.3,0.2c0.3,0,0.5-0.1,0.8-0.1c2.1,0,4,1.2,4.5,1.6c0.1,0,0.2,0,0.3,0c1.7,0,2.6,1.6,2.9,2.1
	c1.1,0.4,1.4,1.5,1.4,2.3c0,0.8-0.2,1.5-0.2,1.6c0,0.2-0.2,1-1.3,1.1c-0.1,0-0.1,0-0.2,0c-0.3,0-0.5-0.1-0.8-0.2
	c0,0.1-0.2,0.2-0.3,0.5c-0.2,0.5-1.2,3-1.4,4.1c-0.1,0.5-0.4,0.9-0.8,0.9c-0.2,0-0.4-0.1-0.5-0.2c-0.1,0.1-0.3,0.3-0.4,0.4
	c-0.3,0.2-0.7,0.2-0.9,0.2c-0.1,0.1-0.3,0.4-0.6,0.5c0,0-0.2,0.3-0.2,0.3c0,0.2-0.2,0.8-0.9,0.9h0c-0.7,0-1.9-0.7-1.9-0.7L65,43.7
	c0,0.6-0.1,1.7-0.7,2.6c0,0,0,0.1,0,0.1v0.2c0,0.4,0,1.2-0.1,1.7c-0.1,0.3-0.3,0.4-0.6,0.5c0.5,0.4,2,1.4,2.3,2.3c0,0,0,0,0,0
	l0.8,0.2l0.7-0.1c0,0,1.7,0.3,1.9,0.3c0.3,0,1.8,0.3,1.8,0.3l0.3,0.2c0,0.1,0,0.2,0,0.2c-0.1,0.8-1,0.9-1.1,1l-1.2,0.2l0.3,0.4
	c0.1,0.2,0.2,0.4,0.2,0.6c0,0.6-0.5,1-0.7,1.2c0,0.2,0,0.3,0,0.4c0,1.3-0.9,1.8-0.9,1.8c-0.6,0.4-1.2,0.5-1.7,0.5
	c-1,0-1.9-0.5-2.6-0.9c0,0-0.1,0-0.1,0c0,0-3-0.1-3.3-0.1c-3.5-0.3-4.6-3.5-4.6-3.4c-0.2-0.3-0.2-0.7-0.2-1.1c0-0.2,0-0.5,0.1-0.7
	l-2.1,1.1c0,0.1,0,0.1,0.1,0.2c0.4,1.1,2,4,2,6.3V60c0,0.1,0,0.1,0,0.2c0,2.1,0.4,4.1,0.9,5.8c0.4,1.5,1.3,3.3,1.7,3.6l0,0
	c0.5,0.1,1.3,0.3,1.8,0.8c0.1,0.2,1.3,0.8,1.6,0.9c0.2,0.1,0.6,0.2,0.8,0.5c0.4,0.1,1.9,0.5,3.4,1.1c-0.1-0.7-0.1-1.4-0.1-2
	c0-6.4,3.4-9.4,4.6-10.2c-0.1-0.2-0.2-0.4-0.2-0.7c0-1.4,1.9-3.1,2-3.4c0.1-0.3,0,0.1,0.2-1.4c0.2-1.4,1.5-5.2,1.5-5.3
	c0.4-0.8,1.3-1.4,1.3-1.4c0.6-1.4,1.8-1.6,2.4-1.6c0.2,0,0.3,0,0.4,0c0.4-0.2,0.8-0.2,1-0.2c0.2,0,0.4,0,0.5,0
	c0.4-0.1,1.5-0.6,2.1-0.6c0.1,0,0.1,0,0.1,0c0,0,1.3,0.1,1.7,0.9c0,0,1,0.4,1.3,1.2c-0.2,0.1,1,0.2,1.1,1.4v0
	c0.2,0.1,0.5,0.4,0.6,0.8c0.2,0.1,0.5,0.3,0.7,0.8c0.4-0.9,0.9-2.2,1.1-2.3c0,0,0.9-1.3,0.9-3.8c0-1.3-0.2-2.8-0.9-4.6v0
	c-0.1,0-0.4,0.2-0.6,0.4c-0.2,0.2-0.5,0.4-0.4,0.4v0c0,0,0,0.1-0.1,0.1c-0.2,0.3-0.5,0.4-0.7,0.6c-0.5,0.3-1.3,0.4-1.7,0.5
	c-0.4,0.9-1.4,0.7-2.2,1.3c-0.5,0.3-1,0.4-1.5,0.4c-1,0-1.7-0.5-1.8-0.5c0,0-2-1.8-2.3-2.2c0,0,0,0,0,0c-0.1,0.2-0.4,0.4-1.2,0.4h0
	c-1,0-1.5-0.6-1.6-0.9c0,0,0-0.1,0-0.2c0.2-0.8,1.2-0.9,1.2-1c0,0,1.3-0.8,2.7-0.9c0.1,0,0.2,0,0.3,0c0-0.5,0.1-2,0.7-2.6
	c0.4-0.3,1-0.9,1.8-1.1c-0.1-0.2-0.3-0.8-0.3-1.5c0-0.8,0.2-1.8,1.1-2.8c1.8-2.1,2.5-2.5,3.3-2.6c0.6-0.1,1.7-0.2,2-0.3
	c0.3-0.2,1.4-0.9,2.9-0.9c0.6,0,1.3,0.1,2,0.5c0.6-0.6,1.2-1.2,1.4-1.4c0.6-0.4,2.8-0.9,2.9-0.9c0,0,0.2,0,0.6,0
	c0.9,0,2.7,0.1,4,1.3c0.4,0,1.8,0.2,2.4,1.3c0.5,1.1,1.4,2.6,1.4,3.5c0,0.1,0,0.1,0,0.2c-0.1,0.5-0.4,1.1-0.4,1.2h-0.1l0.1,0
	c0,0.1,0,0.1,0,0.2c0,0.5-0.1,1.6-0.3,2.2c0.6,0.2,4.9,2,7.8,6.7c0,0,1.1,1.9,1.1,3c0,0.2,0,0.3,0,0.4c0,0,0,0,0,0v0v0
	c1.4,1,2,2,2.2,2.2c1-0.1,2-0.2,3-0.2c1,0,2,0.1,3.1,0.3c0,0,0,0,0,0c0.3-0.1,0.5-0.1,0.8-0.1c1,0,1.7,0.3,1.8,0.3
	c0.1,0.1,0.4,0.1,0.7,0.1c0.2,0,0.5,0,0.7,0c1.2,0,3,0.1,4.9,1.5l2.2-0.7c0.3-0.1,0.7-0.1,1-0.1c3.6,0,5.4,3.3,5.4,5.4
	c0,1.1-0.7,2.3-1.3,3.2c0,0,0,0,0,0c1.4,3.5,2.3,8.2,3,14.7c0.3,2.2,0.4,4.4,0.4,6.5c0,9.8-2.4,18-3.2,21.4
	c-0.2,0.8-0.3,1.8-0.3,2.7c0,3.5,1.5,7.2,2.5,7.4c0.2,0,0.3,0.2,0.3,0.4c0,0.2-0.1,0.3-0.3,0.3c0,0-6.1,0.7-9.5,0.7
	c-0.3,0-0.5,0-0.7,0c-1.3,0-1.4,0-2.9-0.1c-4.4-0.2-8.7-0.4-10.1-0.7c0,0.1,0,0.2,0,0.1c0,0.1,1.6,2.1,1.6,3v0v0
	c-0.1,0.9-1.1,1.7-1.4,2c-0.4,0.3-1.2,0.6-1.5,0.8c-0.3,0.2-0.6,0.2-0.9,0.2c-0.3,0-0.6,0-0.8,0c-0.5,0-1.3-0.3-1.6-0.4
	c-0.2,0-0.9,0.2-1.5,0.2c-0.1,0-0.3,0-0.4,0c-1.1-0.2-1.1-1.3-1.2-2.3c0-0.1,0-0.2,0-0.3c0-0.3,0.1-0.6,0.1-0.9
	c0.2-0.7,0.5-1.3,0.6-1.6c0.1-0.2,0.2-0.7,0.4-1.2c0,0-0.1,0-0.1,0c-1.5-0.2-2.2-0.9-3.4-4.7l-0.7-2.7c-0.6-1.6-0.8-3-0.8-4.3
	c0-2.6,0.9-4.4,1.2-5c0.4-1,2.6-5.3,2.6-5.3l1.3-2.8l0.1-0.3c-0.5,0-1.5,0-3,0.2c0,0,0,0,0,0c-0.4,5.6-1.7,7.5-1.8,7.6
	c0,0-2.7,4.1-3,4.6c-0.1,0.2-0.2,0.9-0.2,1.5c0,0.3,0,0.5,0,0.7l0,0h0v0c0,0.5-0.3,1.3-0.3,1.3c0,0,0,0.1,0,0.2
	c0,0.5,0.4,1.3,0.7,1.7c0.3,0.5,1,0.8,1.3,1.5c0.1,0.1,0.1,0.2,0.1,0.4c0,0.8-0.7,1.5-1.5,1.9c-0.6,0.3-1.5,0.4-2.5,0.4
	c-0.7,0-1.5-0.1-2.2-0.1c-1.4-0.2-1.6-1.4-1.6-2c0-0.2,0-0.3,0-0.4c0,0,0.7-2,0.8-2.4c0-0.1,0.1-0.5,0.1-0.9c0-0.4,0-0.7,0-1
	c0-0.1,0-0.1,0-0.2c0-0.9,0.7-2.3,1.3-3.2c0.3-0.4,0.4-1.5,0.4-2.3c0-0.5,0-0.9,0-1.1c0-0.1,0-0.3,0-0.6c0-1.1,0-3.7,0-5.3l0,0
	c-2.4,4.5-6.1,8.9-6.2,9.2c-0.1,0.4-0.2,0.6-0.2,1.1c0,0.6,0.1,1.5,0.5,3.1c0.1,0.4,0.1,0.8,0.1,1.1c0,1.3-0.5,2.3-1,2.9l0,0
	c0,0,0,0,0,0.1l1.2,8.1l1.7-0.4l11.2,2.3c0.2,0,0.3,0.2,0.3,0.3c0,0,0,0,0,0l0,0v2.8c0,0.2-0.1,0.3-0.2,0.3L86,124.3H85.8z
	 M86.1,123.6l19-5.6v-2l-19,5.4V123.6z M75.6,120.2l9.9,3.3l0-2.1l-9.9-3.2V120.2z M85.8,120.7l18.3-5.2l-9.7-2l-1.7,0.4l0.4,3
	c0,0.2-0.1,0.3-0.3,0.4c-0.2,0-0.4-0.1-0.4-0.2l-1-2.8l-4.1,1l-1.3,3.5c-0.1,0.2-0.2,0.3-0.4,0.2c-0.2,0-0.3-0.2-0.2-0.4l0.6-3
	l-9.4,2.2L85.8,120.7z M42.1,110.6c0.5,0.1,1.6,0.3,2.3,0.9c0.4,0.4,4.6,3.9,5.3,4.2c0.9,0.4,4.5,2.6,6.1,2.7
	c1.8,0.2,4.9,0.9,6.3,1.2c0.6,0.2,1.7,0.4,2.7,0.4c1,0,1.9-0.2,2.4-0.8c1.3-1.5,1.8-1.6,1.8-2.2c0-0.5,0.2-1.5,0.2-2.5
	c0-0.8-0.1-1.5-0.4-2c-0.5-0.8-1-1.5-1.2-1.8c-0.1,0.2-0.1,0.3-0.2,0.5c-1.1,2.3-1.7,5.3-7.4,5.2c-0.1,0-0.2,0-0.3,0
	c1.2,0.5,2.3,1.1,2.7,1.4c0.1,0.1,0.1,0.4,0,0.5c-0.1,0.1-0.4,0.1-0.5,0c-0.3-0.3-2.9-1.5-4.3-2c-0.4-0.1-0.7-0.3-0.8-0.3
	c-0.8-0.3-7.9-3.1-11.2-4.6c-3.3-1.6-5.7-4.2-8.4-6.6c-0.1,0.2-0.4,0.5-0.4,0.9c0,0.7-0.1,2.1-0.7,3.4c-0.5,1.1-1.6,3.9-1.6,4.5
	c0,0,0,0,0,0c0.1,0.5,1.5,2.9,1.6,3.4h0c0,0,0,0.1,0.1,0.1c0.1,0.1,0.2,0.2,0.2,0.2l0,0c0,0,0.6,0.1,0.7,0.1c0,0,0,0,0,0
	c0,0,0,0,0.1,0c0.2,0,0.4,0,0.6,0H38c0.1,0,0.3-0.1,0.3-0.1c0-0.2-0.1-0.5,0.3-0.8c0,0,0,0,0.1-0.1c0.1-0.1,0.1-0.2,0.2-0.3
	c0.1-0.1,0.1-0.2,0.2-0.2c-0.3-0.1-0.6-0.2-0.8-0.3c-0.1-0.1-0.7,0-0.9-0.6c-0.1-0.2-0.2-0.4-0.2-0.8c0-0.1,0-0.2,0.1-0.4
	c0.2-0.5,0.6-0.8,0.9-1C38.4,112.7,41.1,110.6,42.1,110.6C42,110.6,42,110.6,42.1,110.6C42.1,110.6,42.1,110.6,42.1,110.6
	C42.1,110.6,42.1,110.6,42.1,110.6 M111.6,115.6c0,0,1.1,0.4,1.5,0.4c0.3,0,0.5,0,0.8,0c0.2,0,0.5,0,0.6-0.1
	c0.4-0.3,1.2-0.6,1.5-0.8c0.3-0.2,1.2-1.1,1.1-1.4c0,0,0,0,0-0.1c-0.1-0.5-1.5-2.6-1.6-2.7c0,0-0.1-0.3-0.2-0.7
	c-0.1-0.6-0.3-1.6-0.3-2.5c0-0.6,0.1-1.2,0.3-1.7c0.8-1.5,8.1-11.8,8.1-19.4c0-0.1,0-0.1,0-0.2c-0.2,0.2-0.4,0.4-0.6,0.6
	c-1.3,1.8-6.1,5.7-9.4,8.4c0,0,0,0.1,0,0.1c0,0-0.6,6.5-1.5,8.5c-0.8,1.9-1.4,3.4-1.3,4h-0.3l0.3,0l0,0c0,0.9-0.5,2.8-0.8,3.4
	c-0.2,0.3-0.5,0.9-0.6,1.5c-0.1,0.2-0.1,0.5-0.1,0.8c0,0.1,0,0.1,0,0.2c0.1,1.1,0.2,1.7,0.6,1.7c0.1,0,0.2,0,0.3,0
	c0.6,0,1.4-0.2,1.4-0.2L111.6,115.6z M57.8,115.4l1.5,0.1c0.2,0,0.5,0,0.7,0c5.4-0.1,5.5-2.3,6.8-4.8c0.1-0.3,0.3-0.6,0.3-0.8
	c0-0.1,0.1-0.2,0.1-0.3c0-0.2,0.1-0.5,0.1-0.7c0-1.2-0.6-1.9-0.8-2.4c-0.1-0.2-0.5-1.3-0.9-2.7c-0.7-2.1-1.5-4.8-1.6-5.5
	c-0.1-0.9-1.4-3.6-1.6-4c-1.9,0-2.9-1-3.2-1.3c-0.2,0.4-0.3,0.6-0.3,0.6l-1,2.1c0,0-1.4,3.2-1.5,4h0v0c0,0,0,0,0,0
	c0,0.1,0.1,0.2,0.4,0.3c0.3,0.1,0.7,0.2,0.9,0.2c0.6,0.2,1.8,0.9,2.1,1.2c0.2,0.2,0.9,0.8,1.1,1.2c0,0,0.2,0.2,0.2,0.3
	c0.4,0.2,1,0.7,1.1,0.7c0,0,1.5,1.9,1.6,2c0.1,0.2,0.3,0.4,0.3,0.7c0,0.1,0,0.2-0.1,0.4c-0.3,0.3-0.6,0.3-0.7,0.3l-0.2-0.1l-2-1.3
	l-0.2-0.1c0.3,0.5,0.5,1,0.6,1c0,0,0.5,1.1,0.7,1.7c0.1,0.2,0.1,0.3,0.1,0.5c0,0.5-0.5,0.7-0.7,0.8c0,0-0.1,0-0.2,0
	c-0.6,0-0.8-0.5-0.9-0.6l-0.8-1.4l-0.2-0.3l0.3,1.2c0,0,0.3,1,0.4,1.2c0,0.1,0,0.2,0,0.2c0,0.4-0.3,0.6-0.4,0.7
	c-0.1,0-0.2,0.1-0.3,0.1c-0.3,0-0.6-0.2-0.6-0.2l-0.2-0.2l-1.2-2.4c-0.3,0.6-1.1,0.8-1.3,0.9c-0.1,0-0.4,0.1-0.5,0.3
	c-0.1,0.2-0.3,0.3-0.5,0.3c-0.2,0-0.3-0.1-0.3-0.1c-0.3-0.2-0.4-0.5-0.4-0.7c0-0.3,0.1-0.5,0.1-0.6c0.2-0.3,0.7-0.5,0.8-0.6
	c0-0.2-0.2-0.7-0.2-0.8c0,0,0,0-0.1-0.1c-0.1-0.1-0.2-0.2-0.4-0.3c-0.3-0.2-0.5-0.4-0.6-0.5c-0.1-0.1-1.2-1-1.2-1
	c-1-0.8-1.3-2.6-1.5-4.6c-1.3,0.9-2.9,1.1-4.7,1.1c-1.4,0-2.8-0.1-4.2-0.2c-2.9-0.2-5.3-1.5-6.6-2.6c0,0.3-0.1,0.6-0.1,1.1
	c0,1.3,0.3,3.1,1.7,4.4c0,0,0.1,0.1,0.2,0.1c2.8,2.4,5.2,5.1,8.3,6.5c3.2,1.5,10.4,4.4,11.1,4.6C57.2,115.2,57.5,115.3,57.8,115.4
	L57.8,115.4C57.8,115.4,57.8,115.4,57.8,115.4 M87.4,110.1l-0.6,4.5l0,0l2.5-6.3c0-0.1,0.2-0.2,0.3-0.2c0.1,0,0.3,0.1,0.3,0.2
	l1.9,5.1l0,0l-1.3-8.5l-0.1-0.9c-0.4,0.1-0.9,0.3-1.2,0.8c-0.6,0.9-1.2,3-1.4,3.8C87.8,109.3,87.6,109.8,87.4,110.1
	C87.4,110.1,87.4,110.1,87.4,110.1 M87.6,114.4l3.5-0.8l-1.5-4.2L87.6,114.4z M126.2,110.5c1.4,0.1,1.6,0,2.9,0.1c0.2,0,0.4,0,0.7,0
	c0.3,0,0.7,0,1.1,0c-1.9-1-5.2-3.8-5.3-11c0-0.2,0.1-0.3,0.3-0.4c0.2,0,0.4,0.1,0.4,0.3c0.3,9.8,6.2,10.8,6.2,10.9c0,0,0.1,0,0.1,0
	c2.2-0.1,4.5-0.3,5.7-0.5c-1.3-1.3-2.1-4.4-2.2-7.4c0-1,0.1-2,0.3-2.9c0.8-3.4,3.2-11.6,3.2-21.3c0-2.1-0.1-4.2-0.4-6.4
	c-0.7-6.3-1.6-10.9-2.8-14.2c-0.7,0.8-1.2,1.3-1.2,1.4l-2.9,2.4c-1,1.6-4.1,3.2-5,3.9c-0.7,0.5-1.4,0.8-2.1,0.9l0,0l-2.6,10.2
	c0,0.2-0.2,0.3-0.4,0.3c-0.2,0-0.3-0.2-0.2-0.4l2.5-9.9c-0.2,0-0.3,0-0.5,0c-0.4,0-0.8,0-1.1-0.1c-10.2,12.2-12.6,27.2-13.1,31.6
	c0.2-0.3,0.4-0.6,0.6-0.7c0.5-0.4,1.5-1.1,2.6-2c3.3-2.7,8.4-6.9,9.5-8.5c0.3-0.5,0.8-0.9,1.1-1.1l0.1,0c1.4-1,3.1-1.1,4.1-1.1
	c0.5,0,0.8,0,0.8,0c0.2,0,0.3,0.2,0.3,0.4c0,0.2-0.2,0.3-0.4,0.3c0,0-0.3,0-0.7,0c-0.9,0-2.3,0.1-3.5,0.8c0,0.2,0,0.5,0,0.7
	c0,8-7.5,18.4-8.2,19.7c-0.2,0.3-0.2,0.8-0.2,1.4c0,0.7,0.1,1.4,0.2,2c0.1,0,0.1,0,0.2,0.1v0c0,0,0.1,0,0.2,0c0.2,0,0.4,0.1,0.7,0.1
	c0.6,0.1,1.4,0.1,2.4,0.2c0.9,0.1,1.8,0.1,2.9,0.2c-2-1.2-3.8-3.3-3.9-3.3c-0.1-0.1-0.1-0.4,0-0.5c0.1-0.1,0.4-0.1,0.5,0
	c0,0,3,3.3,5.2,3.8c0,0,0.1,0,0.1,0C124.8,110.5,125.5,110.5,126.2,110.5 M59.3,110c0.1,0,0.1,0,0.2,0.1c0.1-0.1,0.1-0.1,0.1-0.1v0
	h0h0c-0.1-0.3-0.4-1.3-0.4-1.3l-0.4-1.4l-0.4-0.9l-0.3-1c0-0.1,0-0.2,0-0.3c0.1-0.1,0.2-0.2,0.3-0.2c0.1,0,0.2,0.1,0.3,0.2l1.6,2.2
	l0.8,1.4c0,0,0.1,0.1,0.2,0.1c0.1,0,0.1,0.1,0.2,0.1c0.2-0.1,0.2-0.1,0.2-0.2c0,0,0-0.1-0.1-0.2c-0.2-0.6-0.7-1.7-0.7-1.7
	c0,0-0.7-1.4-1.3-1.8c-0.1-0.1-0.2-0.3-0.1-0.4c0.1-0.1,0.3-0.2,0.4-0.2l1.5,0.6l1.9,1.2c0,0,0,0,0,0c0-0.1-0.1-0.1-0.1-0.2
	c-0.2-0.2-1.6-2-1.6-2c0,0-0.7-0.5-1-0.6c0,0-0.3-0.2-0.5-0.6c0,0,0,0-0.1-0.1c-0.1-0.1-0.2-0.2-0.3-0.3c-0.2-0.2-0.5-0.5-0.6-0.5
	c0-0.1-1.5-0.9-1.7-1c-0.4-0.1-1.7-0.1-1.8-1.2c0,0,0-0.1,0-0.1c0.1-0.8,1.5-4.1,1.6-4.2l1-2.1c0,0,0.2-0.3,0.4-0.8
	c0.5-1,1.2-2.6,1.2-3.2c0-0.2,0.1-0.3,0.3-0.3c0,0,2.4-0.5,2.3-1.2c0-0.3,0.1-0.6,0.1-0.9c0-0.9-0.5-2.3-5.9-4.3
	c-0.5,0.4-2.1,1.6-2.9,3.4c-0.5,1.1-1.1,2.4-1.4,3.9c-0.3,1.3-0.6,2.8-0.6,4.4c0,0.2,0,0.4,0,0.6c0.1,1.5,0.1,3,0.2,4.4
	c0,0.1,0,0.1,0,0.2c0.2,2.2,0.6,4.1,1.4,4.7c0,0,1.1,0.9,1.2,1c0.1,0.1,1,0.6,1.3,1.1c0.1,0.2,0.3,0.7,0.3,1.1c0,0.1,0,0.2-0.1,0.4
	c-0.2,0.2-0.5,0.4-0.7,0.5c0,0,0,0,0,0c0,0-0.1,0.1-0.1,0.3c0,0.1,0,0.1,0,0.1c0.3-0.3,0.6-0.4,0.9-0.5c0,0,0.3-0.1,0.6-0.3
	c0.3-0.1,0.4-0.3,0.4-0.3c0-0.4,0-0.7,0-0.8c0,0,0,0,0-0.1l0,0c0,0,0,0,0,0l0,0l0,0c0.1-0.1,0.2-0.2,0.3-0.2c0.1,0,0.3,0.1,0.3,0.2
	L59.3,110C59.3,110,59.3,110,59.3,110 M86.7,109.1c0,0.2,0,0.5,0.2,0.6c0.1-0.3,0.3-0.7,0.4-1.1c0.2-0.9,0.8-3,1.5-4
	c0.8-1.1,2.1-1.2,2.1-1.2c0.2,0,0.4,0.1,0.4,0.3l0,0.5c0.3-0.5,0.5-1.2,0.5-1.9c0-0.3,0-0.7-0.1-1c-0.4-1.6-0.5-2.5-0.5-3.2
	c0-0.5,0.1-0.9,0.2-1.3c0.3-0.7,3.8-4.8,6.2-9.3c0.3-0.5,0.5-0.9,0.7-1.4c0.9-1.8,1.5-3.6,1.5-5.1c0-0.2,0-0.3,0-0.5l0-0.2l2-4.3
	c-0.5,0.2-0.8,0.3-0.9,0.3L94.4,77v0c0,0-0.5,1.7-1,2.2c-0.3,0.3-1.3,0.8-2.3,3.8c-0.5,1.4-0.9,3.3-1.2,5.9c0,0-0.6,2.1-1.2,4.2
	c-0.5,1.8-1.1,3.6-1.4,4.4c-0.7,1.5-1.6,2.8-1.6,3.6c0,0.4,0,0.8,0,1.2c0,0.4,0,0.8,0.2,1.1c0,0,0.1,0.1,0.1,0.2c0,0,0,0.1,0,0.1
	c0.1,0.2,0.3,0.4,0.5,0.5l0.1,0.2L86.7,109.1L86.7,109.1z M111.4,66.9c0.2,0,0.3,0.2,0.3,0.4c-0.1,0.7-1.1,4.2-1.1,4.9
	c0,0.3-0.1,0.6-0.1,1c0,0.4,0.1,0.8,0.2,1.2c0.4,0.9,0.8,3,0.8,4.2c0,0.1,0,0.1,0,0.2c-0.1,1-0.5,3.7-0.9,5.3
	c-0.1,0.3-0.1,0.5-0.2,0.7l-0.2,0.9l-1.3,2.9c0,0-2.2,4.3-2.6,5.2c-0.3,0.7-1.1,2.3-1.1,4.8c0,1.2,0.2,2.5,0.8,4.1l0.7,2.7
	c1.3,3.9,1.5,4,2.8,4.2c0,0,0.1,0,0.1,0.1c0.1-0.5,0.2-1,0.2-1.3c0,0,0,0,0,0c0,0,0,0,0,0c0-0.9,0.6-2.4,1.4-4.3
	c0.6-1.5,1.2-6.2,1.4-7.8c-0.9,0.7-1.6,1.3-2.1,1.6c-0.2,0.1-1.2,1.6-1.2,1.6c-0.1,0.1-0.2,0.2-0.4,0.1c-0.2-0.1-0.3-0.2-0.2-0.4
	c0,0,1.1-18.4,13.2-33c-3.6-1-6.9-4.5-8.2-6c0,0.1,0,0.2,0,0.3c0,0-0.8,3.3-3.4,4.3c-0.1,0-0.7,0.4-0.9,0.5
	c-0.8,1.5-1.5,3.3-1.5,3.3c-0.2,0.4-0.4,0.7-0.6,1c0,0,0,0.1,0,0.1c0,0-2.3,3.9-3.2,4.9c-0.4,0.4-0.9,0.7-1.4,1c0,0.1,0,0.1,0,0.2
	l0,0l-2.1,4.6c0,0.1,0,0.3,0,0.4c0,1.5-0.5,3.2-1.3,4.9c2.8-0.6,5.3-0.9,7.2-1.1h0c1.8-0.2,3.1-0.2,3.5-0.2c0-0.2,0.1-0.3,0.1-0.5
	c0.4-1.5,0.8-4.2,0.9-5.1c0-0.1,0-0.1,0-0.2c0-1-0.5-3.1-0.8-3.9c-0.2-0.5-0.3-1-0.3-1.5c0-0.4,0-0.7,0.1-1.1
	c0.1-0.8,1.1-4.3,1.1-4.9v0C111,67,111.2,66.9,111.4,66.9C111.3,66.9,111.4,66.9,111.4,66.9 M96.3,104.9c0,0.5,0.1,1.2,1,1.3
	c0.7,0.1,1.4,0.1,2.1,0.1c1,0,1.8-0.1,2.2-0.3c0.6-0.3,1.1-1,1.1-1.3c0,0,0-0.1,0-0.1c-0.2-0.4-0.8-0.8-1.2-1.4
	c-0.4-0.5-0.8-1.3-0.9-2.1c0-0.1,0-0.2,0-0.4c0,0,0.2-0.8,0.2-1.1v0c0-0.1,0-0.4,0-0.7c0-0.6,0-1.4,0.4-1.9c0.3-0.5,3-4.6,3-4.6
	c0,0,1.2-1.8,1.7-7.2c-1.9,0.2-4.4,0.5-7.1,1.1c0,0.8-0.1,4.9-0.1,6.4c0,0.3,0,0.5,0,0.6c0,0.2,0,0.6,0,1.1c0,0.9-0.1,2-0.5,2.7
	c-0.6,0.8-1.2,2.3-1.2,2.8c0,0,0,0,0,0.1c0,0.3,0.1,0.7,0.1,1.1c0,0.5,0,0.9-0.1,1.2c-0.1,0.3-0.8,2.3-0.8,2.3
	C96.3,104.7,96.3,104.7,96.3,104.9 M34.8,94.3c0,0,0.2,2.1,0.9,2.9c0.1,0.1,0.1,0.2,0.2,0.3c1,1,3.5,2.6,6.5,2.8
	c1.4,0.1,2.8,0.2,4.2,0.2c1.9,0,3.5-0.3,4.6-1.2c-0.1-1.4-0.1-3-0.2-4.4c0-0.2,0-0.4,0-0.6c0-1.6,0.2-3,0.5-4.3c0,0,0,0,0,0
	c-1.6-1-4.9-4.3-6.5-6c-0.4,0.2-1.4,0.7-2.3,1.3c-0.6,0.4-1.1,0.8-1.4,1.1c-0.8,1-1.5,2.1-1.7,2.9c0,0.1,0,0.2-0.1,0.4v0.1
	c0,0.8,0.8,1.6,1.2,1.9c0,0,0,0,0,0c0.6,0.1,1.2,0.2,1.6,0.5c0.5,0.7,0.9,2.8,1,2.8c0.3,0.2,2.4,2,2.4,2c0.1,0.1,0.2,0.3,0,0.5
	c-0.1,0.1-0.3,0.2-0.5,0c0,0-2.2-1.8-2.4-2c-0.5-0.5-0.7-2.4-1.1-2.9c0-0.1-0.6-0.3-1.3-0.3c-0.9-0.1-2-0.1-2.5-0.1v0h0l0,0
	c-0.3,0-2.5,1.2-3.2,1.8C34.7,94.2,34.8,94.3,34.8,94.3 M29.9,90.4c-0.1,0.6-0.3,1.6-0.3,2.6c0,1.4,0.3,2.4,2.2,2.4h0
	c0.3-0.2,1.4-0.8,1.9-1.3c0.1-0.1,0.2-0.2,0.2-0.2c0.7-0.8,3.1-2.2,3.9-2.3h0c0,0,0.1,0,0.1,0c0,0,0,0,0,0c0.2,0,0.9,0,1.7,0
	c-0.4-0.5-0.8-1.1-0.8-1.8c0,0,0-0.1,0-0.1c0,0,0-0.1,0-0.1c-0.1-0.1-0.6-0.4-1.2-0.8c-0.6-0.4-1.3-0.8-1.3-0.8
	c-0.2,0-0.8-0.1-1.5-0.2c-0.6-0.1-1.2-0.2-1.6-0.2c0,0-0.1,0-0.1,0c-0.1,0-0.2,0-0.2,0C32.2,87.9,29.9,89.3,29.9,90.4 M86.1,94.6
	c0,0,0,0.1,0.1,0.3c0.1,0.1,0.1,0.2,0.1,0.2c0,0,0,0,0.2-0.2l0.6-0.9l0.7-1.1c0,0,0-0.1,0.1-0.1c0.6-2.1,1.2-4,1.2-4
	c0.3-2.5,0.7-4.3,1.2-5.7c-0.1-0.1-0.4-0.2-0.7-0.2c-0.4,0-0.8,0.1-1.4,0.6c-0.9,0.8-1.1,1-1.2,1.1c-1,1.4-0.9,1.2-1,1.5
	c-0.1,0.2-0.6,2.3-0.6,2.5h-0.3l0.3,0c0,0,0,0,0,0c0,0,0,0,0,0v0c0,0,0,0,0,0.1c0,0.4,0,0.8-0.3,1.2c-0.2,0.1-0.7,0.6-1.2,0.6
	c-0.1,0-0.2,0-0.3-0.2c0-0.1-0.2-0.4-0.5-0.6c-0.2-0.3-0.4-0.5-0.5-0.5c-0.1,0-0.2,0-0.2,0c0,0,0,0.1,0,0.1
	c-0.1,0.5-0.4,0.6-0.6,0.6c0,0,0.1,0.1,0.2,0.2l1,0.9c0,0,1,0.8,1.4,0.9c0.1,0,0.3,0,0.4,0c0.5,0,1-0.2,1.3-0.6
	c0-0.1,0.1-0.1,0.1-0.1c0.1-0.4,0.1-0.8,0.1-0.9c-0.3-0.3-0.4-0.8-0.4-1.1c0-0.4,0.1-0.9,0.1-1v0c0-0.2,0.2-0.3,0.4-0.3
	c0.2,0,0.3,0.2,0.3,0.4c0,0.2-0.1,0.6-0.1,0.9c0,0.4,0.1,0.6,0.2,0.6c0,0,0.5,0,0.5-0.5c0-0.9,0.5-1.4,0.5-1.6
	c0.1-0.2,0.2-0.3,0.4-0.2c0.2,0.1,0.3,0.2,0.2,0.4c-0.2,0.5-0.5,0.7-0.5,1.4c-0.1,0.9-0.8,1.1-1.1,1.1c0,0.2-0.1,0.7-0.2,1.1
	c-0.1,0.6-0.2,1.1-0.4,1.5C86.4,93.2,86.1,94.2,86.1,94.6L86.1,94.6L86.1,94.6z M62.4,93.7c0.1,0,0.1,0,0.2,0h0
	c2.6-0.4,4.6-1.9,5.3-3.1c0.5-1,0.9-2.1,0.9-3.4c0-1.5-0.5-3.2-2.2-5.3c-0.1-0.1-0.1-0.4,0.1-0.5c0.1-0.1,0.4-0.1,0.5,0.1
	c1.8,2.2,2.4,4.1,2.4,5.8c0,1.2-0.3,2.3-0.8,3.2c2.8-0.7,3.5-4.6,3.6-5.9v0c0-0.1-0.3-1.3-0.3-1.3c0,0-0.3-1.4-0.6-2.5
	c-0.1-0.5-3.5-5.3-3.8-5.7l0,0c-0.1-0.1-0.2-0.2-0.4-0.4l-0.1,0c-1.3-0.9-4.1-1.7-5-2c-0.1,0.2-0.4,0.3-0.6,0.4
	C61.1,73,60.7,73,60.3,73c-0.5,0-0.9-0.1-1-0.1c0,0-0.1-0.1-0.3-0.1c-0.1-0.1-0.2-0.1-0.3-0.1h0c0,0-0.3,0.2-0.4,0.3
	c-0.2,0.1-0.8,0.3-0.9,0.4c-0.1,0.2-0.3,0.8-0.4,1c-0.1,0.2-0.2,1.1-0.2,1.5c-0.1,0.3,0.1,0.9-0.4,1.3c0,0-0.6,0.5-1.2,0.6
	c-0.1,0-0.3,0-0.6,0c-0.3,0-0.7,0-1.1-0.3c-0.4-0.3-0.8-0.8-1.1-1.1c0,0-0.1-0.1-0.1-0.1l-3.2,1.4c0,0-3.4,0.9-4.4,1
	c-0.8,0-3.9,0.9-3.7,2.3c0,0,0,0,0,0.1c0,0.3,0,0.6,0,0.8c0,0.4,0,0.8,0,1.1c0,0.6,0,0.7,0.3,1c0.5,0.4,1,0.7,1.2,0.8
	c0.8-0.5,1.5-0.9,2-1.1C44.2,83.2,44,83,44,83c-0.1-0.1-0.1-0.4,0-0.5c0.1-0.1,0.4-0.1,0.5,0c0,0,0.3,0.3,0.8,0.8
	c1.5,1.6,4.8,5,6.4,6c0.4-1.4,0.9-2.6,1.4-3.6c1.1-2.3,3.3-3.8,3.3-3.8l0.3,0c5.6,2,6.5,3.7,6.6,5.1c0,0.4-0.1,0.7-0.1,0.9
	c-0.2,1.3-1.9,1.7-2.6,1.8c-0.1,0.7-0.7,1.9-1.1,2.7c0.1,0,0.1,0.1,0.2,0.1C59.7,92.6,60.5,93.7,62.4,93.7 M36.4,87.4
	c0.5,0.1,2,1.1,2.6,1.5c0.3-1,1-2,1.8-2.9c0.3-0.3,0.7-0.6,1.1-1c-0.3-0.2-0.6-0.4-0.9-0.7c-0.5-0.4-0.6-0.9-0.6-1.5
	c0-0.3,0-0.7,0-1.1c0-0.2,0-0.5,0-0.8c0-0.1,0-0.1,0-0.1c0.1-2.3,3.5-2.9,4.4-3c0.8-0.1,4.2-0.9,4.2-0.9l3-1.3
	c-0.2-0.4-0.3-0.8-0.3-1.4c0-0.2,0-0.3,0-0.5c0.2-1.2,0.9-2.3,0.9-2.3v0c0-0.1-1.2-3.4-1.2-3.4c0,0-1.9-2.6-2.3-3.4
	c-0.2-0.4-1.3-1.6-2.1-4.3c-0.9,0.1-4.1,0.5-7.9,0.5c-0.8,0-1.7,0-2.5-0.1c-0.2,0.2-2.1,2.3-2.1,5.5c0,3.5,1,8.6,1,10h-0.2l0.2,0
	c0,0.8-0.3,2.6-0.7,4.5c-0.1,0.6-0.4,1.7-0.4,2.9c0,1,0.1,2.1,0.6,3.2c0,0,0,0.1,0,0.1C35.7,87.3,36.3,87.4,36.4,87.4 M85.5,88.7
	C85.5,88.7,85.5,88.7,85.5,88.7L85.5,88.7L85.5,88.7z M84.8,88.6C84.8,88.6,84.8,88.6,84.8,88.6L84.8,88.6z M32.1,60.4
	c0,0-3,2-3,7.1v0.1c0,2.1,0.2,4.5,0.2,7c0,3.2-0.3,6.4-1.5,8.6c-0.2,0.3-0.3,0.6-0.5,0.8c0,0-0.7,1-0.7,1.3c0,0.1,0,0,0.2,0.1
	c1.3,0.1,2.2,0,3,0.8c0.3,0.3,0.6,0.6,0.7,0.7c0,0,0.7,0.2,1.6,0.2c0.3,0,0.5,0,0.8,0c0.1,0,0.2,0,0.2,0c0,0,0.1,0,0.1,0h0
	c0.3,0,0.6,0,0.9,0.1c-0.4-1.1-0.6-2.2-0.6-3.2c0-1.3,0.3-2.4,0.4-3.1c0.4-1.8,0.7-3.7,0.7-4.2c0-0.1,0-0.1,0-0.1c0-1.2-1-6.4-1-10
	c0-2.8,1.3-4.8,1.9-5.6C34.5,60.7,33.3,60.6,32.1,60.4C32.2,60.4,32.2,60.4,32.1,60.4 M23.4,84.4c0.3,0.1,0.7,0.3,1.1,0.4
	c0.5,0.2,1.1,0.3,1.4,0.4c0.1-0.8,0.8-1.5,0.8-1.5c0.2-0.2,0.3-0.5,0.5-0.8c1.1-2,1.4-5.1,1.4-8.3c0-2.4-0.1-4.8-0.2-6.9
	c0-0.1,0-0.1,0-0.2c0-4.2,1.9-6.4,2.8-7.3c-0.5-0.1-1-0.2-1.5-0.4c-0.3,0.3-2.6,2.7-2.7,6.9l-0.8,9.9c0,0.1,0,0.1,0,0.2
	c0,0.3-0.1,0.8-0.6,2.2c0,0-0.8,1.8-1.3,2.9c-0.3,0.7-0.4,0.8-0.5,1c-0.2,0.4-0.8,1-1,1.2c0,0,0,0.1,0,0.1l0,0
	C23.1,84.3,23.2,84.4,23.4,84.4 M27.6,60.4c-0.6,0.9-1.4,2.5-1.8,5.5c0,0-0.3,5.9-1.1,8.4c-1.5,3.2-4.7,6.4-4.7,6.4
	c0,0-0.3,0.3-0.2,0.6c0,0.2,0.1,0.5,0.4,0.7l2.3,1.6c0,0,0,0,0,0c0.2-0.1,0.7-0.8,0.9-1c0.1-0.1,0.1-0.2,0.4-0.9
	c0.5-1.1,1.3-2.9,1.3-2.9c0.5-1.4,0.6-1.9,0.6-2h0.1l-0.1-0.1l0.8-10.1c0.1-3.8,1.9-6.3,2.6-7.1c-0.2-0.1-0.4-0.1-0.5-0.2
	C28.4,59.5,28,59.8,27.6,60.4 M79.2,81.2c0,0,0.1,0,0.1,0C79.3,81.3,79.2,81.2,79.2,81.2C79.2,81.2,79.2,81.2,79.2,81.2 M68.2,74.5
	c0,0,2.6,3.7,3.6,5.3l4.6-1c1.3-0.7,1.4-1.1,1.5-1.2c0.4-0.6,1-0.5,1.3-0.6c0.3-0.1,1.6-0.9,1.9-1.1c0.3-0.2,0.6-0.3,0.9-0.3
	c0.2,0,0.4,0,0.5,0.1c0.4,0.2,0.6,0.5,0.6,0.7c0.2,0,0.5,0,0.7-0.1c0.4,0,0.8-0.1,0.7-0.1c0.6-0.2,0.8-0.7,0.8-1.2
	c0-0.3-0.1-0.7-0.2-0.9c-0.1-0.5-1.6-1.4-1.6-1.4c-0.1-0.1-0.1-0.1-0.2-0.2c0-0.1,0-0.2,0-0.3c0.2-0.3,0.2-0.5,0.2-0.6
	c0-0.3-0.3-0.5-0.3-0.5l-0.1-0.2c-0.2-0.6-0.7-0.8-1.2-0.9c-0.3-0.1-0.5,0-0.7-0.1c-0.6-0.1-2.3-1.4-2.8-1.7
	c-0.1-0.2-3.4-0.4-4.8-0.6c-0.1,0-0.2,0-0.3,0c-1,0-1.7,0.9-2,1.3c-0.3,0.4-0.8,0.8-1.4,0.9c-0.1-0.1-0.9,0.7-1.2,1.1
	c-0.2,0.3-0.5,0.5-0.7,0.7c-0.1,0.1-0.1,0.1-0.2,0.2c-0.2,0.1-0.4,0.5-0.4,1.1c0,0.6,0.2,1.3,0.2,1.3c0,0,0,0,0,0
	C68,74.2,68.1,74.3,68.2,74.5C68.2,74.4,68.2,74.4,68.2,74.5 M50.9,36.7c0.2,0.1,0.2,0.3,0.1,0.5c0,0-2.4,4.1-3,5.7
	c-0.5,1.2-0.8,3-0.9,4.1c0,0.3-0.1,0.6-0.1,0.7c0,0.5,0.1,3.3-0.2,5.5c0,0.4-0.1,0.7-0.1,1c0,0.1,0,0.3,0,0.4c0,1.2,0.2,1.7,0.2,1.8
	c0.1,1.4,0.3,2.5,0.6,3.5c0.7,2.8,1.8,3.9,2.1,4.5c0.3,0.6,2.3,3.3,2.3,3.3c0,0.1,1.3,3.2,1.3,3.8v0c-0.1,0.5-0.7,1.3-0.9,2.4
	c0,0.1,0,0.3,0,0.4c0,0.6,0.2,1,0.4,1.3c0.1,0.1,0.1,0.1,0.2,0.2c0.4,0.3,0.8,0.8,1.1,1.1c0.1,0.1,0.4,0.1,0.6,0.1
	c0.2,0,0.4,0,0.5,0c0.2,0,0.9-0.4,0.9-0.5c0,0,0.1-0.3,0.1-0.7c0-0.4,0.2-1.3,0.3-1.6c0-0.2,0.2-0.6,0.3-0.9c0-0.1,0-0.1,0-0.2l0,0
	c0-0.1,0.1-0.1,0.1-0.2c0.4-0.4,1-0.5,1-0.6c0.1,0,0.3-0.3,0.7-0.4c0,0,0.1,0,0.1,0l0,0c0.4,0,0.8,0.3,0.8,0.3c0,0,0.3,0.1,0.7,0.1
	c0.3,0,0.7,0,1.1-0.2c0.1,0,0.1-0.1,0.2-0.1c-0.1-0.1-0.3-0.2-0.5-0.3c-0.3-0.1-1.4-0.6-1.9-1c-0.1-0.2-1-0.5-1.3-0.5
	c-1-0.3-1.6-2.3-2.3-4.1c-0.5-1.7-0.9-3.8-0.9-6c0-0.1,0-0.2,0-0.2c0-0.1,0-0.1,0-0.1c0-2.1-1.5-5-1.9-6.1c-0.1-0.3-0.2-0.5-0.2-0.6
	c0-0.2-0.1-0.3-0.1-0.4c0-0.4,0.2-0.6,0.2-0.5c1.1-1,1.7-3.5,2.1-4.7c0.4-1.3,1.4-1.6,2.1-1.9c0.4-0.2,1.1-0.8,1.7-1.8
	c0.4-0.6,0.8-1.4,1.1-2.2c0.2-0.5,0.3-1.1,0.3-1.7c0-0.8-0.2-1.6-0.5-2.4c-0.4-0.7-0.9-1.4-1.7-2c-0.4-0.3-0.7-0.5-1.1-0.7
	c-1.2-0.6-2.5-0.8-3.2-0.8c0,0-0.1,0-0.1,0c-1.4,0.1-7.9,0.8-9.8,3c-1.6,1.8-2.7,3.2-2.7,4.4c0,0.6,0.2,1.1,0.7,1.7
	c1.4,1.8,3,3.3,4.2,3.3c0.2,0,0.4,0,0.6-0.1h0c0,0,0,0,0.1,0c0.2-1.1,0.4-2.7,0.9-3.9c0.7-1.7,3.1-5.8,3.1-5.8
	c0.1-0.1,0.2-0.2,0.3-0.2C50.8,36.7,50.9,36.7,50.9,36.7 M94.2,68.9C94,69,92.5,71,92.5,72.2c0,0.1,0,0.2,0,0.3
	c0.3,1.2,0.8,3.1,1,3.8l0.4-0.1l6.7-0.8c0,0,0.4-0.1,1-0.3c0.6-0.2,1.4-0.6,1.7-1c0.4-0.4,1-1.4,1.7-2.4c-0.6,0.3-1.1,0.4-1.5,0.4
	c-0.6,0-0.9-0.2-1-0.2c-0.1-0.1-0.8-0.3-1.1-0.5l-0.8,0.7c-0.1,0-0.2,0-0.3,0c-1.4-0.1-1.7-2-1.9-2.3c-0.1-0.3-0.6-0.5-0.6-0.5
	c-0.2,0-0.9-0.1-1.1-0.2c0,0-1.2-0.9-1.8-1.5C94.8,68,94.6,68.6,94.2,68.9 M100.4,71.5l0.7-0.7l0.4-0.1c0,0,0.4,0.1,0.7,0.3
	c0,0,0.1-0.1,0.1-0.1l0.7-0.4c0.2-0.1,0.4,0,0.5,0.1c0.1,0.2,0,0.4-0.1,0.5l-0.4,0.2c0.1,0.1,0.3,0.1,0.6,0.1c0.6,0,1.7-0.3,3-2.1
	c0.2-0.3,0.4-0.7,0.6-1c0,0,0.8-1.9,1.6-3.4l0.2-0.2c0.1-0.1,0.8-0.5,1.1-0.6c2.1-0.7,3-3.8,3-3.8v-0.3c0-0.2,0-0.5,0-0.8
	c0-0.2,0.1-0.4,0.3-0.4h0c0.1,0,0.2,0,0.3,0.1c0,0,4.4,5.7,8.9,6.6c0.4,0.1,0.8,0.1,1.3,0.1c0.8,0,1.6-0.2,2.3-0.6
	c-6.4-1.9-8.6-4.9-8.6-7.9c0-4,3.6-7.8,4.9-9c-0.3-0.1-0.7-0.1-1.1-0.1c-0.5,0-1.1,0.1-1.6,0.4c-4,1.6-6.3,8.5-6.3,8.6v0
	c0,0.2-0.2,0.3-0.4,0.3c-0.2,0-0.3-0.2-0.3-0.4c0.1-0.4,2.1-7.1,6.5-9.1c-0.6-0.1-1.2-0.1-1.8-0.1c-6.4,0-12.5,3.2-12.9,3.4
	c-1.2,0.5-2.1,1.4-2.5,1.8c0.1,0,0.2,0,0.3,0c0.2,0,0.4,0,0.6,0.1c0.1,0.1,0.8,0.4,1.4,0.6c0.4,0.2,0.9,0.3,0.9,0.3
	c0.6,0,2.2,0.7,2.4,0.7c0.3,0.1,1.2-0.2,1.5,0.7c0,0.1,0,0.1,0,0.2c-0.1,0.2-0.1,0.4-0.2,0.5c0.3,0.1,0.7,0.3,0.8,0.9c0,0,0,0,0,0.1
	c-0.1,0.3-0.3,0.7-0.3,0.8v0l0,0c0,0.1,0.7,1.1,0.8,1.4c0.1,0.2,0.1,0.4,0.1,0.6c0,0.2,0,0.5-0.3,0.7c-0.1,0.1-0.1,0.1-0.2,0.2
	c0.1,0.1,0.1,0.3,0.1,0.4c0,0.3-0.1,0.6-0.3,0.8c-0.1,0.1-0.4,0.5-0.6,0.8c-0.1,0.1-0.6,1-1,1.3c-0.4,0.3-0.9,0.2-1,0.3l0,0
	c-0.4,0.6-1.2,0.8-1.6,0.9c0,0,0,0-0.1,0c0,0-0.1,0-0.1,0c-0.2,0-0.9,0.5-1.5,0.5c-0.2,0-0.5-0.1-0.6-0.4c-0.2-0.4-0.2-0.8-0.2-1.2
	c0-0.3,0-0.6,0.1-0.8c0.2-0.5,0.6-0.8,0.6-0.9c0-0.1,0-0.2,0-0.3c0-0.1,0-0.2,0-0.2c0-0.1-0.5-0.4-0.5-1c0-0.2,0.1-0.5,0.3-0.7
	c0.5-0.5,1.6-2.5,1.7-3c0.1-0.1,0.1-0.3,0.1-0.4c0-0.3-0.1-0.5-0.1-0.5c0,0-1.5-0.9-1.6-0.9c-0.1,0-1.8-0.4-2.2-0.4v0v0l0,0
	c0,0-0.1,0-0.1,0c-0.2,0-0.4,0-0.6,0c-0.4,0-0.9,0.1-1,0.2c-0.5,0.3-1.6,0.7-1.8,0.8c-0.2,0.1-1.1,0.9-1.1,1l-1.2,1
	c0,0-1.4,1.3-1.5,4.3c0,0.2,0,0.3,0,0.5c0,0.5,0,1.1,0.1,1.8c0,0,0.2,1.3,1,2.2c0.1,0.2,1.9,1.5,1.8,1.6c0.1,0,0.8,0.1,0.8,0.1
	c0.3,0,0.9,0.3,1.2,0.9C99.3,70.1,99.9,71.6,100.4,71.5L100.4,71.5C100.4,71.5,100.5,71.5,100.4,71.5 M103.9,55
	c0.3,0.1,1.5,0.8,1.8,1.1c0.2,0.2,0.3,0.5,0.3,0.9c0,0.2,0,0.4-0.1,0.7c-0.2,0.6-1.3,2.6-1.9,3.3c-0.1,0.1-0.1,0.2-0.1,0.2
	c0,0.2,0.2,0.4,0.4,0.6c0.2,0.2,0.2,0.4,0.2,0.6c0,0.2,0,0.3-0.1,0.5c-0.2,0.4-0.6,0.7-0.6,0.9c0,0.1-0.1,0.3-0.1,0.6
	c0,0.3,0.1,0.8,0.2,1v0v0v0c0.3,0,0.9-0.4,1.4-0.5c0.1,0,0.1,0,0.1,0h0c0.1,0,0.8-0.2,1-0.3c0.1-0.1,0.1-0.1,0.1-0.1
	c0.4-0.7,1.3-0.5,1.3-0.6c0.1-0.1,0.7-1,0.9-1.2c0.1-0.2,0.4-0.6,0.6-0.9c0,0,0.1-0.2,0.1-0.3l0,0c-0.1-0.1-0.1-0.2-0.1-0.4
	c0.1-0.4,0.3-0.5,0.5-0.7c0,0,0-0.1,0-0.2c0-0.1,0-0.3-0.1-0.4c-0.1-0.2-0.7-1.1-0.8-1.5c0-0.1,0-0.2,0-0.2c0-0.4,0.3-0.8,0.3-0.8
	c0,0-0.1-0.1-0.2-0.1c-0.1-0.1-0.3-0.2-0.4-0.2c-0.2-0.1-0.3-0.3-0.3-0.4c0-0.3,0.2-0.5,0.2-0.7c0,0-0.1,0-0.2-0.1
	c-0.2,0-0.5-0.1-0.7-0.1c-0.4,0-2.1-0.7-2.4-0.7c-0.3,0-0.7-0.2-1.1-0.3c-0.6-0.2-1.2-0.5-1.5-0.7c0,0,0,0-0.1,0c0,0-0.1,0-0.2,0
	c-0.2,0-0.5,0-0.7,0.1c-0.4,0-0.8,0.1-1,0.1c-0.3,0-1.4,0.6-2,0.6l0,0l0,0l0,0c-0.2,0-1.1,0.7-2,1c-0.6,0-0.2,1.4-1.8,1.8
	c-0.3,0.1-0.5,0.2-0.7,0.5c-0.4,0.5-0.3,1.4-0.9,1.8c0,0,0,0,0,0.1c0,0.1,0,0.2,0.1,0.4c0,0,0,0,0,0c0.1,0.3,0.1,0.6,0.1,0.9
	c0,0.1,0,0.2,0,0.4c0,0,0,0.1,0,0.1c0,0.1,0,0.2,0.1,0.3c0.3-2.8,1.6-4.2,1.7-4.2l1.2-1c0,0,0.8-0.8,1.1-1c0.3-0.2,1.4-0.6,1.8-0.8
	c0.4-0.3,1-0.3,1.4-0.3c0.3,0,0.5,0,0.6,0h0c0.1,0,0.1,0,0.1,0c0,0,0,0,0,0C102.1,54.5,103.6,54.9,103.9,55 M123.2,48.6
	c-1,0.9-4.9,4.9-4.9,8.7c0,2.7,1.9,5.6,8.7,7.4c1.1-0.7,3.9-2.3,4.7-3.6l3-2.4c0,0,2.9-2.8,2.8-4.7c0-1.8-1.6-4.7-4.7-4.7
	c-0.3,0-0.6,0-0.9,0.1l-2.3,0.7l-0.3-0.1c-1.8-1.4-3.4-1.5-4.6-1.5c-0.3,0-0.5,0-0.7,0C123.6,48.6,123.4,48.6,123.2,48.6
	C123.2,48.6,123.2,48.6,123.2,48.6 M73.2,62.5c0.2,0.1,0.6,0.2,1,0.3c0.8,0.2,1.7,0.2,2.4,0.2c0.5,0,0.8,0,0.9-0.1
	c0.5-0.1,1.1-2.9,1.1-2.9c0-0.3,0-0.5,0-0.7c0-0.4,0-0.7-0.2-1.2c-0.1-0.3-0.2-0.6-0.3-0.9c-0.4-1-0.6-2-0.6-2.7c0,0,0-0.1,0-0.2
	v-0.1c0-0.4-0.3-1.2-0.6-1.6c-0.3-0.4-0.9-1-0.9-1.9c0-0.1,0-0.2,0-0.3c0.2-1.1,0.9-2.5,1.6-2.8c0.1,0,0.2-0.1,0.4-0.2
	c-0.1,0-0.1,0.1-0.2,0.1l-0.2,0c0,0-0.1,0-0.3,0c-0.5,0-1.3,0.1-1.9,1.3c0,0-0.8,0.6-1.1,1.2c0,0-1.3,3.9-1.5,5.1
	c-0.2,1.4-0.1,1.2-0.2,1.6c-0.3,0.7-2,2.3-2,3.2c0,0.2,0,0.3,0.2,0.4c0,0,0,0,0,0c1.3,0.9,1.8,1.1,2.1,1.9l0,0
	C72.9,62.3,73,62.4,73.2,62.5 M29.8,59.1c0.7,0.2,1.5,0.4,2.3,0.6c1.4,0.3,2.8,0.4,4.3,0.5c0.9,0.1,1.8,0.1,2.7,0.1
	c3.7,0,6.8-0.4,7.7-0.5c-0.2-0.9-0.4-2-0.5-3.1c0,0-0.2-0.7-0.2-1.9c0,0,0,0-0.1,0c-0.7,0.5-2.2,1.6-3.8,2.6
	C41.6,57.8,41,58,40.4,58c-1.7,0-3-1.4-3.8-2c-0.3-0.2-0.7-0.3-1.2-0.3c-1.1,0-2.7,0.4-4.2,0.6c-0.1,0-0.3,0-0.4,0
	c-1.1,0-2-0.6-2.7-1.2c-0.1,0.2-0.2,0.5-0.2,0.9c0,0.6,0.2,1.4,1,2.6C29.1,58.9,29.4,59,29.8,59.1 M85.8,60c0.2,0,0.5,0,0.8-0.1
	c0.5-0.2,1.1-0.8,1.1-0.8c0.3-0.3,0.3-0.4,0.3-0.6c0-0.2-0.1-0.5-0.1-0.9c0-0.1,0-0.3,0.1-0.4c0-0.1,0-0.1,0-0.2
	c0-0.4-0.4-0.8-0.4-0.8c-0.1-0.1-0.1-0.4,0-0.5c0,0,0.1-0.1,0.1-0.1c0-0.1-0.1-0.1-0.2-0.2c-0.2-0.2-0.4-0.3-0.4-0.3
	c-0.2-0.1-0.2-0.3-0.2-0.4c0-0.1,0-0.2,0-0.3c0-0.1,0-0.2,0-0.2c-0.2-0.5-0.4-1.4-0.4-1.4c0,0-0.2-0.8-0.2-0.8
	c-0.2-0.7-0.6-0.8-0.6-0.9l-0.2-0.3c0-0.2-0.5-0.6-0.5-0.6l-0.2-0.3c0-0.1,0-0.1,0-0.2c0.1-0.6-0.6-0.3-1.1-1.2
	c0-0.2-0.9-0.7-1.1-0.9c-0.2-0.5-1.3-0.7-1.4-0.7h0c-0.2,0-0.6,0.1-1,0.2c0.4,0,0.8,0.1,1.4,0.3c0,0,0.8,0.7,0.9,0.8
	c0.1,0.1,0.8,0.5,1.2,0.9c0.5,0.5,0.7,1,0.7,1.2c0,0.2-0.1,0.4-0.3,0.4c-0.2,0-0.4-0.1-0.4-0.3c0,0-0.1-0.5-0.5-0.8
	c-0.4-0.3-1-0.7-1.2-0.9c-0.2-0.1-0.8-0.7-0.8-0.8c-0.5-0.1-0.9-0.2-1.3-0.2c-1.1,0-1.7,0.4-2.1,0.5c-0.2,0-1.1,1.4-1.1,2.3
	c0,0.1,0,0.1,0,0.2c0,0.6,0.4,1,0.7,1.5c0.4,0.5,0.7,1.3,0.8,2c0,0,0,0.1,0,0.1v0.1c0,0.4,0.1,1,0.3,1.7c0.3,0.1,2.2,0.7,5.5,0.7h0
	c0.5-0.2,1.1-0.5,1.5-0.9c0,0,0,0,0-0.2c0-0.5-0.3-1.2-0.3-1.5c0,0,0-0.1,0-0.1c0,0,0-0.2-0.1-0.4c-0.7,0.4-1.7,0.6-1.7,0.6
	c-0.2,0-0.4-0.1-0.4-0.3c0-0.2,0.1-0.4,0.3-0.4c0,0,1.1-0.3,1.6-0.6c0,0,0.1,0,0.2-0.1c-0.1-0.6-0.2-1.2-0.2-1.3
	c0-0.2,0.1-0.4,0.3-0.4c0.2,0,0.4,0.1,0.4,0.3c0,0.2,0.3,2.2,0.3,2.5v0v0v0v0c0,0.1,0.3,1,0.3,1.6c0,0.2,0,0.5-0.3,0.7
	c-0.4,0.3-0.9,0.6-1.4,0.8c0,0.1,0,0.1,0,0.2c0,1.5,0.6,1.6,0.9,2C85.5,59.7,85.6,59.9,85.8,60C85.7,60,85.8,60,85.8,60 M92.5,59.7
	c0-0.2,0.1-0.5,0.4-0.6c0.1,0,0.2-0.8,0.6-1.6c0.2-0.4,0.6-0.7,1.1-0.8c1-0.1,0.4-1.2,1.7-1.8c0.9-0.2,1.6-0.9,2.3-1h0h0h0
	c0.2,0,1.4-0.5,1.8-0.6c0.1,0,0.4-0.1,0.7-0.1c0-0.1,0-0.2,0.1-0.2c0,0,1-1.3,2.5-2.1c-3-2.3-3.5-4.6-3.5-5.8c0-0.1,0-0.2,0-0.2l0,0
	l-0.3,0.2c0,0.2-0.1,0.4-0.2,0.7c-0.2,0.4-0.1,0.7-0.5,1l0,0c-0.1,0-0.1,0.1-0.2,0.1c0,0,0,0,0,0c-0.1,0-0.1,0-0.1,0v0l0,0
	c-0.6-0.3-1-1.4-1.1-1.4l0-0.3l0.7-2.5l0.3-2.5c-1.8,1.1-3.7,1.2-4.1,1.2c0,0,0,0-0.2,0c-1.4-0.4-2.2-2.2-2.5-3.1
	c0,0.1-0.1,0.1-0.1,0.2c0,0.1,0,0.1,0,0.2c0,0.2,0.1,0.6,0.2,1.2c0,0.2,0,0.4,0,0.6c0,0.7-0.1,1.4-0.2,1.8c-0.3,0.6-0.9,0.6-1.1,0.6
	h0c0,0,0,0,0,0c0,0,0,0-0.1,0c-0.1,0-0.2,0.1-0.3,0.1c-0.2,0.1-0.4,0.2-0.4,0.2c-0.1,0.1-0.3,0.1-0.4,0c-0.1-0.1-0.2-0.2-0.1-0.3
	c0,0,0.2-1,0.2-1.2c0-0.2-0.6-1.5-0.7-2c-0.2-0.6-0.6-3.9-0.6-4.8v0c0,0,0,0,0,0c0-0.9,0.8-3,0.9-3.3c0.1-0.5,0.6-2.1,1.1-2.8
	c0.1-0.2,0.3-0.4,0.5-0.7c-0.5-0.3-1.1-0.4-1.6-0.4c-1.4,0-2.5,0.8-2.5,0.8l-0.2,0.1c0,0-1.3,0.2-2.1,0.3c-0.6,0.1-1.1,0.3-2.9,2.4
	c-0.8,0.9-1,1.7-1,2.4c0,0.8,0.3,1.3,0.3,1.3v0c0,0,0,0.1,0,0.1h0c0.2,0,0.5,0,0.7,0.1c1.1,0.5,4,1.7,4.9,3.7
	c0.2,0.5,0.3,0.9,0.3,1.2c0.2-0.1,0.4-0.3,0.7-0.3L87,36.9c-0.1-0.2,0.1-0.4,0.2-0.4c0.2,0,0.4,0.1,0.4,0.3l1,4c0,0,0,0.1,0,0.1
	c0.6,1.6,0.7,3,0.7,4.2c0,2.7-1,4.2-1,4.2c0,0.1-1.2,2.8-1.3,3c0,0.2,0.1,0.3,0.1,0.4c0,0,0.2,1,0.3,1.2c0.1,0.2,0.1,0.4,0.1,0.6
	c0,0.1,0,0.1,0,0.2c0.3,0.2,0.7,0.5,0.8,1.1v0c0,0.1-0.1,0.2-0.1,0.3c0.2,0.2,0.3,0.6,0.3,1c0,0.1,0,0.3-0.1,0.4c0,0,0,0.1,0,0.2
	c0,0.1,0,0.2,0,0.3L92.5,59.7z M63,52.2c-0.2,0.3-0.6,1.1-0.6,2c0,0,0,0,0,0.1c0,0,0,0.1,0,0.1c0,0.3,0,0.6,0,0.9
	c0,0.6,0.1,0.9,0.6,1.2c0.3,0.1,0.5,0.3,0.8,0.4c0.8,0.4,1.6,0.9,2.5,0.9c0.4,0,0.9-0.1,1.4-0.4c0,0,0.6-0.2,0.6-1.2
	c0-0.2,0-0.3-0.1-0.5l0.2-0.4c0,0,0.6-0.4,0.6-0.8c0-0.1,0-0.1-0.1-0.3l-0.5-0.8c-0.1-0.1-0.1-0.2,0-0.3c0-0.1,0.1-0.2,0.3-0.2
	l1.6-0.3c0,0,0.2-0.1,0.3-0.2c0,0,0,0,0,0c-0.5-0.1-1.2-0.2-1.3-0.2c-0.3,0-1.9-0.3-1.9-0.3l-0.2,0c0.1,0.2,0.1,0.4,0.1,0.6
	c0,0.1,0,0.3-0.2,0.4c-0.3,0.2-0.9,0.5-1.4,0.5c-0.1,0-0.3,0-0.4-0.1l-0.4-0.2c-0.2-0.1-0.2-0.3-0.2-0.5c0.1-0.2,0.3-0.2,0.5-0.2
	l0.4,0.2c0,0,0,0,0.1,0c0.2,0,0.7-0.2,0.9-0.3c0-0.1-0.1-0.3-0.2-0.4l-1-0.3l-1-0.3C64.1,51.6,63.1,52,63,52.2 M37,55.4
	c0.9,0.6,2.1,1.8,3.4,1.8c0.4,0,0.9-0.1,1.4-0.5c1.3-0.9,2.5-1.7,3.3-2.3l-2.7-0.9c-0.6-0.2-3.6-1.4-4.1-1.4
	c-0.8-0.1-2.3-0.7-3.1-1.2c-0.9-0.6-2.2-2.6-2.3-3.5v0c0,0,0,0,0,0c0-0.4,0.2-2.4,0.5-4.2c-0.7,0.3-2.6,1.4-4.6,4.9
	c0,0-1.6,1.9-2.2,2.5c0,0-0.2,0.3-0.1,0.7c0,0.7,0.3,1.7,0.5,1.8c0.2,0.2,0.6,0.7,1.1,1.2c0,0,0.1,0.1,0.1,0.1c0,0,0,0,0,0.1
	c0.7,0.6,1.5,1.2,2.4,1.2c0.1,0,0.2,0,0.3,0c1.4-0.2,3-0.7,4.3-0.7C36,55,36.5,55.1,37,55.4 M56.1,53c0,0.3,0,0.6,0.2,0.8
	c0,0,1,2.8,4,3c0.2,0,1.2,0.1,2,0.1c-0.5-0.4-0.7-1.1-0.7-1.6c0-0.3,0-0.6,0-0.9c0-0.1,0-0.1,0-0.1c0,0,0-0.1,0-0.1
	c0-1.1,0.4-2,0.8-2.4c0.5-0.6,1.8-1,1.8-1l0.2,0l0.5,0.1c-0.6-0.6-1.9-1.6-1.9-1.6v0c-0.1,0-0.1-0.1-0.1-0.1c0,0,0,0-0.1,0
	C61.1,50,58,51,58,51l-1.8,0.9C56.2,52.1,56.1,52.5,56.1,53 M35.7,50.5c0.6,0.4,2.2,1.1,2.7,1.1c0.8,0.1,3.7,1.3,4.3,1.4l3.1,1
	c0,0,0,0,0,0c0.1-0.1,0.2-0.1,0.2-0.1v0c0,0,0,0,0.1,0c0-0.2,0-0.5,0.1-0.8c0.3-2.1,0.2-4.9,0.2-5.5c0-0.1,0-0.2,0-0.3
	c-0.2,0-0.4,0.1-0.6,0.1c-1.8,0-3.3-1.7-4.8-3.5c-0.6-0.7-0.8-1.4-0.8-2.2c0-1.6,1.2-3.1,2.8-4.8c1.4-1.5,4.4-2.3,6.8-2.8
	c-0.2,0-0.4,0-0.7,0c-1,0-2,0.1-2.8,0.2c-2.3,0.5-5.2,1.1-6.2,1.7c-1,0.6-2,2.7-3.2,3.4c-1,0.6-2.3,1.1-2.7,2.6
	c-0.1,0.3-0.1,0.7-0.2,1c-0.3,1.8-0.5,4.2-0.5,4.6c0,0,0,0,0,0C33.7,48,35.1,50.2,35.7,50.5 M57.2,46.3c-0.8,0.4-1.4,0.5-1.7,1.5
	c-0.4,1-0.9,3.5-2.2,4.8l2.3-1.2l2.2-1.1c0,0,3.2-1.1,4.9-1.9c0.5-0.2,0.8-0.4,0.9-0.5c0-0.2,0.1-0.7,0.1-1
	c-0.1,0.1-0.2,0.1-0.2,0.2l-1.8,1.2c-0.2,0.1-0.4,0.1-0.5-0.1c-0.1-0.2-0.1-0.4,0.1-0.5l1.8-1.2c0.2-0.1,0.4-0.3,0.6-0.5
	c0.6-0.8,0.8-1.9,0.8-2.5c0-0.1,0-0.3,0-0.3l-5,1.3l0,0c-0.1,0-0.2,0-0.3-0.1C58.4,45.4,57.7,46,57.2,46.3 M101.1,45.2
	c0,1,0.4,3.2,3.5,5.4c1-0.5,4.7-2.3,9.2-3c-0.3-0.4-0.9-1.1-2-2c-0.8-0.6-1.8-1.2-2.9-1.6c-0.2-0.1-0.3-0.3-0.2-0.4
	c0.1-0.2,0.3-0.3,0.5-0.2c0.9,0.4,1.8,0.9,2.5,1.4c0-0.8-1-2.7-1.1-2.7c-2.7-4.5-6.8-6.2-7.4-6.4c0,0.2-0.1,0.3-0.1,0.4
	c0,0,0,0.1,0,0.1c0,0.3,0.3,1.1,0.3,1.7c0,0.2,0,0.3-0.2,0.5c-0.1,0.2-0.3,0.3-0.4,0.4c-0.1,0.1-0.1,0.2-0.1,0.2
	c-0.1,0.2,0.1,1.4-0.5,2c-0.2,0.2-0.4,0.5-0.4,0.7c0,0.1,0.1,0.6,0.1,1.2c0,0.5,0,0.9-0.3,1.4c-0.1,0.2-0.3,0.3-0.4,0.4
	C101.1,44.7,101.1,44.9,101.1,45.2 M33.7,47.6L33.7,47.6L33.7,47.6z M99.1,46c0-0.1,0.1-0.2,0.1-0.4c0.1-0.4,0.2-0.8,0.2-0.8
	l0.1-0.2l0.4-0.3c0.3-0.2,0.5-0.2,0.7-0.2c0.1-0.1,0.2-0.2,0.3-0.4c0.1-0.2,0.2-0.5,0.2-0.9c0-0.5-0.1-1-0.1-1.2c0,0,0,0,0,0
	c0,0,0,0,0,0c0-0.3,0.2-0.8,0.7-1.2c0.1,0,0.3-1.2,0.3-1.5c0.1-0.6,0.6-0.7,0.7-1c0,0,0,0,0-0.1c0-0.4-0.2-1.2-0.3-1.6
	c0-0.1,0-0.2,0-0.2c0-0.3,0.1-0.7,0.2-1c0,0,0-0.1,0.1-0.2c0.1-0.3,0.3-1.7,0.3-2.1c0-0.1,0-0.1,0-0.1c0-0.1,0-0.1,0-0.2
	c0-0.5,0.3-0.9,0.4-1.3c0,0,0-0.1,0-0.1c0-0.4-0.8-2.1-1.3-3.2c-0.3-0.8-1.9-1-1.9-1L99.9,27c-1-1-2.7-1.2-3.6-1.2
	c-0.3,0-0.4,0-0.5,0c-0.1,0-2.4,0.6-2.6,0.8c-0.2,0.2-0.9,0.8-1.4,1.5c0,0,0,0,0,0c0,0.1-0.1,0.1-0.1,0.1c-0.3,0.3-0.5,0.6-0.6,0.8
	c-0.4,0.6-0.9,2.3-1,2.6c-0.1,0.5-0.9,2.6-0.9,3.2c0,0,0,0,0,0c0,0.8,0.5,4.2,0.6,4.5c0.1,0.4,0.7,1.7,0.8,2.2c0,0,0,0,0,0.1
	c0,0.1-0.1,0.3-0.1,0.5c0.1-0.1,0.3-0.1,0.5-0.1c0,0,0,0,0.1,0c0,0,0,0,0,0c0.1,0,0.2,0,0.3,0c0.1,0,0.1,0,0.1,0
	c0.1-0.2,0.2-1,0.1-1.6c0-0.2,0-0.4,0-0.5c-0.1-0.5-0.2-0.9-0.2-1.3c0-0.2,0-0.3,0.1-0.5c0.1-0.3,0.3-0.5,0.4-0.7
	c0.1-0.2,0.2-0.4,0.2-0.7c0-0.7,0.2-2,0.5-2.4c0.2-0.2,0.9-1.5,1.1-1.9c0.4-0.6,1.2-0.8,1.7-0.8c0,0,0.1,0,0.1,0
	c0.3,0,1,0.1,1.5,0.1c0.2,0,0.4,0,0.4,0c0.3-0.2,2.2-1.7,2.2-1.7c0.1-0.1,0.2-0.1,0.3-0.1c0.1,0,0.2,0.1,0.2,0.2
	c0,0,0.3,1.2,0.3,1.6c0,0.1,0.8,1.2,1.1,1.4c0.5,0.5,0.6,1.7,0.7,2.2c0,0,0,0.1-0.1,0.3l-2.4,3.9l0,0.1l-0.3,3.2l-0.7,2.4
	C98.7,45.4,98.9,45.8,99.1,46 M67.5,44.2c0.4,0.2,0.8,0.3,0.9,0.3c0,0,0,0,0,0c0.3-0.1,0.1,0,0.2-0.2c0.1-0.5,0.4-0.7,0.8-0.9l0,0
	c0,0,0.1-0.1,0.1-0.1l-0.5-0.5c-0.1-0.1-0.1-0.4,0-0.5c0.1-0.1,0.4-0.1,0.5,0l0.6,0.6c0.2,0,0.5-0.1,0.5-0.1
	c0.1-0.1,0.5-0.5,0.5-0.5c0,0,0,0,0,0c0,0,0.1,0,0.1-0.1c0,0,0,0,0,0h0c0,0,0.1,0,0.1,0c0.1,0,0.1,0,0.2,0c0,0,0,0,0,0c0,0,0,0,0,0
	c0,0,0,0,0.1,0c0,0,0.3,0.3,0.3,0.2c0,0,0,0,0.1-0.3c0.2-1.2,1.3-3.7,1.5-4.2c0.1-0.2,0.2-0.4,0.3-0.5c-0.5-0.2-0.8-0.2-1.8-0.8
	l-0.9-0.7c0,0.4-0.1,0.8-0.5,1.2c-0.4,0.4-0.8,0.5-1.1,0.5c-0.1,0-0.1,0-0.1,0l0,0h0c-0.1,0-0.8,0.6-1.3,0.9
	c-0.4,0.2-1.2,1.1-2.4,1.1c0,0-1.1,0.2-2,0.2c-0.3,0-0.6,0-0.9-0.2c-0.1,0-0.2-0.1-0.3-0.1c-0.3,0-0.7,0.1-1.1,0.1
	c-0.2,0-0.6,0-0.8-0.4c0-0.1-0.1-0.2-0.2-0.3c0.1,0.4,0.1,0.7,0.1,1.1c0,0.6-0.1,1.3-0.3,1.9c-0.2,0.7-0.5,1.3-0.9,1.9l4.8-1.2
	l0.2,0l0.3,0.2l2,1.1C66.9,43.9,67.1,44,67.5,44.2 M79.7,43.3c0.2,0.1,0.6,0.2,0.9,0.2c0.3,0,0.7-0.1,1.1-0.3c1.2-0.7,2-0.7,2-1.1
	c0-0.1,0-0.1,0-0.2c0-0.1,0-0.3-0.1-0.5c-0.5-1.7-0.1-1-0.6-1.4c-0.4-0.3-0.8-0.8-0.8-0.8l0,0c-0.1,0-0.1,0-0.2,0c0,0,0,0-0.1,0
	c0,0.1,0,0.1-0.1,0.2c0,0,0,0.1,0.1,0.2c0,0,0.1,0.2,0.2,0.4c0.2,0.4,0.5,0.9,0.5,0.9v0c0.1,0.2,0,0.4-0.1,0.5
	c-0.2,0.1-0.4,0-0.5-0.1c0,0-0.2-0.3-0.4-0.7c0,0,0,0,0,0l-1.2-0.7c-0.5-0.3-0.9-0.4-1.3-0.4c-0.2,0-0.5,0-0.8,0.1
	c-0.2,0-0.4,0-0.6,0.1c-1.2,0.1-2.4,0.8-2.5,0.8c0,0-0.5,0.2-0.8,0.4c0.1,0.2,0.4,0.4,0.9,0.4h0c0.3,0,0.5,0,0.6,0l0,0
	c0,0,0-0.1,0.1-0.1c0.1-0.2,0.4-0.3,0.6-0.3c0.2,0,0.4,0.1,0.5,0.3c0,0.1,2.1,2.1,2.2,2.1C79.3,43.1,79.4,43.2,79.7,43.3 M81.9,38.5
	c0.3,0,0.5,0.1,0.7,0.2c0.1,0.1,0.4,0.4,0.8,0.8c0.3,0.2,0.6,0.3,0.8,1.8c0,0.2,0.1,0.3,0.1,0.5c0.4-0.1,1-0.2,1.3-0.4
	c0.2-0.1,0.4-0.2,0.5-0.4c0.1-0.2,0.2-0.4,0.2-0.7c0-0.3-0.1-0.7-0.3-1.1c-0.6-1.5-3.5-2.9-4.5-3.3c-0.1-0.1-0.3-0.1-0.4-0.1
	c-0.1,0-0.2,0-0.3,0c-0.7,0.1-1.4,0.7-1.8,1c-0.3,0.2-0.4,1.5-0.5,2c0.2,0,0.3,0,0.5,0c0.6,0,1.1,0.1,1.7,0.5l0.4,0.2
	c0,0,0-0.1,0-0.1c0-0.2,0-0.4,0.2-0.6C81.5,38.5,81.7,38.5,81.9,38.5L81.9,38.5z M74.3,40.8L74.3,40.8L74.3,40.8z M92.6,37.5
	c0,0,0.9,2.9,2,3.2c0,0,0.1,0,0.1,0c0.3,0,2.5-0.1,4.2-1.4c0,0,0,0,0.1,0v0l0.9-1.5c-0.3,0-0.6-0.1-0.8-0.2l0,0.1
	c0,0.2-0.2,0.3-0.4,0.3c-0.2,0-0.3-0.2-0.3-0.4l0-0.2c-0.3-0.1-0.5-0.2-0.5-0.2l0,0c-0.2-0.1-0.2-0.3-0.1-0.5
	c0.1-0.2,0.3-0.2,0.5-0.1c0,0,1,0.6,1.9,0.6c0,0,0,0,0.1,0l1.1-1.7v0c0-0.3-0.3-1.7-0.4-1.7c-0.3-0.3-1.2-1.2-1.3-1.8
	c0-0.2-0.1-0.6-0.2-1c-0.6,0.5-1.5,1.2-1.8,1.4c-0.2,0.1-0.5,0.1-0.7,0.1c-0.6,0-1.4-0.1-1.6-0.1c-0.3,0-1,0.3-1,0.4
	c-0.2,0.4-0.9,1.7-1.1,2c-0.1,0.1-0.4,1.5-0.3,2C92.8,37,92.7,37.2,92.6,37.5C92.6,37.4,92.6,37.5,92.6,37.5 M63.3,39.1
	c0,0,0.3,0.1,0.6,0.1c0.8,0,1.9-0.2,1.9-0.2c1,0,1.6-0.7,2.1-1c0.4-0.2,1-0.9,1.6-1c0,0,0,0,0,0c0.1,0,0.1,0,0.1,0
	c0.2,0,0.2,0,0.6-0.3c0.2-0.2,0.3-0.8,0.3-1.1c0-0.1,0-0.2,0-0.2c0-0.1,0.1-0.3,0.2-0.3c0.1-0.1,0.3-0.1,0.4,0l1.4,1.1
	c1.1,0.7,1.1,0.5,2,0.9c0.3,0.1,0.6,0.2,0.8,0.2c0,0,0.1,0,0.1,0c0.9-0.2,0.6-0.3,0.8-0.6c0-0.2,0.2-0.8,0.2-1.5
	c0-0.8-0.2-1.5-1-1.7l-0.2-0.2c0,0-0.9-1.9-2.3-1.9c-0.1,0-0.2,0-0.4,0l-0.3-0.1c0,0-0.5-0.4-1.3-0.8c-0.8-0.4-1.8-0.8-2.9-0.7
	c-0.2,0-0.5,0-0.8,0.1c0,0-1.1-0.2-2.3-0.2c-1.5,0-2.8,0.3-2.8,1.2c0,0.2-0.1,0.3-0.3,0.3c0,0-0.8,0.1-1.7,0.4
	c-0.9,0.2-1.5,0.7-1.5,0.9h0c0,0,0,0,0,0.1c0,0.2-0.1,0.3-0.3,0.4c0,0-0.3,0.1-0.5,0.1h0c-0.2,0.1-0.8,0.7-0.8,1.1
	c0,0.1,0,0.1,0,0.2v0c0,0,0,0.1,0,0.1c0.3,0.2,0.6,0.4,0.9,0.6c0.8,0.7,1.5,1.4,1.8,2.2c0,0.1,0.1,0.2,0.1,0.3
	c0.6,0.4,1,0.9,1.2,1.3c0,0,0.1,0,0.2,0c0.3,0,0.7-0.1,1.1-0.1C62.9,39,63.1,39,63.3,39.1 M44,83L44,83L44,83L44,83z M79.2,79.6
	c-0.1-0.1-0.1-0.4,0-0.5l0-0.1c-0.2-0.1-0.4-0.3-0.5-0.5c-0.1-0.2,0-0.4,0.1-0.5c0.2-0.1,0.4,0,0.5,0.1c0.1,0.3,1.2,0.6,1.3,0.6v0
	c0.2,0,0.3,0.2,0.2,0.4c0,0.2-0.2,0.3-0.4,0.2c0,0-0.2-0.1-0.5-0.2l-0.3,0.2c-0.1,0.1-0.1,0.1-0.2,0.1
	C79.4,79.7,79.3,79.6,79.2,79.6 M101.2,68.9l-0.3-0.3l-1,0.2c-0.2,0-0.4-0.1-0.4-0.3c0-0.2,0.1-0.4,0.3-0.4l2.9-0.6
	c0.2,0,0.4,0.1,0.4,0.3c0,0.2-0.1,0.4-0.3,0.4l-1.1,0.2l0,0c0.1,0.1,0.1,0.4,0,0.5c-0.1,0.1-0.2,0.1-0.2,0.1
	C101.4,69,101.3,69,101.2,68.9 M101.5,55.2L101.5,55.2L101.5,55.2z M78.8,51.4c-0.1-0.1-0.2-0.3-0.1-0.5c0.1,0,0.8-1.3,1.8-1.4
	c0.1,0,0.3,0,0.5,0.2c0.1,0.1,0.2,0.3,0,0.5c-0.1,0.1-0.3,0.2-0.5,0l0,0c0,0-0.1,0-0.1,0c0,0,0,0,0.1,0.1l0.1,0.2
	c0.1,0.2,0.1,0.4-0.1,0.5c-0.2,0.1-0.4,0.1-0.5-0.1L80,50.7c0,0,0,0,0,0c-0.3,0.3-0.6,0.7-0.6,0.7l0,0c-0.1,0.1-0.2,0.1-0.3,0.1
	C79,51.5,78.9,51.5,78.8,51.4 M95.8,40.1c-0.8-0.1-1.3-0.5-1.3-0.5c-0.1-0.1-0.2-0.3,0-0.5c0.1-0.2,0.3-0.2,0.5,0
	c0,0,0.4,0.3,0.9,0.3c0.2,0,0.3,0.2,0.3,0.4C96.2,40,96,40.1,95.8,40.1L95.8,40.1z M71.8,40l-0.6-0.4L71,39.9
	c-0.1,0.2-0.3,0.2-0.5,0.1c-0.2-0.1-0.2-0.3-0.1-0.5l0.2-0.3l-0.6-0.4c-0.2-0.1-0.2-0.3-0.1-0.5c0.1-0.2,0.3-0.2,0.5-0.1l1.8,1.2
	c0.2,0.1,0.2,0.3,0.1,0.5c-0.1,0.1-0.2,0.2-0.3,0.2C72,40.1,71.9,40.1,71.8,40 M96.1,39c-0.6,0-0.9-0.2-1-0.6c0-0.1,0.1-0.2,0.1-0.3
	c0.1-0.1,0.4-0.1,0.5,0c0,0,0,0,0,0.1c0.1,0,0.2,0,0.4,0.1c0.2,0,0.3,0.2,0.3,0.4C96.4,38.9,96.3,39,96.1,39L96.1,39z M94.8,36.3
	c-0.2,0-0.3-0.2-0.3-0.4l0-0.3c-0.5-0.2-0.7-0.4-0.8-0.4v0c-0.2-0.1-0.2-0.3-0.1-0.5c0.1-0.2,0.3-0.2,0.5-0.1c0,0,1,0.6,1.9,0.6
	c0.2,0,0.3,0.2,0.3,0.3c0,0.2-0.2,0.3-0.3,0.3c-0.3,0-0.6,0-0.8-0.1l0,0.2C95.1,36.2,95,36.3,94.8,36.3
	C94.8,36.3,94.8,36.3,94.8,36.3"/>
</svg>
