<?xml version="1.0" encoding="utf-8"?>
<!-- Generator: Adobe Illustrator 22.1.0, SVG Export Plug-In . SVG Version: 6.00 Build 0)  -->
<svg version="1.1" id="Layer_1" xmlns="http://www.w3.org/2000/svg" xmlns:xlink="http://www.w3.org/1999/xlink" x="0px" y="0px"
	 viewBox="0 0 69.7 57.3" style="enable-background:new 0 0 69.7 57.3;" xml:space="preserve">
<style type="text/css">
	.st0{clip-path:url(#SVGID_2_);fill:#010101;}
	.st1{clip-path:url(#SVGID_4_);fill:#010101;}
	.st2{clip-path:url(#SVGID_6_);fill:#010101;}
	.st3{clip-path:url(#SVGID_8_);fill:#010101;}
	.st4{clip-path:url(#SVGID_10_);fill:#010101;}
	.st5{clip-path:url(#SVGID_12_);fill:#231F20;}
	.st6{clip-path:url(#SVGID_14_);fill:#231F20;}
	.st7{clip-path:url(#SVGID_16_);fill:#231F20;}
	.st8{clip-path:url(#SVGID_18_);fill:#231F20;}
	.st9{clip-path:url(#SVGID_20_);fill:#231F20;}
	.st10{clip-path:url(#SVGID_22_);fill:#231F20;}
	.st11{clip-path:url(#SVGID_24_);fill:#231F20;}
	.st12{clip-path:url(#SVGID_26_);fill:#231F20;}
	.st13{clip-path:url(#SVGID_28_);fill:#231F20;}
	.st14{clip-path:url(#SVGID_30_);fill:#231F20;}
	.st15{clip-path:url(#SVGID_32_);fill:#231F20;}
	.st16{clip-path:url(#SVGID_34_);fill:#231F20;}
	.st17{clip-path:url(#SVGID_36_);fill:#231F20;}
	.st18{clip-path:url(#SVGID_38_);fill:#231F20;}
	.st19{clip-path:url(#SVGID_40_);fill:#010101;}
</style>
<g>
	<g>
		<g>
			<defs>
				<rect id="SVGID_1_" x="-0.1" y="-0.3" width="74.7" height="60.6"/>
			</defs>
			<clipPath id="SVGID_2_">
				<use xlink:href="#SVGID_1_"  style="overflow:visible;"/>
			</clipPath>
			<path class="st0" d="M44.1,57.4V42h25V-0.3H26.8v13.5H-0.1v28.8h26.8v15.4L44.1,57.4L44.1,57.4z M1.8,15.2h24.9v24.9H1.8
				C1.8,40.2,1.8,15.2,1.8,15.2z M42.2,55.4H28.7V42h13.5C42.2,42,42.2,55.4,42.2,55.4z M67.2,40.2H28.7V1.7h38.5L67.2,40.2
				L67.2,40.2z"/>
		</g>
	</g>
	<g>
		<g>
			<defs>
				<rect id="SVGID_3_" x="-0.1" y="-0.3" width="74.7" height="60.6"/>
			</defs>
			<clipPath id="SVGID_4_">
				<use xlink:href="#SVGID_3_"  style="overflow:visible;"/>
			</clipPath>
			<path class="st1" d="M9.1,25.8c-0.5,0-1-0.1-1.5-0.2c-0.5-0.2-0.8-0.4-1.2-0.7c-0.3-0.3-0.6-0.7-0.8-1.1
				c-0.2-0.4-0.2-0.9-0.2-1.4l0,0c0-0.5,0.1-0.9,0.2-1.4C5.8,20.5,6,20,6.4,19.7c0.3-0.3,0.7-0.6,1.2-0.8c0.5-0.2,0.9-0.2,1.5-0.2
				c0.6,0,1,0.1,1.5,0.2c0.5,0.2,0.8,0.4,1.2,0.7c0.3,0.3,0.6,0.7,0.8,1.1c0.2,0.4,0.2,0.9,0.2,1.4l0,0c0,0.5-0.1,0.9-0.2,1.4
				c-0.2,0.4-0.4,0.8-0.8,1.2c-0.3,0.3-0.7,0.6-1.2,0.8C10.1,25.7,9.6,25.8,9.1,25.8 M9.1,24c0.2,0,0.5-0.1,0.7-0.2
				c0.2-0.1,0.4-0.2,0.5-0.4c0.2-0.2,0.2-0.3,0.3-0.6c0.1-0.2,0.1-0.5,0.1-0.7l0,0c0-0.2-0.1-0.5-0.1-0.7c-0.1-0.2-0.2-0.4-0.3-0.6
				c-0.2-0.2-0.3-0.3-0.6-0.4c-0.2-0.1-0.5-0.2-0.7-0.2c-0.2,0-0.5,0.1-0.7,0.2C8,20.6,7.8,20.8,7.7,21c-0.2,0.1-0.2,0.3-0.3,0.5
				c-0.1,0.2-0.1,0.5-0.1,0.7l0,0c0,0.2,0.1,0.5,0.1,0.7c0.1,0.2,0.2,0.4,0.3,0.6c0.1,0.2,0.3,0.3,0.6,0.4C8.6,23.9,8.8,24,9.1,24"
				/>
		</g>
	</g>
	<g>
		<g>
			<defs>
				<rect id="SVGID_5_" x="-0.1" y="-0.3" width="74.7" height="60.6"/>
			</defs>
			<clipPath id="SVGID_6_">
				<use xlink:href="#SVGID_5_"  style="overflow:visible;"/>
			</clipPath>
			<path class="st2" d="M19.9,25.8c-0.5,0-0.9-0.1-1.4-0.2c-0.5-0.2-0.8-0.4-1.1-0.7c-0.3-0.3-0.6-0.7-0.7-1.1
				c-0.2-0.4-0.2-0.9-0.2-1.4l0,0c0-0.5,0.1-0.9,0.2-1.4c0.2-0.4,0.4-0.8,0.7-1.2c0.3-0.3,0.7-0.6,1.2-0.7c0.4-0.2,0.9-0.2,1.4-0.2
				c0.3,0,0.7,0.1,0.9,0.1c0.2,0.1,0.5,0.2,0.8,0.3c0.2,0.1,0.5,0.2,0.7,0.5c0.2,0.2,0.3,0.3,0.5,0.6l-1.4,1.1
				c-0.2-0.2-0.4-0.4-0.7-0.6s-0.5-0.2-0.8-0.2c-0.2,0-0.5,0.1-0.7,0.2C19,20.7,19,20.9,18.8,21c-0.2,0.2-0.2,0.3-0.3,0.6
				s-0.1,0.5-0.1,0.7l0,0c0,0.2,0.1,0.5,0.1,0.7c0.1,0.2,0.2,0.4,0.3,0.6c0.2,0.2,0.3,0.3,0.5,0.3c0.2,0.1,0.4,0.2,0.7,0.2
				c0.2,0,0.3,0,0.5-0.1c0.2-0.1,0.2-0.1,0.4-0.2c0.1-0.1,0.2-0.2,0.3-0.2c0.1-0.1,0.2-0.2,0.3-0.3l1.4,1c-0.2,0.2-0.3,0.4-0.5,0.7
				c-0.2,0.2-0.4,0.3-0.7,0.5c-0.2,0.2-0.5,0.2-0.8,0.3C20.6,25.7,20.3,25.8,19.9,25.8"/>
		</g>
	</g>
	<g>
		<g>
			<defs>
				<rect id="SVGID_7_" x="-0.1" y="-0.3" width="74.7" height="60.6"/>
			</defs>
			<clipPath id="SVGID_8_">
				<use xlink:href="#SVGID_7_"  style="overflow:visible;"/>
			</clipPath>
			<path class="st3" d="M16.7,29.5h2.7c0.7,0,1.2,0.1,1.7,0.2c0.5,0.2,0.9,0.4,1.2,0.7c0.3,0.3,0.6,0.7,0.7,1.1
				c0.2,0.4,0.2,0.9,0.2,1.4l0,0c0,0.5-0.1,0.9-0.2,1.4c-0.2,0.4-0.4,0.8-0.8,1.1c-0.3,0.3-0.7,0.5-1.2,0.7
				c-0.5,0.2-1.1,0.2-1.7,0.2h-2.7L16.7,29.5L16.7,29.5z M19.4,34.7c0.6,0,1.1-0.2,1.4-0.5c0.3-0.3,0.5-0.7,0.5-1.2l0,0
				c0-0.5-0.2-1-0.5-1.2c-0.3-0.3-0.8-0.5-1.4-0.5h-0.8v3.5C18.6,34.7,19.4,34.7,19.4,34.7z"/>
		</g>
	</g>
	<g>
		<g>
			<defs>
				<rect id="SVGID_9_" x="-0.1" y="-0.3" width="74.7" height="60.6"/>
			</defs>
			<clipPath id="SVGID_10_">
				<use xlink:href="#SVGID_9_"  style="overflow:visible;"/>
			</clipPath>
			<path class="st4" d="M35.4,52.2c-0.5,0-0.9-0.1-1.2-0.2c-0.3-0.1-0.7-0.3-0.9-0.5c-0.2-0.2-0.5-0.6-0.6-0.9
				c-0.2-0.3-0.2-0.8-0.2-1.3v-3.7h1.8v3.7c0,0.5,0.1,0.8,0.3,1.1c0.2,0.2,0.5,0.3,0.8,0.3c0.3,0,0.7-0.1,0.8-0.3
				c0.2-0.2,0.3-0.6,0.3-1v-3.7h1.8v3.6c0,0.5-0.1,1-0.2,1.4c-0.2,0.3-0.3,0.7-0.7,0.9c-0.2,0.2-0.6,0.4-0.9,0.5
				C36.3,52.1,35.9,52.2,35.4,52.2"/>
		</g>
	</g>
	<g>
		<g>
			<defs>
				<rect id="SVGID_11_" x="-0.1" y="-0.3" width="74.7" height="60.6"/>
			</defs>
			<clipPath id="SVGID_12_">
				<use xlink:href="#SVGID_11_"  style="overflow:visible;"/>
			</clipPath>
			<path class="st5" d="M34,8.6c-0.2,0-0.5-0.1-0.7-0.2c-0.2-0.1-0.4-0.2-0.6-0.3c-0.2-0.2-0.2-0.3-0.3-0.5
				c-0.1-0.2-0.2-0.4-0.2-0.7l0,0c0-0.2,0.1-0.5,0.2-0.7c0.1-0.2,0.2-0.3,0.3-0.5c0.2-0.2,0.3-0.2,0.6-0.3c0.2-0.1,0.5-0.2,0.7-0.2
				c0.2,0,0.5,0.1,0.7,0.2c0.2,0.1,0.4,0.2,0.6,0.3c0.2,0.2,0.2,0.3,0.3,0.5c0.1,0.2,0.2,0.4,0.2,0.7l0,0c0,0.2-0.1,0.5-0.2,0.7
				c-0.1,0.2-0.2,0.3-0.3,0.5c-0.2,0.2-0.3,0.2-0.6,0.3C34.4,8.6,34.3,8.6,34,8.6 M34,7.7c0.1,0,0.2,0,0.3-0.1
				c0.1-0.1,0.2-0.1,0.2-0.2c0.1-0.1,0.1-0.2,0.2-0.2c0.1,0,0.1-0.2,0.1-0.2l0,0c0-0.1,0-0.2-0.1-0.3c-0.1-0.1-0.1-0.2-0.2-0.2
				c-0.1-0.1-0.2-0.2-0.2-0.2c-0.1,0-0.2,0-0.3,0s-0.2,0-0.3,0.1c-0.1,0.1-0.2,0.1-0.2,0.2c-0.1,0.1-0.1,0.2-0.2,0.2
				c-0.1,0.1-0.1,0.2-0.1,0.3l0,0c0,0.1,0,0.2,0.1,0.3c0.1,0.1,0.1,0.2,0.2,0.2c0.1,0.1,0.2,0.2,0.2,0.2C33.7,7.7,33.8,7.7,34,7.7"
				/>
		</g>
	</g>
	<g>
		<g>
			<defs>
				<rect id="SVGID_13_" x="-0.1" y="-0.3" width="74.7" height="60.6"/>
			</defs>
			<clipPath id="SVGID_14_">
				<use xlink:href="#SVGID_13_"  style="overflow:visible;"/>
			</clipPath>
			<path class="st6" d="M38,8.6c-0.2,0-0.5-0.1-0.7-0.1c-0.2-0.1-0.3-0.2-0.5-0.3c-0.2-0.1-0.2-0.3-0.3-0.5
				c-0.1-0.2-0.2-0.4-0.2-0.7l0,0c0-0.2,0.1-0.5,0.1-0.7c0.1-0.2,0.2-0.3,0.3-0.5c0.2-0.2,0.3-0.2,0.5-0.3c0.2-0.1,0.4-0.2,0.7-0.2
				c0.2,0,0.3,0,0.5,0.1c0.2,0.1,0.2,0.1,0.3,0.2c0.1,0.1,0.2,0.2,0.3,0.2c0.1,0.1,0.2,0.2,0.2,0.2l-0.7,0.5
				c-0.1-0.1-0.2-0.2-0.3-0.2c-0.1-0.1-0.2-0.1-0.4-0.1c-0.1,0-0.2,0-0.3,0.1c-0.1,0.1-0.2-0.2-0.2-0.1c-0.1,0.1-0.1,0.2-0.2,0.2
				c-0.1,0.1-0.1,0.2-0.1,0.3l0,0c0,0.1,0,0.2,0.1,0.3c0.1,0.2,0.2,0.2,0.2,0.3c0.1,0.1,0.2,0.2,0.2,0.2c0.1,0.1,0.2,0.1,0.3,0.1
				c0.1,0,0.2,0,0.2-0.1c0.1,0,0.2-0.1,0.2-0.1c0.1-0.1,0.1-0.1,0.2-0.1c0.1-0.1,0.1-0.1,0.2-0.2l0.7,0.5c-0.1,0.1-0.2,0.2-0.2,0.3
				c-0.1,0.1-0.2,0.2-0.3,0.2c-0.1,0.1-0.2,0.1-0.4,0.2C38.3,8.6,38.2,8.6,38,8.6"/>
		</g>
	</g>
	<g>
		<g>
			<defs>
				<rect id="SVGID_15_" x="-0.1" y="-0.3" width="74.7" height="60.6"/>
			</defs>
			<clipPath id="SVGID_16_">
				<use xlink:href="#SVGID_15_"  style="overflow:visible;"/>
			</clipPath>
			<path class="st7" d="M41.2,5.2h0.9l1.4,3.3h-1l-0.2-0.6h-1.2l-0.2,0.6h-1L41.2,5.2z M42,7.2l-0.3-0.9l-0.3,0.9H42z"/>
		</g>
	</g>
	<g>
		<g>
			<defs>
				<rect id="SVGID_17_" x="-0.1" y="-0.3" width="74.7" height="60.6"/>
			</defs>
			<clipPath id="SVGID_18_">
				<use xlink:href="#SVGID_17_"  style="overflow:visible;"/>
			</clipPath>
			<path class="st8" d="M44,5.3h1.2c0.3,0,0.6,0.1,0.8,0.1c0.2,0.1,0.4,0.2,0.6,0.3C46.8,5.8,46.9,6,47,6.2C47,6.4,47,6.6,47,6.8
				l0,0C47,7.1,47,7.3,47,7.5c-0.1,0.2-0.2,0.3-0.3,0.5c-0.2,0.2-0.3,0.2-0.6,0.3s-0.5,0.1-0.8,0.1H44V5.3z M45.2,7.7
				c0.2,0,0.5-0.1,0.7-0.2c0.2-0.2,0.2-0.3,0.2-0.7l0,0c0-0.2-0.1-0.5-0.2-0.7c-0.2-0.2-0.3-0.2-0.7-0.2h-0.3v1.7
				C44.9,7.7,45.2,7.7,45.2,7.7z"/>
		</g>
	</g>
	<g>
		<g>
			<defs>
				<rect id="SVGID_19_" x="-0.1" y="-0.3" width="74.7" height="60.6"/>
			</defs>
			<clipPath id="SVGID_20_">
				<use xlink:href="#SVGID_19_"  style="overflow:visible;"/>
			</clipPath>
			<path class="st9" d="M33.8,13.8c-0.2,0-0.4-0.1-0.7-0.1c-0.2-0.1-0.3-0.2-0.5-0.2c-0.2-0.1-0.2-0.2-0.3-0.5
				c-0.1-0.2-0.1-0.4-0.1-0.7v-1.8h0.9v1.8c0,0.2,0.1,0.4,0.2,0.5c0.1,0.1,0.2,0.2,0.4,0.2s0.3-0.1,0.4-0.2c0.1-0.1,0.2-0.2,0.2-0.5
				v-1.8h0.9v1.8c0,0.2-0.1,0.5-0.1,0.7c-0.1,0.2-0.2,0.3-0.3,0.5c-0.2,0.1-0.3,0.2-0.5,0.2C34.3,13.8,34,13.8,33.8,13.8"/>
		</g>
	</g>
	<g>
		<g>
			<defs>
				<rect id="SVGID_21_" x="-0.1" y="-0.3" width="74.7" height="60.6"/>
			</defs>
			<clipPath id="SVGID_22_">
				<use xlink:href="#SVGID_21_"  style="overflow:visible;"/>
			</clipPath>
			<polygon class="st10" points="36.2,10.5 37,10.5 38.4,12.2 38.4,10.5 39.3,10.5 39.3,13.7 38.5,13.7 37.1,11.9 37.1,13.7 
				36.2,13.7 			"/>
		</g>
	</g>
	<g>
		<g>
			<defs>
				<rect id="SVGID_23_" x="-0.1" y="-0.3" width="74.7" height="60.6"/>
			</defs>
			<clipPath id="SVGID_24_">
				<use xlink:href="#SVGID_23_"  style="overflow:visible;"/>
			</clipPath>
			<rect x="40.2" y="10.5" class="st11" width="0.9" height="3.3"/>
		</g>
	</g>
	<g>
		<g>
			<defs>
				<rect id="SVGID_25_" x="-0.1" y="-0.3" width="74.7" height="60.6"/>
			</defs>
			<clipPath id="SVGID_26_">
				<use xlink:href="#SVGID_25_"  style="overflow:visible;"/>
			</clipPath>
			<polygon class="st12" points="41.6,10.5 42.6,10.5 43.4,12.5 44.1,10.5 45.1,10.5 43.8,13.8 43,13.8 			"/>
		</g>
	</g>
	<g>
		<g>
			<defs>
				<rect id="SVGID_27_" x="-0.1" y="-0.3" width="74.7" height="60.6"/>
			</defs>
			<clipPath id="SVGID_28_">
				<use xlink:href="#SVGID_27_"  style="overflow:visible;"/>
			</clipPath>
			<polygon class="st13" points="45.6,10.5 48.3,10.5 48.3,11.2 46.6,11.2 46.6,11.7 48.1,11.7 48.1,12.5 46.6,12.5 46.6,12.9 
				48.3,12.9 48.3,13.7 45.6,13.7 			"/>
		</g>
	</g>
	<g>
		<g>
			<defs>
				<rect id="SVGID_29_" x="-0.1" y="-0.3" width="74.7" height="60.6"/>
			</defs>
			<clipPath id="SVGID_30_">
				<use xlink:href="#SVGID_29_"  style="overflow:visible;"/>
			</clipPath>
			<path class="st14" d="M49.1,10.5h1.6c0.2,0,0.5,0.1,0.7,0.1c0.2,0.1,0.3,0.2,0.4,0.2c0.2,0.2,0.3,0.4,0.3,0.8l0,0
				c0,0.2-0.1,0.5-0.2,0.7c-0.1,0.2-0.2,0.3-0.5,0.3l0.8,1.2h-1.1l-0.7-1l0,0h-0.3v1h-0.9v-3.3C49.3,10.5,49.1,10.5,49.1,10.5z
				 M50.6,12.1c0.2,0,0.2-0.1,0.3-0.1c0.1,0,0.1-0.2,0.1-0.2l0,0c0-0.2-0.1-0.2-0.2-0.3c-0.1-0.1-0.2-0.1-0.3-0.1H50v0.8
				C50,12.1,50.6,12.1,50.6,12.1z"/>
		</g>
	</g>
	<g>
		<g>
			<defs>
				<rect id="SVGID_31_" x="-0.1" y="-0.3" width="74.7" height="60.6"/>
			</defs>
			<clipPath id="SVGID_32_">
				<use xlink:href="#SVGID_31_"  style="overflow:visible;"/>
			</clipPath>
			<path class="st15" d="M54,13.8c-0.3,0-0.6-0.1-0.8-0.2c-0.2-0.1-0.5-0.2-0.7-0.4l0.5-0.7c0.3,0.2,0.7,0.4,1.1,0.4
				c0.1,0,0.2,0,0.2-0.1c0.1-0.1,0.1-0.1,0.1-0.2l0,0c0-0.1,0-0.1,0-0.1c0-0.1-0.1-0.1-0.1-0.1c-0.1,0-0.1-0.1-0.2-0.1
				c-0.1,0-0.2-0.1-0.2-0.1c-0.2-0.1-0.3-0.1-0.5-0.2c-0.2-0.1-0.2-0.1-0.3-0.2c-0.1-0.1-0.2-0.2-0.2-0.2c-0.1-0.1-0.1-0.2-0.1-0.4
				l0,0c0-0.2,0.1-0.3,0.1-0.4c0.1-0.1,0.2-0.2,0.2-0.3s0.2-0.2,0.4-0.2c0.2-0.1,0.3-0.1,0.5-0.1c0.2,0,0.5,0.1,0.7,0.1
				c0.2,0.1,0.4,0.2,0.6,0.3l-0.5,0.7c-0.2-0.1-0.3-0.2-0.5-0.2C54.2,11,54,11,53.9,11c-0.1,0-0.2,0-0.2,0.1
				c-0.1,0.1-0.1,0.1-0.1,0.2l0,0c0,0.1,0,0.1,0,0.1c0,0.1,0.1,0.1,0.1,0.1s0.1,0.1,0.2,0.1c0.1,0,0.2,0.1,0.2,0.1
				c0.2,0.1,0.3,0.1,0.5,0.2c0.2,0.1,0.2,0.1,0.3,0.2c0.1,0.1,0.2,0.2,0.2,0.2s0.1,0.2,0.1,0.4l0,0c0,0.2-0.1,0.3-0.1,0.5
				c-0.1,0.1-0.2,0.2-0.2,0.3c-0.1,0.1-0.2,0.2-0.4,0.2C54.4,13.8,54.2,13.8,54,13.8"/>
		</g>
	</g>
	<g>
		<g>
			<defs>
				<rect id="SVGID_33_" x="-0.1" y="-0.3" width="74.7" height="60.6"/>
			</defs>
			<clipPath id="SVGID_34_">
				<use xlink:href="#SVGID_33_"  style="overflow:visible;"/>
			</clipPath>
			<rect x="56.1" y="10.5" class="st16" width="0.9" height="3.3"/>
		</g>
	</g>
	<g>
		<g>
			<defs>
				<rect id="SVGID_35_" x="-0.1" y="-0.3" width="74.7" height="60.6"/>
			</defs>
			<clipPath id="SVGID_36_">
				<use xlink:href="#SVGID_35_"  style="overflow:visible;"/>
			</clipPath>
			<polygon class="st17" points="58.5,11.2 57.5,11.2 57.5,10.5 60.4,10.5 60.4,11.2 59.5,11.2 59.5,13.7 58.5,13.7 			"/>
		</g>
	</g>
	<g>
		<g>
			<defs>
				<rect id="SVGID_37_" x="-0.1" y="-0.3" width="74.7" height="60.6"/>
			</defs>
			<clipPath id="SVGID_38_">
				<use xlink:href="#SVGID_37_"  style="overflow:visible;"/>
			</clipPath>
			<polygon class="st18" points="62.2,12.5 60.8,10.5 61.9,10.5 62.6,11.7 63.3,10.5 64.3,10.5 63,12.5 63,13.7 62.2,13.7 			"/>
		</g>
	</g>
	<g>
		<g>
			<defs>
				<rect id="SVGID_39_" x="-0.1" y="-0.3" width="74.7" height="60.6"/>
			</defs>
			<clipPath id="SVGID_40_">
				<use xlink:href="#SVGID_39_"  style="overflow:visible;"/>
			</clipPath>
			<path class="st19" d="M10,29.4H8.1l-2.9,7h2l0.4-1.1h2.7l0.5,1.1h2.1L10,29.4z M8.2,33.8l0.8-2.1l0.8,2.1H8.2z"/>
		</g>
	</g>
</g>
</svg>
