<?xml version="1.0" encoding="utf-8"?>
<!-- Generator: Adobe Illustrator 22.1.0, SVG Export Plug-In . SVG Version: 6.00 Build 0)  -->
<svg version="1.1" id="Layer_1" xmlns="http://www.w3.org/2000/svg" xmlns:xlink="http://www.w3.org/1999/xlink" x="0px" y="0px"
	 viewBox="0 0 83.2 70.3" style="enable-background:new 0 0 83.2 70.3;" xml:space="preserve">
<style type="text/css">
	.st0{clip-path:url(#SVGID_2_);fill:#010101;}
	.st1{clip-path:url(#SVGID_4_);fill:#010101;}
	.st2{clip-path:url(#SVGID_6_);fill:#010101;}
	.st3{clip-path:url(#SVGID_8_);fill:#010101;}
	.st4{clip-path:url(#SVGID_10_);fill:#010101;}
	.st5{clip-path:url(#SVGID_12_);fill:#231F20;}
	.st6{clip-path:url(#SVGID_14_);fill:#231F20;}
	.st7{clip-path:url(#SVGID_16_);fill:#231F20;}
	.st8{clip-path:url(#SVGID_18_);fill:#231F20;}
	.st9{clip-path:url(#SVGID_20_);fill:#231F20;}
	.st10{clip-path:url(#SVGID_22_);fill:#231F20;}
	.st11{clip-path:url(#SVGID_24_);fill:#231F20;}
	.st12{clip-path:url(#SVGID_26_);fill:#231F20;}
	.st13{clip-path:url(#SVGID_28_);fill:#231F20;}
	.st14{clip-path:url(#SVGID_30_);fill:#231F20;}
	.st15{clip-path:url(#SVGID_32_);fill:#231F20;}
	.st16{clip-path:url(#SVGID_34_);fill:#231F20;}
	.st17{clip-path:url(#SVGID_36_);fill:#231F20;}
	.st18{clip-path:url(#SVGID_38_);fill:#231F20;}
	.st19{clip-path:url(#SVGID_40_);fill:#010101;}
</style>
<g>
	<g>
		<defs>
			<rect id="SVGID_1_" y="0.3" width="89.9" height="72.9"/>
		</defs>
		<clipPath id="SVGID_2_">
			<use xlink:href="#SVGID_1_"  style="overflow:visible;"/>
		</clipPath>
		<path class="st0" d="M53.1,69.7V51.2h30.1V0.3H32.3v16.3H0v34.7h32.3v18.5L53.1,69.7L53.1,69.7z M2.3,19h30v30h-30V19z M50.9,67.4
			H34.6V51.2h16.3V67.4z M81,49H34.6V2.7h46.3L81,49L81,49z"/>
	</g>
	<g>
		<defs>
			<rect id="SVGID_3_" y="0.3" width="89.9" height="72.9"/>
		</defs>
		<clipPath id="SVGID_4_">
			<use xlink:href="#SVGID_3_"  style="overflow:visible;"/>
		</clipPath>
		<path class="st1" d="M11,31.7c-0.6,0-1.2-0.1-1.8-0.3c-0.6-0.3-1-0.5-1.4-0.9c-0.4-0.4-0.7-0.8-1-1.3c-0.3-0.5-0.3-1.1-0.3-1.7
			l0,0c0-0.6,0.1-1.1,0.3-1.7c0.3-0.5,0.5-1,1-1.4c0.4-0.4,0.9-0.7,1.4-1c0.6-0.3,1.1-0.3,1.8-0.3s1.2,0.1,1.8,0.3
			c0.6,0.3,1,0.5,1.4,0.9c0.4,0.4,0.7,0.8,1,1.3s0.3,1.1,0.3,1.7l0,0c0,0.6-0.1,1.1-0.3,1.7c-0.3,0.5-0.5,1-1,1.4
			c-0.4,0.4-0.9,0.7-1.4,1C12.2,31.6,11.6,31.7,11,31.7 M11,29.6c0.3,0,0.6-0.1,0.9-0.2c0.3-0.1,0.5-0.3,0.6-0.5
			c0.2-0.2,0.3-0.4,0.4-0.7c0.1-0.3,0.1-0.6,0.1-0.8l0,0c0-0.3-0.1-0.6-0.1-0.8c-0.1-0.3-0.3-0.5-0.4-0.7c-0.2-0.2-0.4-0.4-0.7-0.5
			c-0.3-0.1-0.6-0.2-0.9-0.2c-0.3,0-0.6,0.1-0.9,0.2c-0.3,0.1-0.5,0.3-0.6,0.5C9.2,26,9.1,26.3,9,26.5c-0.1,0.3-0.1,0.6-0.1,0.8l0,0
			c0,0.3,0.1,0.6,0.1,0.8c0.1,0.3,0.3,0.5,0.4,0.7s0.4,0.4,0.7,0.5C10.4,29.5,10.7,29.6,11,29.6"/>
	</g>
	<g>
		<defs>
			<rect id="SVGID_5_" y="0.3" width="89.9" height="72.9"/>
		</defs>
		<clipPath id="SVGID_6_">
			<use xlink:href="#SVGID_5_"  style="overflow:visible;"/>
		</clipPath>
		<path class="st2" d="M24,31.7c-0.6,0-1.1-0.1-1.7-0.3s-1-0.5-1.3-0.9c-0.4-0.4-0.7-0.8-0.9-1.3c-0.3-0.5-0.3-1.1-0.3-1.7l0,0
			c0-0.6,0.1-1.1,0.3-1.7c0.2-0.5,0.5-1,0.9-1.4c0.4-0.4,0.8-0.7,1.4-0.9c0.5-0.2,1.1-0.3,1.7-0.3c0.4,0,0.8,0.1,1.1,0.1
			c0.3,0.1,0.6,0.2,1,0.4c0.3,0.1,0.6,0.3,0.8,0.6c0.3,0.2,0.4,0.4,0.6,0.7l-1.7,1.3c-0.3-0.3-0.5-0.5-0.8-0.7
			c-0.3-0.2-0.6-0.3-1-0.3c-0.3,0-0.6,0.1-0.8,0.2c-0.3,0.1-0.4,0.3-0.6,0.4c-0.2,0.2-0.3,0.4-0.4,0.7c-0.1,0.3-0.1,0.6-0.1,0.8l0,0
			c0,0.3,0.1,0.6,0.1,0.9c0.1,0.3,0.3,0.5,0.4,0.7c0.2,0.2,0.4,0.4,0.6,0.4c0.3,0.1,0.5,0.2,0.8,0.2c0.2,0,0.4,0,0.6-0.1
			c0.2-0.1,0.3-0.1,0.5-0.2c0.1-0.1,0.3-0.2,0.4-0.3c0.1-0.1,0.3-0.3,0.4-0.4l1.7,1.2c-0.2,0.3-0.4,0.5-0.6,0.8
			c-0.3,0.3-0.5,0.4-0.8,0.6c-0.3,0.2-0.6,0.3-1,0.4C24.9,31.6,24.5,31.7,24,31.7"/>
	</g>
	<g>
		<defs>
			<rect id="SVGID_7_" y="0.3" width="89.9" height="72.9"/>
		</defs>
		<clipPath id="SVGID_8_">
			<use xlink:href="#SVGID_7_"  style="overflow:visible;"/>
		</clipPath>
		<path class="st3" d="M20.2,36.2h3.2c0.8,0,1.4,0.1,2,0.3c0.6,0.2,1.1,0.5,1.5,0.8c0.4,0.4,0.7,0.8,0.9,1.3
			c0.2,0.5,0.3,1.1,0.3,1.7l0,0c0,0.6-0.1,1.1-0.3,1.7c-0.2,0.5-0.5,1-1,1.3c-0.4,0.4-0.9,0.6-1.5,0.9c-0.6,0.2-1.3,0.3-2,0.3h-3.2
			L20.2,36.2L20.2,36.2z M23.4,42.4c0.7,0,1.3-0.2,1.7-0.6c0.4-0.4,0.6-0.9,0.6-1.5l0,0c0-0.6-0.2-1.2-0.6-1.5
			c-0.4-0.4-1-0.6-1.7-0.6h-1v4.2C22.5,42.4,23.4,42.4,23.4,42.4z"/>
	</g>
	<g>
		<defs>
			<rect id="SVGID_9_" y="0.3" width="89.9" height="72.9"/>
		</defs>
		<clipPath id="SVGID_10_">
			<use xlink:href="#SVGID_9_"  style="overflow:visible;"/>
		</clipPath>
		<path class="st4" d="M42.7,63.5c-0.6,0-1.1-0.1-1.5-0.2c-0.4-0.1-0.8-0.4-1.1-0.6c-0.3-0.3-0.6-0.7-0.7-1.1
			c-0.2-0.4-0.3-1-0.3-1.6v-4.4h2.2v4.4c0,0.6,0.1,1,0.4,1.3c0.3,0.3,0.6,0.4,1,0.4c0.4,0,0.8-0.1,1-0.4c0.3-0.3,0.4-0.7,0.4-1.2
			v-4.4h2.2v4.3c0,0.6-0.1,1.2-0.3,1.7c-0.2,0.4-0.4,0.8-0.8,1.1c-0.3,0.3-0.7,0.5-1.1,0.6C43.8,63.4,43.3,63.5,42.7,63.5"/>
	</g>
	<g>
		<defs>
			<rect id="SVGID_11_" y="0.3" width="89.9" height="72.9"/>
		</defs>
		<clipPath id="SVGID_12_">
			<use xlink:href="#SVGID_11_"  style="overflow:visible;"/>
		</clipPath>
		<path class="st5" d="M41,11c-0.3,0-0.6-0.1-0.8-0.2c-0.3-0.1-0.5-0.3-0.7-0.4c-0.2-0.2-0.3-0.4-0.4-0.6s-0.2-0.5-0.2-0.8l0,0
			c0-0.3,0.1-0.6,0.2-0.8c0.1-0.3,0.3-0.4,0.4-0.6c0.2-0.2,0.4-0.3,0.7-0.4c0.3-0.1,0.6-0.2,0.8-0.2c0.3,0,0.6,0.1,0.8,0.2
			c0.3,0.1,0.5,0.3,0.7,0.4c0.2,0.2,0.3,0.4,0.4,0.6c0.1,0.3,0.2,0.5,0.2,0.8l0,0c0,0.3-0.1,0.6-0.2,0.8c-0.1,0.3-0.3,0.4-0.4,0.6
			c-0.2,0.2-0.4,0.3-0.7,0.4C41.5,11,41.3,11,41,11 M41,10c0.1,0,0.3,0,0.4-0.1c0.1-0.1,0.3-0.1,0.3-0.3c0.1-0.1,0.1-0.2,0.2-0.3
			C42,9.3,42,9.1,42,9l0,0c0-0.1,0-0.3-0.1-0.4c-0.1-0.1-0.1-0.3-0.2-0.3c-0.1-0.1-0.2-0.2-0.3-0.3C41.3,8,41.1,8,41,8
			c-0.1,0-0.3,0-0.4,0.1c-0.1,0.1-0.3,0.1-0.3,0.3c-0.1,0.1-0.1,0.2-0.2,0.3c-0.1,0.1-0.1,0.3-0.1,0.4l0,0c0,0.1,0,0.3,0.1,0.4
			c0.1,0.1,0.1,0.3,0.2,0.3c0.1,0.1,0.2,0.2,0.3,0.3C40.6,10,40.8,10,41,10"/>
	</g>
	<g>
		<defs>
			<rect id="SVGID_13_" y="0.3" width="89.9" height="72.9"/>
		</defs>
		<clipPath id="SVGID_14_">
			<use xlink:href="#SVGID_13_"  style="overflow:visible;"/>
		</clipPath>
		<path class="st6" d="M45.8,11c-0.3,0-0.6-0.1-0.8-0.1c-0.3-0.1-0.4-0.3-0.6-0.4s-0.3-0.4-0.4-0.6c-0.1-0.3-0.2-0.5-0.2-0.8l0,0
			c0-0.3,0.1-0.6,0.1-0.8c0.1-0.3,0.3-0.4,0.4-0.6c0.2-0.2,0.4-0.3,0.6-0.4c0.3-0.1,0.5-0.2,0.8-0.2c0.2,0,0.4,0,0.6,0.1
			s0.3,0.1,0.4,0.2c0.1,0.1,0.3,0.2,0.4,0.3c0.1,0.1,0.2,0.2,0.3,0.3l-0.8,0.6c-0.1-0.1-0.3-0.3-0.4-0.3c-0.1-0.1-0.3-0.1-0.5-0.1
			c-0.1,0-0.3,0-0.4,0.1S45.1,8.1,45,8.2c-0.1,0.1-0.1,0.2-0.2,0.3c-0.1,0.1-0.1,0.3-0.1,0.4l0,0c0,0.1,0,0.3,0.1,0.4
			C44.9,9.5,45,9.6,45,9.7c0.1,0.1,0.2,0.2,0.3,0.3s0.3,0.1,0.4,0.1c0.1,0,0.2,0,0.3-0.1c0.1,0,0.2-0.1,0.3-0.1
			c0.1-0.1,0.1-0.1,0.2-0.1c0.1-0.1,0.1-0.1,0.2-0.2l0.8,0.6c-0.1,0.1-0.2,0.3-0.3,0.4c-0.1,0.1-0.3,0.2-0.4,0.3
			c-0.1,0.1-0.3,0.1-0.5,0.2C46.2,11,46,11,45.8,11"/>
	</g>
	<g>
		<defs>
			<rect id="SVGID_15_" y="0.3" width="89.9" height="72.9"/>
		</defs>
		<clipPath id="SVGID_16_">
			<use xlink:href="#SVGID_15_"  style="overflow:visible;"/>
		</clipPath>
		<path class="st7" d="M49.7,6.9h1.1l1.7,4h-1.2l-0.3-0.7h-1.5l-0.3,0.7H48L49.7,6.9z M50.6,9.4l-0.4-1.1l-0.4,1.1H50.6z"/>
	</g>
	<g>
		<defs>
			<rect id="SVGID_17_" y="0.3" width="89.9" height="72.9"/>
		</defs>
		<clipPath id="SVGID_18_">
			<use xlink:href="#SVGID_17_"  style="overflow:visible;"/>
		</clipPath>
		<path class="st8" d="M53,7h1.5c0.4,0,0.7,0.1,1,0.1c0.3,0.1,0.5,0.3,0.7,0.4c0.2,0.2,0.3,0.4,0.4,0.6c0.1,0.3,0.1,0.5,0.1,0.8l0,0
			c0,0.3-0.1,0.6-0.1,0.8c-0.1,0.3-0.3,0.4-0.4,0.6c-0.2,0.2-0.4,0.3-0.7,0.4s-0.6,0.1-1,0.1H53V7z M54.5,10c0.3,0,0.6-0.1,0.8-0.3
			c0.2-0.2,0.3-0.4,0.3-0.8l0,0c0-0.3-0.1-0.6-0.3-0.8c-0.2-0.2-0.4-0.3-0.8-0.3h-0.4v2C54.1,10,54.5,10,54.5,10z"/>
	</g>
	<g>
		<defs>
			<rect id="SVGID_19_" y="0.3" width="89.9" height="72.9"/>
		</defs>
		<clipPath id="SVGID_20_">
			<use xlink:href="#SVGID_19_"  style="overflow:visible;"/>
		</clipPath>
		<path class="st9" d="M40.8,17.3c-0.3,0-0.5-0.1-0.8-0.1c-0.3-0.1-0.4-0.2-0.6-0.3s-0.3-0.3-0.4-0.6c-0.1-0.3-0.1-0.5-0.1-0.8v-2.2
			H40v2.2c0,0.3,0.1,0.5,0.2,0.6c0.1,0.1,0.3,0.2,0.5,0.2c0.2,0,0.4-0.1,0.5-0.2c0.1-0.1,0.2-0.3,0.2-0.6v-2.2h1.1v2.2
			c0,0.3-0.1,0.6-0.1,0.8c-0.1,0.3-0.2,0.4-0.4,0.6c-0.2,0.1-0.4,0.3-0.6,0.3C41.3,17.3,41,17.3,40.8,17.3"/>
	</g>
	<g>
		<defs>
			<rect id="SVGID_21_" y="0.3" width="89.9" height="72.9"/>
		</defs>
		<clipPath id="SVGID_22_">
			<use xlink:href="#SVGID_21_"  style="overflow:visible;"/>
		</clipPath>
		<polygon class="st10" points="43.6,13.3 44.6,13.3 46.3,15.4 46.3,13.3 47.4,13.3 47.4,17.2 46.4,17.2 44.7,15 44.7,17.2 
			43.6,17.2 		"/>
	</g>
	<g>
		<defs>
			<rect id="SVGID_23_" y="0.3" width="89.9" height="72.9"/>
		</defs>
		<clipPath id="SVGID_24_">
			<use xlink:href="#SVGID_23_"  style="overflow:visible;"/>
		</clipPath>
		<rect x="48.4" y="13.3" class="st11" width="1.1" height="4"/>
	</g>
	<g>
		<defs>
			<rect id="SVGID_25_" y="0.3" width="89.9" height="72.9"/>
		</defs>
		<clipPath id="SVGID_26_">
			<use xlink:href="#SVGID_25_"  style="overflow:visible;"/>
		</clipPath>
		<polygon class="st12" points="50.2,13.3 51.4,13.3 52.3,15.7 53.2,13.3 54.4,13.3 52.8,17.3 51.8,17.3 		"/>
	</g>
	<g>
		<defs>
			<rect id="SVGID_27_" y="0.3" width="89.9" height="72.9"/>
		</defs>
		<clipPath id="SVGID_28_">
			<use xlink:href="#SVGID_27_"  style="overflow:visible;"/>
		</clipPath>
		<polygon class="st13" points="55,13.3 58.2,13.3 58.2,14.2 56.1,14.2 56.1,14.8 58,14.8 58,15.7 56.1,15.7 56.1,16.2 58.2,16.2 
			58.2,17.2 55,17.2 		"/>
	</g>
	<g>
		<defs>
			<rect id="SVGID_29_" y="0.3" width="89.9" height="72.9"/>
		</defs>
		<clipPath id="SVGID_30_">
			<use xlink:href="#SVGID_29_"  style="overflow:visible;"/>
		</clipPath>
		<path class="st14" d="M59.2,13.3h1.9c0.3,0,0.6,0.1,0.8,0.1c0.2,0.1,0.4,0.2,0.5,0.3c0.3,0.3,0.4,0.5,0.4,1l0,0
			c0,0.3-0.1,0.6-0.2,0.8c-0.1,0.2-0.3,0.4-0.6,0.4l1,1.4h-1.3l-0.8-1.2l0,0h-0.4v1.2h-1.1v-4H59.2z M61,15.2c0.2,0,0.3-0.1,0.4-0.1
			s0.1-0.2,0.1-0.3l0,0c0-0.2-0.1-0.3-0.2-0.4c-0.1-0.1-0.3-0.1-0.4-0.1h-0.7v1C60.3,15.2,61,15.2,61,15.2z"/>
	</g>
	<g>
		<defs>
			<rect id="SVGID_31_" y="0.3" width="89.9" height="72.9"/>
		</defs>
		<clipPath id="SVGID_32_">
			<use xlink:href="#SVGID_31_"  style="overflow:visible;"/>
		</clipPath>
		<path class="st15" d="M65.1,17.3c-0.4,0-0.7-0.1-1-0.2c-0.3-0.1-0.6-0.3-0.8-0.5l0.6-0.8c0.4,0.3,0.8,0.5,1.3,0.5
			c0.1,0,0.3,0,0.3-0.1c0.1-0.1,0.1-0.1,0.1-0.2l0,0c0-0.1,0-0.1,0-0.1c0-0.1-0.1-0.1-0.1-0.1c-0.1,0-0.1-0.1-0.2-0.1
			c-0.1,0-0.2-0.1-0.3-0.1c-0.2-0.1-0.4-0.1-0.6-0.2c-0.2-0.1-0.3-0.1-0.4-0.3c-0.1-0.1-0.3-0.2-0.3-0.3c-0.1-0.1-0.1-0.3-0.1-0.5
			l0,0c0-0.2,0.1-0.4,0.1-0.5c0.1-0.1,0.2-0.3,0.3-0.4c0.1-0.1,0.3-0.2,0.5-0.3c0.2-0.1,0.4-0.1,0.6-0.1c0.3,0,0.6,0.1,0.9,0.1
			c0.3,0.1,0.5,0.3,0.7,0.4l-0.6,0.8c-0.2-0.1-0.4-0.3-0.6-0.3c-0.2-0.1-0.4-0.1-0.6-0.1c-0.1,0-0.3,0-0.3,0.1
			c-0.1,0.1-0.1,0.1-0.1,0.2l0,0c0,0.1,0,0.1,0,0.1c0,0.1,0.1,0.1,0.1,0.1s0.1,0.1,0.2,0.1s0.2,0.1,0.3,0.1c0.3,0.1,0.4,0.1,0.6,0.2
			c0.2,0.1,0.3,0.1,0.4,0.3c0.1,0.1,0.3,0.2,0.3,0.3s0.1,0.3,0.1,0.5l0,0c0,0.2-0.1,0.4-0.1,0.6c-0.1,0.1-0.2,0.3-0.3,0.4
			c-0.1,0.1-0.3,0.2-0.5,0.3C65.6,17.3,65.3,17.3,65.1,17.3"/>
	</g>
	<g>
		<defs>
			<rect id="SVGID_33_" y="0.3" width="89.9" height="72.9"/>
		</defs>
		<clipPath id="SVGID_34_">
			<use xlink:href="#SVGID_33_"  style="overflow:visible;"/>
		</clipPath>
		<rect x="67.6" y="13.3" class="st16" width="1.1" height="4"/>
	</g>
	<g>
		<defs>
			<rect id="SVGID_35_" y="0.3" width="89.9" height="72.9"/>
		</defs>
		<clipPath id="SVGID_36_">
			<use xlink:href="#SVGID_35_"  style="overflow:visible;"/>
		</clipPath>
		<polygon class="st17" points="70.5,14.2 69.3,14.2 69.3,13.3 72.8,13.3 72.8,14.2 71.7,14.2 71.7,17.2 70.5,17.2 		"/>
	</g>
	<g>
		<defs>
			<rect id="SVGID_37_" y="0.3" width="89.9" height="72.9"/>
		</defs>
		<clipPath id="SVGID_38_">
			<use xlink:href="#SVGID_37_"  style="overflow:visible;"/>
		</clipPath>
		<polygon class="st18" points="74.9,15.7 73.3,13.3 74.6,13.3 75.4,14.7 76.3,13.3 77.5,13.3 75.9,15.7 75.9,17.2 74.9,17.2 		"/>
	</g>
	<g>
		<defs>
			<rect id="SVGID_39_" y="0.3" width="89.9" height="72.9"/>
		</defs>
		<clipPath id="SVGID_40_">
			<use xlink:href="#SVGID_39_"  style="overflow:visible;"/>
		</clipPath>
		<path class="st19" d="M12.1,36.1H9.8l-3.5,8.4h2.4l0.5-1.3h3.3l0.6,1.3h2.5L12.1,36.1z M10,41.4l1-2.5l1,2.5H10z"/>
	</g>
</g>
</svg>
